<?xml version="1.0" encoding="utf-8"?>
<!-- Generator: Adobe Illustrator 27.5.0, SVG Export Plug-In . SVG Version: 6.00 Build 0)  -->
<svg version="1.1" xmlns="http://www.w3.org/2000/svg" xmlns:xlink="http://www.w3.org/1999/xlink" x="0px" y="0px"
	 viewBox="0 0 1080 1080" style="enable-background:new 0 0 1080 1080;" xml:space="preserve">
<style type="text/css">
	.st0{opacity:0.3;clip-path:url(#SVGID_00000044177757498355867230000011216184586992520593_);}
	.st1{fill:#FFFFFF;}
</style>
<g id="BACKGROUND">
</g>
<g id="OBJECTS">
	<g>
		<defs>
			<rect id="SVGID_1_" y="0" width="1080" height="1080"/>
		</defs>
		<clipPath id="SVGID_00000171697251372010200480000017872194248174413459_">
			<use xlink:href="#SVGID_1_"  style="overflow:visible;"/>
		</clipPath>
		<g style="opacity:0.3;clip-path:url(#SVGID_00000171697251372010200480000017872194248174413459_);">
			<g>
				<path class="st1" d="M1081,1081H-1V-1h1082V1081z M1,1079h1078V1H1V1079z"/>
			</g>
			<g>
				<rect x="0" y="1011.5" class="st1" width="1080" height="2"/>
			</g>
			<g>
				<rect x="0" y="944" class="st1" width="1080" height="2"/>
			</g>
			<g>
				<rect x="0" y="876.5" class="st1" width="1080" height="2"/>
			</g>
			<g>
				<rect x="0" y="809" class="st1" width="1080" height="2"/>
			</g>
			<g>
				<rect x="0" y="741.5" class="st1" width="1080" height="2"/>
			</g>
			<g>
				<rect x="0" y="674" class="st1" width="1080" height="2"/>
			</g>
			<g>
				<rect x="0" y="606.5" class="st1" width="1080" height="2"/>
			</g>
			<g>
				<rect x="0" y="539" class="st1" width="1080" height="2"/>
			</g>
			<g>
				<rect x="0" y="471.5" class="st1" width="1080" height="2"/>
			</g>
			<g>
				<rect x="0" y="404" class="st1" width="1080" height="2"/>
			</g>
			<g>
				<rect x="0" y="336.5" class="st1" width="1080" height="2"/>
			</g>
			<g>
				<rect x="0" y="269" class="st1" width="1080" height="2"/>
			</g>
			<g>
				<rect x="0" y="201.5" class="st1" width="1080" height="2"/>
			</g>
			<g>
				<rect x="0" y="134" class="st1" width="1080" height="2"/>
			</g>
			<g>
				<rect x="0" y="66.5" class="st1" width="1080" height="2"/>
			</g>
			<g>
				<rect x="1011.5" y="0" class="st1" width="2" height="1080"/>
			</g>
			<g>
				<rect x="944" y="0" class="st1" width="2" height="1080"/>
			</g>
			<g>
				<rect x="876.5" y="0" class="st1" width="2" height="1080"/>
			</g>
			<g>
				<rect x="809" y="0" class="st1" width="2" height="1080"/>
			</g>
			<g>
				<rect x="741.5" y="0" class="st1" width="2" height="1080"/>
			</g>
			<g>
				<rect x="674" y="0" class="st1" width="2" height="1080"/>
			</g>
			<g>
				<rect x="606.5" y="0" class="st1" width="2" height="1080"/>
			</g>
			<g>
				<rect x="539" y="0" class="st1" width="2" height="1080"/>
			</g>
			<g>
				<rect x="471.5" y="0" class="st1" width="2" height="1080"/>
			</g>
			<g>
				<rect x="404" y="0" class="st1" width="2" height="1080"/>
			</g>
			<g>
				<rect x="336.5" y="0" class="st1" width="2" height="1080"/>
			</g>
			<g>
				<rect x="269" y="0" class="st1" width="2" height="1080"/>
			</g>
			<g>
				<rect x="201.5" y="0" class="st1" width="2" height="1080"/>
			</g>
			<g>
				<rect x="134" y="0" class="st1" width="2" height="1080"/>
			</g>
			<g>
				<rect x="66.5" y="0" class="st1" width="2" height="1080"/>
			</g>
		</g>
		<g style="clip-path:url(#SVGID_00000171697251372010200480000017872194248174413459_);">
			<text transform="matrix(1 0 0 1 -315.8081 684.2701)" style="font-family:'MyriadPro-Regular'; font-size:12px;">Lorem ipsum</text>
		</g>
	</g>
</g>
</svg>
