<?xml version="1.0" encoding="UTF-8"?>
<svg id="Layer_1" data-name="Layer 1" xmlns="http://www.w3.org/2000/svg" xmlns:xlink="http://www.w3.org/1999/xlink" viewBox="0 0 528 362">
  <defs>
    <style>
      .cls-1 {
        fill: none;
        opacity: .5;
      }

      .cls-2 {
        fill: #b3b3b3;
      }

      .cls-3 {
        fill: url(#radial-gradient);
      }
    </style>
    <radialGradient id="radial-gradient" cx="-427.35" cy="204.16" fx="-427.35" fy="204.16" r="107" gradientTransform="translate(1382.27 -379.41) scale(2.62 2.71)" gradientUnits="userSpaceOnUse">
      <stop offset=".65" stop-color="#000" stop-opacity="0"/>
      <stop offset=".94" stop-color="#000"/>
    </radialGradient>
  </defs>
  <rect x=".35" width="527.29" height="362"/>
  <g class="cls-1">
    <path class="cls-2" d="m513.69,337.38H14.31V24.62h499.38v312.76Zm-498.73-.65h498.09V25.26H14.96v311.47Z"/>
    <rect class="cls-2" x="14.63" y="321.13" width="498.73" height=".65"/>
    <rect class="cls-2" x="14.63" y="305.52" width="498.73" height=".65"/>
    <rect class="cls-2" x="14.63" y="289.92" width="498.73" height=".65"/>
    <rect class="cls-2" x="14.63" y="274.31" width="498.73" height=".65"/>
    <rect class="cls-2" x="14.63" y="258.71" width="498.73" height=".65"/>
    <rect class="cls-2" x="14.63" y="243.1" width="498.73" height=".65"/>
    <rect class="cls-2" x="14.63" y="227.49" width="498.73" height=".65"/>
    <rect class="cls-2" x="14.63" y="211.89" width="498.73" height=".65"/>
    <rect class="cls-2" x="14.63" y="196.28" width="498.73" height=".65"/>
    <rect class="cls-2" x="14.63" y="180.68" width="498.73" height=".65"/>
    <rect class="cls-2" x="14.63" y="165.07" width="498.73" height=".65"/>
    <rect class="cls-2" x="14.63" y="149.47" width="498.73" height=".65"/>
    <rect class="cls-2" x="14.63" y="133.86" width="498.73" height=".65"/>
    <rect class="cls-2" x="14.63" y="118.25" width="498.73" height=".65"/>
    <rect class="cls-2" x="14.63" y="102.65" width="498.73" height=".65"/>
    <rect class="cls-2" x="14.63" y="87.04" width="498.73" height=".65"/>
    <rect class="cls-2" x="14.63" y="71.44" width="498.73" height=".65"/>
    <rect class="cls-2" x="14.63" y="55.83" width="498.73" height=".65"/>
    <rect class="cls-2" x="14.63" y="40.22" width="498.73" height=".65"/>
    <rect class="cls-2" x="497.93" y="24.94" width=".65" height="312.12"/>
    <rect class="cls-2" x="482.82" y="24.94" width=".65" height="312.12"/>
    <rect class="cls-2" x="467.7" y="24.94" width=".65" height="312.12"/>
    <rect class="cls-2" x="452.59" y="24.94" width=".65" height="312.12"/>
    <rect class="cls-2" x="437.48" y="24.94" width=".65" height="312.12"/>
    <rect class="cls-2" x="422.36" y="24.94" width=".65" height="312.12"/>
    <rect class="cls-2" x="407.25" y="24.94" width=".65" height="312.12"/>
    <rect class="cls-2" x="392.14" y="24.94" width=".65" height="312.12"/>
    <rect class="cls-2" x="377.03" y="24.94" width=".65" height="312.12"/>
    <rect class="cls-2" x="361.91" y="24.94" width=".65" height="312.12"/>
    <rect class="cls-2" x="346.8" y="24.94" width=".65" height="312.12"/>
    <rect class="cls-2" x="331.69" y="24.94" width=".65" height="312.12"/>
    <rect class="cls-2" x="316.57" y="24.94" width=".65" height="312.12"/>
    <rect class="cls-2" x="301.46" y="24.94" width=".65" height="312.12"/>
    <rect class="cls-2" x="286.35" y="24.94" width=".65" height="312.12"/>
    <rect class="cls-2" x="271.23" y="24.94" width=".65" height="312.12"/>
    <rect class="cls-2" x="256.12" y="24.94" width=".65" height="312.12"/>
    <rect class="cls-2" x="241.01" y="24.94" width=".65" height="312.12"/>
    <rect class="cls-2" x="225.89" y="24.94" width=".65" height="312.12"/>
    <rect class="cls-2" x="210.78" y="24.94" width=".65" height="312.12"/>
    <rect class="cls-2" x="195.67" y="24.94" width=".65" height="312.12"/>
    <rect class="cls-2" x="180.56" y="24.94" width=".65" height="312.12"/>
    <rect class="cls-2" x="165.44" y="24.94" width=".65" height="312.12"/>
    <rect class="cls-2" x="150.33" y="24.94" width=".65" height="312.12"/>
    <rect class="cls-2" x="135.22" y="24.94" width=".65" height="312.12"/>
    <rect class="cls-2" x="120.1" y="24.94" width=".65" height="312.12"/>
    <rect class="cls-2" x="104.99" y="24.94" width=".65" height="312.12"/>
    <rect class="cls-2" x="89.88" y="24.94" width=".65" height="312.12"/>
    <rect class="cls-2" x="74.76" y="24.94" width=".65" height="312.12"/>
    <rect class="cls-2" x="59.65" y="24.94" width=".65" height="312.12"/>
    <rect class="cls-2" x="44.54" y="24.94" width=".65" height="312.12"/>
    <rect class="cls-2" x="29.43" y="24.94" width=".65" height="312.12"/>
  </g>
  <rect class="cls-3" x=".32" width="527.37" height="362"/>
</svg>