<?xml version="1.0" encoding="UTF-8"?>
<svg id="Layer_1" data-name="Layer 1" xmlns="http://www.w3.org/2000/svg" viewBox="0 0 100 100">
  <defs>
    <style>
      .cls-1 {
        fill: #00bf7e;
      }

      .cls-2 {
        fill: #00b56b;
      }

      .cls-3 {
        fill: #fff;
      }
    </style>
  </defs>
  <circle class="cls-3" cx="50" cy="50" r="49.5"/>
  <g id="oo5OmI">
    <g>
      <path class="cls-2" d="m24.29,69.48c-2.44-.17-4.08-1.55-5.26-3.56-1.39-2.36-1.12-4.65.24-6.96,2.12-3.59,4.15-7.24,6.23-10.85,2.41-4.19,4.82-8.37,7.27-12.54.69-1.17,1.36-2.4,2.29-3.36,2.84-2.95,8.27-2.18,10.33,1.38,4.5,7.81,8.98,15.64,13.51,23.43,1.81,3.1,3.68,6.17,5.65,9.16.77,1.17,1.92,2.1,2.89,3.14-14.01,0-28.02,0-42.04.01-.37,0-.75.1-1.12.15Z"/>
      <path class="cls-2" d="m60.01,30.46c3.28-.1,5.18,1.67,6.64,4.24,3.87,6.8,7.81,13.56,11.69,20.34,1.05,1.83,2.28,3.62,2.94,5.59,1.68,4.99-2.42,9.76-7.72,8.77-3.25-.61-5.48-2.44-7.16-5.03-2.03-3.13-3.88-6.37-5.77-9.59-2.64-4.5-5.23-9.02-7.85-13.53-.13-.22-.19-.49-.35-.67-1.09-1.22-.91-2.36.01-3.62.87-1.2,1.48-2.58,2.33-3.79,1.4-1.97,2.97-2.7,5.22-2.7Z"/>
      <path class="cls-1" d="m24.29,69.48c.37-.05.75-.15,1.12-.15,14.01-.01,28.02-.01,42.04-.01-.26.07-.51.19-.77.19-8.75.01-17.51.01-26.26,0-5.37,0-10.75-.03-16.12-.04Z"/>
    </g>
  </g>
</svg>