<?xml version="1.0" encoding="UTF-8"?>
<svg id="Layer_1" data-name="Layer 1" xmlns="http://www.w3.org/2000/svg" viewBox="0 0 100 100">
  <defs>
    <style>
      .cls-1 {
        fill: #00ade6;
      }

      .cls-2 {
        fill: #e6e7e9;
      }

      .cls-3 {
        fill: #fff;
      }

      .cls-4 {
        fill: #424c74;
      }
    </style>
  </defs>
  <g id="Dd3H1Y">
    <g>
      <path class="cls-2" d="m54.39,99.5c10.3-.17,22.88-5.59,32.73-16.73,9.84-11.12,13.69-24.25,12.03-39C96.62,21.47,77.47.65,50.08.5c-13.93-.07-25.96,5.01-35.61,15.03C4.09,26.31-.5,39.39.65,54.34c1.78,23.18,21.72,45.14,53.73,45.16Z"/>
      <path class="cls-4" d="m54.39,99.5c-32.01-.02-51.95-21.98-53.73-45.16C-.5,39.39,4.09,26.31,14.48,15.53,24.13,5.51,36.15.43,50.08.5c27.38.15,46.54,20.97,49.06,43.28,1.67,14.74-2.19,27.88-12.03,39-9.85,11.14-22.43,16.55-32.73,16.73ZM4.99,50.09c.18,12.87,4.86,23.83,14.22,32.66,9.38,8.86,20.66,13,33.51,12.22,12.36-.75,22.81-5.9,31.02-15.19,8.51-9.64,12.21-21.02,11.1-33.84-1.01-11.59-5.91-21.39-14.5-29.21-9.92-9.02-21.73-12.64-35.03-11.51C24.97,6.96,4.87,25.01,4.99,50.09Z"/>
      <path class="cls-3" d="m4.99,50.09c-.12-25.07,19.98-43.13,40.31-44.86,13.31-1.13,25.11,2.48,35.03,11.51,8.59,7.81,13.49,17.62,14.5,29.21,1.11,12.81-2.58,24.2-11.1,33.84-8.2,9.29-18.65,14.44-31.02,15.19-12.85.78-24.13-3.37-33.51-12.22-9.36-8.83-14.04-19.79-14.22-32.66Zm22.35,11.96c.09.88.14,2.37.42,3.82.5,2.54,1.42,4.95,2.75,7.18,1.31,2.19,2.87,4.19,4.9,5.79.59.47,1.06.34,1.19-.34.11-.55.22-1.09.32-1.64.92-4.72,2.74-9.11,5.13-13.25,2.74-4.76,6.3-8.86,10.26-12.65,1.66-1.59,3.23-3.33,4.52-5.22,1.99-2.9,2.79-6.19,2.61-9.77-.11-2.2-.59-4.27-1.36-6.28-1.99-5.2-5.39-9.48-9.1-13.53-.19-.2-.64-.23-.96-.2-.11.01-.26.43-.27.67-.08,1.71-.07,3.43-.19,5.13-.1,1.47-.23,2.95-.54,4.38-.73,3.34-1.72,6.59-3.51,9.56-1.7,2.82-3.78,5.26-6.29,7.37-1.67,1.41-3.43,2.77-4.83,4.43-3.36,3.99-4.96,8.71-5.05,14.54Zm22.15,22.32c1.96-.22,3.47-.26,4.91-.57,4.12-.89,7.78-2.68,10.93-5.57,1.84-1.69,3.38-3.59,4.55-5.76,2.12-3.9,2.98-8.08,2.68-12.54-.22-3.33-.75-6.57-1.92-9.69-.67-1.79-1.55-3.5-2.38-5.23-.09-.19-.44-.32-.69-.36-.13-.02-.37.19-.44.36-.68,1.58-1.2,3.24-2.01,4.74-1.27,2.33-2.52,4.71-4.18,6.76-2.23,2.77-4.88,5.21-7.26,7.86-1.78,1.98-3.52,4.01-5.11,6.14-1.57,2.11-2.57,4.47-2.49,7.22.06,1.9-.79,3.39-2.52,4.32-.25.13-.58.52-.53.68.08.26.42.57.7.62,2.05.4,4.12.73,5.75,1.02Z"/>
      <path class="cls-4" d="m27.34,62.04c.09-5.84,1.69-10.55,5.05-14.54,1.39-1.66,3.16-3.02,4.83-4.43,2.51-2.11,4.59-4.56,6.29-7.37,1.79-2.97,2.79-6.22,3.51-9.56.31-1.43.44-2.92.54-4.38.12-1.71.12-3.42.19-5.13.01-.24.16-.66.27-.67.32-.03.78,0,.96.2,3.71,4.05,7.11,8.34,9.1,13.53.77,2.01,1.25,4.08,1.36,6.28.18,3.58-.62,6.87-2.61,9.77-1.29,1.89-2.86,3.63-4.52,5.22-3.96,3.79-7.53,7.89-10.26,12.65-2.38,4.14-4.2,8.53-5.13,13.25-.11.55-.21,1.09-.32,1.64-.14.68-.6.81-1.19.34-2.02-1.6-3.58-3.6-4.9-5.79-1.33-2.23-2.25-4.64-2.75-7.18-.28-1.45-.33-2.94-.42-3.82Z"/>
      <path class="cls-1" d="m49.49,84.36c-1.63-.28-3.7-.62-5.75-1.02-.28-.05-.62-.36-.7-.62-.05-.16.28-.55.53-.68,1.73-.93,2.58-2.42,2.52-4.32-.08-2.75.92-5.11,2.49-7.22,1.59-2.13,3.33-4.16,5.11-6.14,2.39-2.65,5.03-5.09,7.26-7.86,1.65-2.05,2.91-4.44,4.18-6.76.82-1.5,1.34-3.16,2.01-4.74.07-.16.31-.38.44-.36.25.04.6.17.69.36.83,1.73,1.7,3.44,2.38,5.23,1.17,3.11,1.7,6.36,1.92,9.69.3,4.46-.57,8.64-2.68,12.54-1.18,2.17-2.71,4.07-4.55,5.76-3.14,2.88-6.81,4.68-10.93,5.57-1.45.31-2.95.35-4.91.57Z"/>
    </g>
  </g>
</svg>