<?xml version="1.0" encoding="UTF-8"?>
<svg id="Layer_1" data-name="Layer 1" xmlns="http://www.w3.org/2000/svg" viewBox="0 0 100 100">
  <defs>
    <style>
      .cls-1 {
        fill: #05f;
      }

      .cls-2 {
        fill: #fcfdff;
      }
    </style>
  </defs>
  <path class="cls-1" d="m.37,49.9C.69,22.56,22.15,1.67,47.16.47c31.47-1.51,50.27,23.03,52.2,43.71,1.47,15.75-3,29.5-14.14,40.76-9.89,9.99-22.15,14.9-36.21,14.65C23.27,99.13.67,78.07.37,49.9Zm84.16,7.39c-4.92,0-9.71.03-14.49-.03-1.1-.01-1.67.29-2.14,1.32-3.7,8.06-14.7,13.35-23.99,9.69-8.91-3.5-14.97-12.84-12.27-23.01,3.14-11.82,13.61-16.78,24.9-13.77,5.37,1.43,9.11,5.16,11.6,10.12.19.37.64.87.98.88,5.11.06,10.22.04,15.36.04-3.63-18.29-21.22-29.64-39.67-27.05-15.28,2.15-32.14,17.83-29.07,39.39,2.1,14.73,14.82,28.82,31.9,29.98,19.28,1.3,33.62-11.88,36.9-27.56Z"/>
  <path class="cls-2" d="m84.53,57.29c-3.28,15.68-17.62,28.87-36.9,27.56-17.08-1.15-29.8-15.24-31.9-29.98-3.07-21.56,13.79-37.24,29.07-39.39,18.45-2.6,36.05,8.76,39.67,27.05-5.14,0-10.25.02-15.36-.04-.34,0-.79-.5-.98-.88-2.49-4.96-6.23-8.69-11.6-10.12-11.29-3-21.75,1.95-24.9,13.77-2.71,10.17,3.36,19.51,12.27,23.01,9.29,3.66,20.29-1.64,23.99-9.69.47-1.03,1.05-1.34,2.14-1.32,4.78.06,9.56.03,14.49.03Z"/>
</svg>