<?xml version="1.0" encoding="UTF-8"?>
<svg id="Layer_1" data-name="Layer 1" xmlns="http://www.w3.org/2000/svg" viewBox="0 0 100 100">
  <defs>
    <style>
      .cls-1 {
        fill: #f2ebe0;
      }

      .cls-2 {
        fill: #f2ebdf;
      }

      .cls-3 {
        fill: #005393;
      }

      .cls-4 {
        fill: #efab1f;
      }

      .cls-5 {
        fill: #e9e5da;
      }

      .cls-6 {
        fill: #ec2027;
      }

      .cls-7 {
        fill: #fff;
      }

      .cls-8 {
        fill: #fcb817;
      }

      .cls-9 {
        fill: #97938d;
      }

      .cls-10 {
        fill: #0159a4;
      }

      .cls-11 {
        fill: #b6862d;
      }

      .cls-12 {
        fill: #8b8882;
      }

      .cls-13 {
        fill: #bab5ac;
      }

      .cls-14 {
        fill: #a5a099;
      }

      .cls-15 {
        fill: #b2ada5;
      }

      .cls-16 {
        fill: #a77b2c;
      }

      .cls-17 {
        fill: #c0bbb2;
      }

      .cls-18 {
        fill: #cb2127;
      }

      .cls-19 {
        fill: #c6912c;
      }

      .cls-20 {
        fill: #e1dbd1;
      }

      .cls-21 {
        fill: #c8c4ba;
      }

      .cls-22 {
        fill: #d6d0c7;
      }

      .cls-23 {
        fill: #1665b0;
      }

      .cls-24 {
        fill: #186fb7;
      }

      .cls-25 {
        fill: #956f2a;
      }

      .cls-26 {
        fill: #9d1d21;
      }

      .cls-27 {
        fill: #2779be;
      }
    </style>
  </defs>
  <circle class="cls-7" cx="50" cy="50" r="50"/>
  <g id="_7T6Jdk" data-name="7T6Jdk">
    <g>
      <path class="cls-1" d="m85.54,58.32v.26c-.11,0-.21,0-.21.15,0,.8-.02,1.61.01,2.41.01.31,0,.58-.17.84-.14-.22-.23-.47-.41-.64-.44-.41-.89-.83-1.39-1.17-1.41-.98-2.99-1.64-4.61-2.15-1.45-.46-2.95-.78-4.43-1.15-.68-.17-1.37-.3-2.05-.43-.92-.18-1.84-.35-2.76-.5-.6-.1-1.2-.17-1.8-.25-.37-.05-.74-.12-1.12-.16-.74-.08-1.49-.15-2.23-.21-1.13-.09-2.26-.17-3.38-.25-.39-.03-.78-.04-1.17-.07-.7-.05-1.39-.1-2.09-.15-.41,0-.82,0-1.23,0-.3-.01-.6-.04-.89-.04-1.73,0-3.45,0-5.18,0-.02,0-.03,0-.05,0-.26,0-.52.01-.78.02h-.02s-.02,0-.02,0c-.04,0-.08,0-.12,0-.03,0-.06,0-.1,0-.03,0-.07,0-.1,0-.04,0-.07,0-.11,0-.08,0-.17,0-.25,0-.22,0-.44.02-.66.02-.53.04-1.07.07-1.6.11-.6.04-1.21.07-1.81.11-.64.04-1.27.1-1.91.15-.48.04-.95.08-1.43.13-.62.07-1.23.15-1.85.23-1.19.15-2.39.3-3.58.46-.43.06-.85.14-1.31.21.06-.23.11-.43.16-.62.33-1.32.66-2.64.99-3.95.14.03.29.1.43.08.87-.1,1.74-.24,2.61-.34.72-.08,1.44-.13,2.16-.21,1.11-.11,2.22-.26,3.33-.35.98-.08,1.96-.13,2.94-.16,1.74-.05,3.47-.09,5.21-.1,1.25,0,2.49.08,3.74.09,1.34,0,2.68.02,4.02.15.72.07,1.45.08,2.17.11.46.02.92.03,1.38.08.9.1,1.8.21,2.69.33,1.6.21,3.21.39,4.8.65,2.07.34,4.12.76,6.12,1.38,1.09.34,2.17.69,3.23,1.09,1.13.43,2.14,1.06,3.12,1.76.63.45,1.12,1,1.4,1.72.06.15.04.38.31.34Z"/>
      <path class="cls-20" d="m85.54,66.85s-.05-.04-.08-.06c-.02.19-.05.38-.07.57-.02-.25-.05-.51-.05-.76,0-1.37,0-2.74-.01-4.11.07,0,.14,0,.21,0v4.37Z"/>
      <path class="cls-5" d="m85.54,58.32c-.27.04-.24-.19-.31-.34.04-.09.1-.19.1-.28,0-1.16,0-2.33,0-3.49.07,0,.13,0,.2,0v4.11Z"/>
      <path class="cls-7" d="m85.54,62.48c-.07,0-.14,0-.21,0-.05-.17-.1-.34-.15-.51.17-.26.18-.54.17-.84-.03-.8,0-1.6-.01-2.41,0-.16.1-.15.21-.15v3.91Z"/>
      <path class="cls-20" d="m85.4,50.6s.06,0,.09,0c.02.07.03.14.05.2v2.52c-.05.02-.11.04-.16.05,0-.09,0-.17.01-.26,0,0,.02,0,.02-.01,0-.01,0-.02-.02-.03-.01-.05-.02-.09-.03-.14v-.19s0-.01,0-.01h-.01c0-.19,0-.38,0-.56h.01s-.01-.01-.01-.01c0-.06,0-.13,0-.19h.01s-.01-.01-.01-.01c0-.07,0-.13,0-.2h.01s-.01-.01-.01-.01c0-.06,0-.13,0-.19h.01s-.01-.01-.01-.01c0-.08,0-.16,0-.23h.01s-.01-.03-.01-.03c0-.06,0-.12,0-.18h.01s0-.02,0-.02c0-.06,0-.13,0-.19.01-.1.02-.19.03-.29Z"/>
      <path class="cls-5" d="m41.16,80.13c.02.07.04.13.05.2h-1.85c0-.07,0-.13,0-.2.18.01.37.04.55.03.42,0,.83-.02,1.25-.03Z"/>
      <path class="cls-22" d="m85.39,53.38c.05-.02.11-.04.16-.05v.87c-.07,0-.13,0-.2,0-.02-.15-.05-.3-.07-.45.02-.07.05-.13.07-.2.01-.06.02-.11.04-.17Z"/>
      <path class="cls-13" d="m85.54,50.81c-.02-.07-.03-.14-.05-.2.02,0,.03,0,.05,0v.21Z"/>
      <path class="cls-27" d="m41.16,80.13c-.42.01-.83.03-1.25.03-.18,0-.37-.02-.55-.03-.57-.15-1.17-.25-1.72-.47-1.2-.48-2.36-1.05-3.55-1.53-.59-.24-1.09-.61-1.62-.95-.08-.07-.15-.14-.23-.2-1.83-1.56-2.83-3.61-3.47-5.87-.32-1.15-.53-2.32-.67-3.51-.09-.78-.17-1.55-.16-2.33,0-.13-.01-.26-.02-.38,0-.03,0-.06,0-.09,0-.04,0-.08,0-.11,0-.03,0-.06,0-.09,0-.04,0-.08,0-.12,0-.03,0-.06,0-.09,0-.04,0-.08,0-.12,0-.03,0-.06,0-.09,0-.04,0-.08,0-.12,0-.03,0-.06,0-.09,0-.04,0-.07,0-.11,0-.03,0-.06,0-.09,0-.04,0-.08,0-.12.01-.01.01-.02,0-.04.07-1.12.12-2.23.22-3.35.09-.96.2-1.91.37-2.86.24-1.33.51-2.65.81-3.96.53-2.32,1.24-4.59,2.05-6.82,1.23-3.34,2.69-6.57,4.43-9.67.59-1.06,1.17-2.14,1.85-3.14,1.11-1.65,2.28-3.27,3.47-4.87.69-.92,1.43-1.8,2.22-2.63,1.55-1.63,3.17-3.17,5-4.5,1.55-1.13,3.19-2.09,5.02-2.69,1.18-.39,2.39-.64,3.64-.62.46,0,.92.06,1.37.09,1.08.19,2.02.75,3.01,1.18.97.42,1.96.82,2.87,1.35,1.56.91,2.67,2.24,3.39,3.91.5,1.17.94,2.37,1.17,3.63.13.72.25,1.45.34,2.18.09.78.16,1.57.21,2.36.04.65.07,1.31.05,1.97-.04.93-.11,1.87-.2,2.8-.08.84-.18,1.68-.31,2.51-.13.87-.3,1.74-.46,2.61,0,.03-.03.06-.05.09-.1,0-.21.01-.31,0-.52-.08-1.04-.19-1.57-.24-.95-.09-1.91-.13-2.86-.22-.37-.03-.74-.13-1.11-.2,0-.07,0-.13,0-.2.13-.71.29-1.41.38-2.12.12-.87.19-1.75.26-2.63.06-.76.1-1.53.11-2.29,0-.76-.03-1.52-.06-2.28-.02-.54-.03-1.1-.13-1.63-.15-.82-.33-1.64-.56-2.44-.46-1.62-1.16-3.12-2.33-4.37-.26-.28-.53-.52-.94-.48-.1,0-.2,0-.3,0-.14,0-.28,0-.42,0-.05,0-.09,0-.14,0-.24.04-.49.07-.73.11-.58.14-1.17.28-1.75.43-.25.07-.48.19-.71.29-.05,0-.11,0-.15.02-.74.38-1.48.76-2.21,1.15-.12.07-.22.18-.33.27-.23.14-.47.27-.69.43-2.26,1.61-4.21,3.54-5.98,5.67-1.58,1.9-3.01,3.9-4.24,6.05-.76,1.34-1.48,2.7-2.22,4.05-.08.15-.12.31-.18.47-.19.37-.4.73-.57,1.11-.36.8-.7,1.61-1.03,2.43-.11.27-.2.56-.29.83-.14.34-.3.68-.41,1.02-.23.68-.43,1.36-.65,2.04-.13.4-.29.8-.43,1.2-.33,1.32-.66,2.64-.99,3.95-.05.2-.1.39-.16.62.46-.08.89-.16,1.31-.21,1.19-.16,2.39-.31,3.58-.46.62-.08,1.23-.16,1.85-.23.47-.05.95-.09,1.43-.13.64-.05,1.27-.11,1.91-.15.6-.04,1.21-.07,1.81-.11.53-.03,1.07-.07,1.6-.11.22,0,.44-.02.66-.02.08,0,.17,0,.25,0,.04,0,.07,0,.11,0,.03,0,.07,0,.1,0,.03,0,.06,0,.1,0,.04,0,.08,0,.12,0,0,0,.02,0,.02,0h.02c.26-.02.52-.02.78-.03.02,0,.03,0,.05,0,1.73,0,3.45,0,5.18,0,.3,0,.6.02.89.04.41,0,.82,0,1.23,0,.7.05,1.39.11,2.09.15.39.03.78.04,1.17.07,1.13.08,2.26.16,3.38.25.74.06,1.49.13,2.23.21.37.04.74.11,1.12.16.6.08,1.2.15,1.8.25.92.15,1.84.32,2.76.5.69.13,1.38.26,2.05.43,1.48.36,2.98.69,4.43,1.15,1.62.51,3.2,1.17,4.61,2.15.5.34.95.76,1.39,1.17.18.17.28.42.41.64.05.17.1.34.15.51,0,1.37,0,2.74.01,4.11,0,.25.03.51.05.76-.3,1.26-1.12,2.1-2.18,2.77-1.89,1.19-3.99,1.86-6.11,2.47-1.36.39-2.75.7-4.13,1-.98.21-1.99.35-2.98.5-.99.15-1.98.29-2.96.41-.56.07-1.13.11-1.7.16-.9.08-1.79.17-2.69.25-.31.03-.63.03-.94.06-.68.05-1.37.11-2.05.15-.66.03-1.33.04-2,.05-2.05.02-4.11.04-6.16.06-.3,0-.54.09-.77.29-1.73,1.5-3.63,2.75-5.72,3.68-.89.4-1.81.72-2.79.81-.35.03-.69.07-1.04.11Zm-7.09-13.84c-.02.49.04.98.19,1.45.07.38.15.77.21,1.15.09.63.32,1.22.55,1.81.23.8.68,1.49,1.09,2.2.01.04,0,.09.03.12.42.49.83.98,1.26,1.46.04.05.13.07.2.09.9.17,1.77,0,2.63-.21,1.28-.31,2.47-.86,3.62-1.52,1.61-.93,3.09-2.02,4.42-3.32.58-.57,1.13-1.19,1.69-1.78.2-.24.4-.48.6-.72.03,0,.06,0,.09-.01.09.05.19.14.28.15.74.04,1.49.07,2.23.1.38.01.76,0,1.14.01.48.01.97.04,1.45.05.46.02.92.04,1.38.04.31,0,.65.09.91-.2.01-.01.05,0,.08,0-.09.14-.18.27-.27.41-.12.17-.24.34-.36.51-.42.52-.84,1.03-1.26,1.55-.05.07-.08.15-.12.23.09.02.19.07.28.07.6-.03,1.21-.07,1.81-.1.25-.01.5,0,.74,0,.81-.05,1.63-.1,2.44-.16.74-.06,1.49-.12,2.23-.21.93-.11,1.85-.23,2.78-.36.75-.1,1.5-.21,2.25-.32.09-.01.18-.03.27-.04.63-.12,1.26-.24,1.89-.36.7-.16,1.4-.32,2.1-.47.72-.22,1.44-.43,2.17-.65.5-.19.99-.38,1.49-.56.34-.14.69-.27,1.03-.41.28-.14.56-.27.84-.41.38-.21.76-.42,1.13-.64.04-.02.03-.13.04-.2-.4-.27-.79-.55-1.19-.82-.71-.32-1.42-.66-2.14-.97-.28-.12-.57-.21-.86-.31-.07-.03-.13-.08-.2-.1-.33-.1-.67-.18-1-.28-.42-.12-.83-.24-1.25-.34-.36-.09-.74-.13-1.1-.22-.46-.11-.9-.25-1.36-.36-.41-.1-.83-.18-1.25-.24-.74-.12-1.48-.22-2.23-.33-.48-.07-.96-.14-1.44-.19-.42-.05-.86-.02-1.27-.13-.74-.19-1.49-.2-2.24-.18-.07-.04-.15-.09-.22-.1-.38-.06-.75-.13-1.13-.15-1.19-.06-2.38-.11-3.57-.16-.12,0-.24,0-.36,0-.41,0-.83,0-1.24.01-.32-.02-.65-.04-.97-.05-1.1,0-2.19,0-3.29,0-.11,0-.22.03-.32.04-1.53-.05-3.05.12-4.57.22-.09,0-.19-.01-.28,0-1.11.07-2.22.13-3.32.22-.43.03-.86.13-1.29.2-.71.08-1.42.14-2.13.24-.67.1-1.34.24-2.01.36-.37.07-.74.13-1.11.19-.07.01-.14,0-.2.02-.2.05-.41.1-.61.15-.37.07-.75.14-1.12.22-.38.09-.37.1-.35.5-.02.29-.03.58-.05.88,0,.15,0,.31,0,.46.01.33.02.65.04.98.01.24.03.48.04.72.02.26.04.51.07.77Z"/>
      <path class="cls-6" d="m62.58,42.53c.37.07.73.17,1.11.2.95.09,1.91.13,2.86.22.53.05,1.04.16,1.57.24.1.02.2,0,.31,0,.27.05.54.11.81.16.78.12,1.56.23,2.33.36.91.16,1.82.33,2.73.52,1.68.35,3.33.82,4.95,1.39,1.6.56,3.15,1.21,4.52,2.23.66.49,1.23,1.07,1.51,1.87.06.16.05.35.08.53,0,.04,0,.08.01.11,0,.18,0,.36.01.53,0,.06,0,.13,0,.19,0,0-.01.01-.01.01h.01c0,.07,0,.13,0,.19,0,0,0,.01,0,.01h0c0,.09,0,.17,0,.25,0,0,0,.02,0,.02,0,.06,0,.13,0,.19,0,0,0,.01,0,.01,0,.07,0,.13,0,.2,0,0,0,.01,0,.01,0,.06,0,.13,0,.19,0,0,0,.01,0,.01,0,.18,0,.36,0,.54,0,0-.01.01-.01.01h.01c0,.08,0,.14,0,.2,0,.2-.01.41-.02.62-.02.07-.05.13-.07.2-.05-.05-.12-.1-.15-.16-.41-.8-1.06-1.36-1.79-1.84-1.13-.74-2.32-1.35-3.6-1.79-1.75-.6-3.51-1.16-5.32-1.52-2.04-.4-4.1-.74-6.15-1.06-1.2-.19-2.41-.31-3.61-.42-1.35-.13-2.7-.22-4.06-.32-.95-.07-1.91-.12-2.86-.16-.66-.03-1.32-.04-1.98-.06-.05,0-.09,0-.14-.01-.18,0-.36,0-.53,0-.51,0-1.01,0-1.52,0-.2,0-.39-.03-.59-.03-1.09.01-2.17.03-3.26.05-.79.01-1.59,0-2.38.06-.97.06-1.93.17-2.9.25-1.03.08-2.06.13-3.09.21-.76.06-1.52.16-2.28.25-.57.07-1.13.14-1.7.21.1-.28.18-.56.29-.83.34-.81.68-1.62,1.03-2.43.17-.38.38-.74.57-1.11.09-.02.18-.04.27-.05.67-.07,1.34-.15,2.01-.21.76-.07,1.52-.14,2.28-.2.3-.03.61-.03.92-.05.64-.05,1.28-.12,1.92-.15.77-.04,1.54-.04,2.3-.06.06,0,.12-.02.18-.02.41-.01.82-.05,1.23-.02.36.02.58-.03.64-.25.08-.27.16-.53.22-.8.29-1.24.63-2.48.86-3.73.25-1.38.41-2.77.57-4.17.09-.74.13-1.49.15-2.23.02-.57-.01-1.14-.05-1.71-.06-1-.14-2-.22-2.99.11-.09.2-.21.33-.27.73-.39,1.47-.77,2.21-1.15.04-.02.1-.02.15-.02.03.06.08.11.1.17.16.53.35,1.05.46,1.6.14.7.2,1.41.32,2.12.15.85.21,1.71.19,2.57-.02,1.01-.06,2.01-.11,3.02-.02.46-.08.91-.14,1.37-.08.63-.17,1.27-.27,1.9-.12.7-.26,1.4-.4,2.1-.11.56-.24,1.12-.37,1.67-.05.19-.11.37-.15.56-.04.18.03.27.24.26.61-.01,1.21,0,1.82,0,.58.02,1.16.04,1.74.06.09.03.18.09.27.1.71.03,1.41.03,2.12.06.29.01.59.08.88.09.21,0,.41-.03.62-.04Z"/>
      <path class="cls-2" d="m27.93,64.89c0,.13.02.26.02.38-.02.78.07,1.56.16,2.33.14,1.19.35,2.36.67,3.51.64,2.26,1.64,4.31,3.47,5.87.08.07.15.13.23.2-.02.15-.09.18-.23.11-.77-.35-1.53-.7-2.3-1.04-.18-.08-.39-.11-.58-.17-.07-.02-.12-.09-.18-.13,0-.04,0-.09-.03-.11-.24-.21-.5-.39-.73-.61-.98-.91-1.72-2-2.29-3.19-.99-2.07-1.42-4.29-1.67-6.55-.09-.77-.09-1.55-.09-2.33,0-.92.02-1.83.09-2.75.11-1.37.23-2.74.42-4.1.15-1.09.41-2.16.63-3.24.42-2.03,1-4.02,1.65-5.98.74-2.23,1.59-4.41,2.56-6.54.86-1.89,1.74-3.76,2.78-5.55.87-1.49,1.77-2.97,2.74-4.4.96-1.4,2.01-2.73,3.05-4.07,1.05-1.36,2.25-2.58,3.49-3.76,1.14-1.08,2.36-2.06,3.67-2.93,1.91-1.27,3.9-2.35,6.19-2.77,1.09-.2,2.18-.2,3.27-.02.19.08.38.22.6.08.9.4,1.8.79,2.7,1.19.09.04.12.19.18.29-.46-.03-.91-.08-1.37-.09-1.25-.02-2.46.23-3.64.62-1.83.6-3.47,1.56-5.02,2.69-1.82,1.33-3.45,2.87-5,4.5-.79.83-1.53,1.71-2.22,2.63-1.19,1.6-2.36,3.21-3.47,4.87-.68,1.01-1.25,2.08-1.85,3.14-1.74,3.1-3.21,6.33-4.43,9.67-.82,2.23-1.52,4.5-2.05,6.82-.3,1.31-.57,2.64-.81,3.96-.17.94-.29,1.9-.37,2.86-.1,1.11-.15,2.23-.22,3.35,0,0-.01,0-.01,0,0,0,0,.02,0,.03,0,.04,0,.08,0,.12,0,.03,0,.06,0,.09,0,.04,0,.07,0,.11,0,.03,0,.06,0,.09,0,.04,0,.08,0,.12,0,.03,0,.06,0,.09,0,.04,0,.08,0,.12,0,.03,0,.06,0,.09,0,.04,0,.08,0,.12,0,.03,0,.06,0,.09,0,.04,0,.08,0,.11,0,.03,0,.06,0,.09Z"/>
      <path class="cls-8" d="m54.91,17.05c-1.09-.18-2.18-.18-3.27.02-2.29.42-4.28,1.49-6.19,2.77-1.31.87-2.53,1.85-3.67,2.93-1.24,1.18-2.44,2.41-3.49,3.76-1.04,1.34-2.09,2.67-3.05,4.07-.97,1.43-1.88,2.9-2.74,4.4-1.04,1.79-1.92,3.67-2.78,5.55-.97,2.14-1.83,4.32-2.56,6.54-.65,1.97-1.23,3.95-1.65,5.98-.23,1.08-.48,2.15-.63,3.24-.19,1.36-.31,2.73-.42,4.1-.07.91-.09,1.83-.09,2.75,0,.78,0,1.56.09,2.33.25,2.26.68,4.48,1.67,6.55.57,1.2,1.31,2.29,2.29,3.19.23.21.49.4.73.61.02.02.02.07.03.11-.66-.3-1.32-.59-1.98-.89-.55-.26-1.09-.53-1.63-.8-.04-.02-.07-.07-.1-.1-.01-.02-.02-.05-.04-.06-.9-.65-1.59-1.5-2.18-2.42-.4-.64-.74-1.33-1.01-2.04-.35-.93-.62-1.89-.87-2.86-.15-.6-.22-1.22-.29-1.84-.09-.88-.13-1.77-.2-2.65,0-.73,0-1.47,0-2.2,0-.06-.02-.11-.04-.17,0-.09-.02-.17-.01-.26.05-.71.08-1.43.15-2.14.09-.85.19-1.71.32-2.55.14-.93.29-1.86.49-2.77.24-1.1.5-2.2.79-3.29.32-1.19.67-2.37,1.06-3.54.33-1.01.71-2.01,1.11-2.99.53-1.32,1.07-2.64,1.68-3.92.75-1.59,1.56-3.15,2.4-4.7.6-1.11,1.26-2.19,1.93-3.26.96-1.53,1.96-3.03,3.13-4.41.8-.95,1.58-1.91,2.41-2.83,1.06-1.18,2.2-2.27,3.42-3.29,1.22-1.03,2.52-1.95,3.89-2.74.97-.56,2-1,3.07-1.35,1.05-.34,2.11-.58,3.22-.54.42.02.85.11,1.27.16.21.03.41.06.61.09.82.33,1.64.66,2.46,1,.22.09.44.19.66.29,0,.06,0,.12,0,.18Z"/>
      <path class="cls-6" d="m20.9,62.28c.06.88.11,1.77.2,2.65.06.62.13,1.24.29,1.84.25.96.52,1.93.87,2.86.26.71.6,1.4,1.01,2.04.58.92,1.27,1.78,2.18,2.42.02.01.03.04.04.06-.11,0-.24.03-.33,0-.64-.27-1.29-.54-1.92-.84-1.28-.6-2.27-1.53-3.1-2.66-.63-.86-1.09-1.82-1.48-2.81-.45-1.15-.72-2.35-.92-3.56-.12-.73-.23-1.46-.26-2.19-.05-1.53-.08-3.06-.05-4.59.01-.83.15-1.67.25-2.5.09-.76.19-1.53.31-2.29.11-.7.27-1.39.41-2.09.11-.55.22-1.11.36-1.66.26-1.03.53-2.05.83-3.07.25-.86.51-1.72.8-2.57.93-2.73,2.09-5.37,3.33-7.97,1.42-2.97,3.08-5.8,4.96-8.5,2.17-3.11,4.63-5.96,7.53-8.42,1.59-1.35,3.31-2.52,5.21-3.39,1.08-.5,2.2-.92,3.39-1.1.76-.11,1.51-.14,2.29-.08,1.14.09,2.16.51,3.18.96.43.19.88.36,1.31.55.09.04.15.13.23.2-.2-.03-.41-.06-.61-.09-.42-.06-.85-.14-1.27-.16-1.11-.05-2.17.2-3.22.54-1.07.35-2.1.79-3.07,1.35-1.38.79-2.67,1.71-3.89,2.74-1.22,1.02-2.36,2.11-3.42,3.29-.83.92-1.61,1.89-2.41,2.83-1.17,1.38-2.17,2.88-3.13,4.41-.67,1.07-1.33,2.15-1.93,3.26-.84,1.55-1.64,3.11-2.4,4.7-.61,1.28-1.14,2.61-1.68,3.92-.4.99-.78,1.98-1.11,2.99-.39,1.17-.73,2.35-1.06,3.54-.3,1.09-.56,2.19-.79,3.29-.2.92-.35,1.85-.49,2.77-.13.85-.23,1.7-.32,2.55-.07.71-.11,1.43-.15,2.14,0,.08,0,.17.01.26,0,.73,0,1.47,0,2.2,0,.06.03.11.04.17Z"/>
      <path class="cls-21" d="m54.91,17.05c0-.06,0-.12,0-.18.2.09.39.17.59.26-.22.14-.41,0-.6-.08Z"/>
      <path class="cls-19" d="m85.37,50.89c0-.18,0-.36-.01-.53,0,0,.02,0,.03,0,0,.08.01.17.02.25-.01.1-.02.19-.03.29Z"/>
      <path class="cls-20" d="m85.39,50.35s-.02,0-.03,0c0-.04,0-.07-.01-.11.01.04.03.07.04.11Z"/>
      <path class="cls-8" d="m55.09,46.41c.18,0,.36,0,.53,0,.05,0,.09,0,.14.01.66.02,1.32.03,1.98.06.95.04,1.91.09,2.86.16,1.35.09,2.71.19,4.06.32,1.21.11,2.42.24,3.61.42,2.06.32,4.11.66,6.15,1.06,1.81.35,3.57.92,5.32,1.52,1.28.44,2.47,1.05,3.6,1.79.73.48,1.38,1.04,1.79,1.84.03.06.1.11.15.16.02.15.05.3.07.45,0,1.16,0,2.33,0,3.49,0,.09-.07.19-.1.28-.28-.72-.78-1.27-1.4-1.72-.98-.7-2-1.34-3.12-1.76-1.06-.4-2.15-.75-3.23-1.09-2-.62-4.06-1.05-6.12-1.38-1.59-.26-3.2-.44-4.8-.65-.9-.12-1.79-.23-2.69-.33-.46-.05-.92-.05-1.38-.08-.72-.04-1.45-.04-2.17-.11-1.34-.13-2.67-.15-4.02-.15-1.25,0-2.49-.09-3.74-.09-1.74,0-3.47.05-5.21.1-.98.03-1.96.07-2.94.16-1.11.09-2.22.23-3.33.35-.72.07-1.44.12-2.16.21-.87.1-1.74.24-2.61.34-.14.02-.29-.05-.43-.08.14-.4.3-.8.43-1.2.22-.68.42-1.36.65-2.04.12-.35.28-.68.41-1.02.57-.07,1.13-.15,1.7-.21.76-.09,1.52-.18,2.28-.25,1.03-.08,2.06-.13,3.09-.21.97-.07,1.93-.19,2.9-.25.79-.05,1.59-.04,2.38-.06,1.09-.02,2.17-.04,3.26-.05.2,0,.39.02.59.03.51,0,1.01,0,1.52,0Z"/>
      <path class="cls-20" d="m57.72,54.86c-.41,0-.82,0-1.23,0,.41,0,.82,0,1.23,0Z"/>
      <path class="cls-13" d="m48.88,54.84c-.22,0-.44.02-.66.02.22,0,.44-.02.66-.02Z"/>
      <path class="cls-13" d="m49.44,54.85s-.06,0-.1,0c.03,0,.06,0,.1,0Z"/>
      <path class="cls-13" d="m49.24,54.84s-.07,0-.11,0c.04,0,.07,0,.11,0Z"/>
      <polygon class="cls-13" points="49.59 54.84 49.57 54.85 49.55 54.84 49.57 54.83 49.59 54.84"/>
      <path class="cls-13" d="m50.42,54.82s-.03,0-.05,0c.02,0,.03,0,.05,0Z"/>
      <path class="cls-19" d="m85.35,53.55c0-.21.01-.41.02-.62.01.05.02.09.03.14,0,.01,0,.03,0,.04,0,.09,0,.17-.01.26-.01.06-.02.11-.04.17Z"/>
      <polygon class="cls-19" points="85.36 52.75 85.35 52.73 85.36 52.72 85.37 52.73 85.36 52.75"/>
      <polygon class="cls-19" points="85.35 51.97 85.35 51.96 85.36 51.97 85.35 51.97"/>
      <polygon class="cls-19" points="85.36 52.18 85.36 52.16 85.37 52.17 85.36 52.18"/>
      <path class="cls-22" d="m85.4,53.12s0-.03,0-.04c0,.01.01.02.02.03,0,0-.01,0-.02.01Z"/>
      <polygon class="cls-19" points="85.37 51.11 85.36 51.1 85.37 51.08 85.38 51.1 85.37 51.11"/>
      <polygon class="cls-19" points="85.36 51.31 85.36 51.3 85.36 51.28 85.38 51.3 85.36 51.31"/>
      <polygon class="cls-19" points="85.36 51.56 85.36 51.55 85.37 51.55 85.36 51.56"/>
      <polygon class="cls-19" points="85.35 51.77 85.35 51.75 85.37 51.76 85.35 51.77"/>
      <path class="cls-8" d="m58.69,42.33c-.58-.02-1.16-.04-1.74-.06-.27-.04-.53-.11-.8-.13-.33-.02-.66.03-1,.02-.16,0-.23-.1-.18-.28.04-.13.05-.28.07-.43.12-.56.26-1.11.37-1.67.14-.7.28-1.4.4-2.1.11-.63.19-1.26.27-1.9.06-.45.11-.91.14-1.37.05-1.01.08-2.01.11-3.02.02-.86-.04-1.72-.19-2.57-.13-.7-.18-1.42-.32-2.12-.11-.54-.3-1.07-.46-1.6-.02-.06-.06-.12-.1-.17.24-.1.47-.22.71-.29.58-.16,1.16-.29,1.75-.43.07.12.14.23.2.35.3.61.64,1.21.88,1.85.41,1.09.63,2.23.79,3.39.16,1.14.24,2.29.24,3.44,0,.54-.02,1.07-.05,1.61-.05.82-.07,1.64-.17,2.45-.21,1.69-.46,3.38-.92,5.03Z"/>
      <path class="cls-2" d="m58.69,42.33c.45-1.65.7-3.34.92-5.03.1-.81.12-1.63.17-2.45.03-.54.05-1.07.05-1.61,0-1.15-.08-2.29-.24-3.44-.16-1.16-.39-2.3-.79-3.39-.24-.64-.58-1.23-.88-1.85-.06-.12-.13-.24-.2-.35.24-.04.49-.07.73-.11.05,0,.09,0,.14,0,.14,0,.28,0,.42,0,.1,0,.2,0,.3,0,.42-.04.68.2.94.48,1.17,1.25,1.88,2.75,2.33,4.37.22.8.41,1.62.56,2.44.1.53.1,1.08.13,1.63.03.76.07,1.52.06,2.28,0,.76-.05,1.53-.11,2.29-.07.88-.14,1.75-.26,2.63-.09.71-.26,1.41-.38,2.12-.01.06,0,.13,0,.2-.21.02-.41.05-.62.04-.29-.01-.59-.08-.88-.09-.71-.03-1.41-.04-2.12-.06-.09,0-.18-.06-.27-.1Z"/>
      <path class="cls-2" d="m49.98,67.73c-.56.6-1.11,1.21-1.69,1.78-1.33,1.3-2.81,2.38-4.42,3.32-1.15.66-2.34,1.21-3.62,1.52-.86.21-1.74.38-2.63.21-.07-.01-.16-.04-.2-.09-.42-.48-.84-.97-1.26-1.46-.02-.03-.02-.08-.03-.12.32-.07.65-.12.97-.21,1.94-.56,3.68-1.54,5.29-2.73,1.04-.78,1.98-1.69,2.96-2.54.11.03.22.09.34.09.85.04,1.7.07,2.56.11.58.03,1.17.07,1.75.11Z"/>
      <path class="cls-8" d="m45.34,67.42c-.98.85-1.92,1.76-2.96,2.54-1.6,1.2-3.34,2.18-5.29,2.73-.32.09-.65.14-.97.21-.41-.71-.87-1.4-1.09-2.2.56-.28,1.14-.54,1.68-.86.84-.51,1.67-1.05,2.48-1.62.55-.39,1.05-.84,1.57-1.27.03-.03.07-.06.1-.09,0,0,0,0,0,0,.03-.02.06-.04.09-.06,0,0,0,0,0,0,.02-.02.04-.03.05-.05,0,0,0,0,0,0,.1.04.2.09.31.11.38.04.76.09,1.14.1.7.03,1.4.03,2.1.06.25,0,.51.02.76.06.06,0,.11.1.17.15-.05.07-.09.14-.14.21Z"/>
      <path class="cls-6" d="m40.75,66.95c-.52.43-1.02.88-1.57,1.27-.81.57-1.64,1.11-2.48,1.62-.54.32-1.12.58-1.68.86-.23-.59-.46-1.18-.55-1.81-.05-.39-.14-.77-.21-1.15.21-.16.42-.31.63-.47.38-.29.75-.58,1.12-.87.3-.26.6-.51.9-.77.23-.2.46-.39.69-.59.16-.15.31-.3.47-.44.12-.1.24-.21.36-.31.24.02.47.04.71.05.24.02.48.03.73.04.59.03,1.19.07,1.78.09.46.02.93-.06,1.36.17-.21.24-.41.48-.62.72-.46.46-.92.92-1.38,1.39,0,0,0,0,0,0-.02.02-.04.03-.05.05,0,0,0,0,0,0-.03.02-.06.04-.09.06,0,0,0,0,0,0-.03.03-.07.06-.1.1Z"/>
      <path class="cls-25" d="m62.1,60.58c.75-.02,1.5-.01,2.24.18.41.11.85.08,1.27.13.48.05.96.12,1.44.19.74.11,1.49.21,2.23.33.42.07.84.15,1.25.24.46.11.9.25,1.36.36.36.09.74.13,1.1.22.42.1.84.23,1.25.34.33.09.67.18,1,.28.07.02.13.07.2.1-.04.03-.07.09-.11.1-.21.06-.43.12-.64.18-.48.13-.96.27-1.45.4-.07-.04-.14-.1-.22-.11-.6-.04-1.21-.08-1.81-.11-.52-.02-1.04-.03-1.56-.05-.75-.03-1.5-.07-2.25-.1-.73-.03-1.47-.04-2.2-.05-.32,0-.63,0-.95-.01-.6-.02-1.19-.06-1.79-.09-.33-.02-.66-.03-1-.06-.21-.02-.42-.07-.63-.11.04-.08.08-.17.12-.25.38-.7.76-1.4,1.13-2.1Z"/>
      <path class="cls-3" d="m62.1,60.58c-.38.7-.76,1.4-1.13,2.1-.04.08-.08.17-.12.25-.03.03-.05.05-.08.08-.14,0-.27-.01-.41-.02-.35-.03-.69-.08-1.04-.09-.73-.03-1.47-.04-2.2-.06-.04,0-.08,0-.13-.01-.56-.03-1.12-.05-1.68-.09-.43-.03-.85-.07-1.27-.11.15-.24.31-.47.46-.71.36-.58.72-1.17,1.08-1.76.41,0,.83-.01,1.24-.01.12,0,.24,0,.36,0,1.19.05,2.38.1,3.57.16.38.02.76.09,1.13.15.08.01.15.07.22.1Z"/>
      <path class="cls-24" d="m58.15,67.16s-.06-.01-.08,0c-.26.28-.59.2-.91.2-.46,0-.92-.03-1.38-.04-.48-.02-.97-.04-1.45-.05-.38,0-.76,0-1.14-.01-.74-.03-1.49-.06-2.23-.1-.1,0-.19-.1-.28-.15.21-.26.42-.53.62-.79.01-.01.02-.02.03-.03.01-.02.02-.03.03-.05.22-.29.44-.58.66-.87.12-.13.25-.25.37-.38.11.09.21.24.34.26.29.05.59.05.89.06.66.04,1.33.07,1.99.1.95.04,1.91.08,2.86.1.28,0,.57-.06.85-.09-.02.05-.03.1-.05.15-.09.14-.17.27-.26.41-.12.19-.25.37-.37.56-.13.21-.27.41-.4.62-.03.04-.06.07-.1.11Z"/>
      <path class="cls-2" d="m68.68,68.79c-.75.11-1.5.21-2.25.32-.93.12-1.85.25-2.78.36-.74.08-1.49.15-2.23.21-.81.06-1.63.11-2.44.16-.25.01-.5,0-.74,0-.6.03-1.21.07-1.81.1-.09,0-.19-.04-.28-.07.04-.08.07-.16.12-.23.42-.52.84-1.04,1.26-1.55.4.05.8.13,1.21.15.89.04,1.77.04,2.66.06.08,0,.15,0,.23,0,.41.03.82.07,1.23.09.42.02.84.03,1.26.05.59.02,1.19.04,1.78.06.4.01.81.03,1.21.04.35.01.71,0,1.06.03.18.02.43-.04.52.23Z"/>
      <path class="cls-21" d="m58.64,66.44c.12-.19.25-.37.37-.56.06.01.12.03.17.03.47,0,.93-.04,1.4-.03.67.02,1.34.07,2.02.1.63.03,1.26.03,1.89.06.71.03,1.41.07,2.12.1.43.01.86-.01,1.28,0,.76.04,1.53.1,2.29.15.41.02.83.04,1.24.05,1.04.04,2.07.07,3.11.1.56.02,1.13.02,1.69.06.12,0,.24.13.36.2-.5.19-.99.38-1.49.56-.06-.23-.25-.2-.41-.21-.62,0-1.25,0-1.87,0-.35,0-.69-.08-1.04-.09-.95-.04-1.9-.08-2.85-.11-.74-.02-1.48-.03-2.22-.06-.69-.03-1.37-.09-2.06-.13-.37-.02-.74,0-1.11-.02-.74-.03-1.48-.07-2.22-.1-.75-.03-1.5-.03-2.25-.06-.14,0-.29-.03-.43-.05Z"/>
      <path class="cls-22" d="m58.64,66.44c.14.02.29.05.43.05.75.02,1.5.03,2.25.06.74.03,1.48.07,2.22.1.37.01.74,0,1.11.02.69.04,1.37.1,2.06.13.74.03,1.48.04,2.22.06.95.03,1.9.06,2.85.11.35.02.69.09,1.04.09.62.02,1.25,0,1.87,0,.16,0,.36-.02.41.21-.72.22-1.44.43-2.17.65-.11-.06-.22-.17-.34-.19-.32-.04-.65-.04-.98-.06-.63-.03-1.27-.07-1.9-.1-.46-.02-.91-.03-1.37-.05-.43-.02-.87-.03-1.3-.05-.36,0-.73,0-1.09-.02-.76-.04-1.51-.1-2.27-.14-.51-.02-1.01,0-1.52-.02-1.08-.04-2.16-.08-3.23-.14-.23-.01-.46-.06-.69-.1.13-.21.27-.41.4-.62Z"/>
      <path class="cls-26" d="m41.52,60.79c.43-.07.85-.17,1.29-.2,1.11-.09,2.21-.15,3.32-.22.09,0,.19,0,.28,0-.09.15-.17.3-.27.44-.34.47-.68.93-1.02,1.4-.19.24-.38.48-.58.72-1.53-.07-3.05-.14-4.58-.21.11-.15.22-.3.33-.46.14-.16.28-.31.42-.48.27-.33.54-.67.81-1Z"/>
      <path class="cls-12" d="m55.57,60.17c-.36.59-.72,1.17-1.08,1.76-.15.24-.3.47-.46.71-.04.04-.08.07-.11.11-.08-.05-.16-.14-.25-.16-.28-.04-.56-.05-.84-.06-.79-.02-1.59-.03-2.38-.06-.27,0-.54-.07-.81-.1.42-.61.84-1.21,1.25-1.83.07-.1.06-.25.09-.38.11-.02.22-.04.32-.04,1.1,0,2.19,0,3.29,0,.32,0,.65.03.97.05Z"/>
      <path class="cls-25" d="m50.98,60.16c-.03.13-.02.28-.09.38-.41.62-.83,1.22-1.25,1.83-.05.05-.1.1-.15.16-.21-.03-.42-.09-.63-.1-.79-.03-1.58-.02-2.37-.06-.46-.02-.92-.1-1.38-.15.34-.47.68-.93,1.02-1.4.1-.14.18-.29.27-.44,1.52-.1,3.04-.27,4.57-.22Z"/>
      <path class="cls-15" d="m79.64,65.05c-.01.07,0,.17-.04.2-.37.22-.75.43-1.13.64-.19-.05-.38-.15-.58-.16-.91-.05-1.82-.07-2.72-.11-.71-.03-1.43-.07-2.14-.1-.65-.02-1.3-.03-1.94-.06-1.05-.04-2.1-.11-3.15-.15-.8-.03-1.6-.03-2.4-.06-.17,0-.34-.1-.51-.16.12-.03.24-.06.36-.09.41-.05.83-.09,1.24-.14.7-.09,1.4-.19,2.1-.28.06.04.13.1.19.1.44.04.89.08,1.33.11.63.04,1.27.08,1.9.1.81.03,1.62.03,2.44.06,1.02.04,2.04.1,3.06.15.3.01.61,0,.91,0,.18,0,.36.05.53.04.18-.01.36-.06.54-.1Z"/>
      <path class="cls-20" d="m58.24,67.06c.23.03.46.09.69.1,1.08.05,2.16.1,3.23.14.51.02,1.01,0,1.52.02.76.04,1.51.1,2.27.14.36.02.73,0,1.09.02.43.01.87.03,1.3.05.46.02.91.03,1.37.05.63.03,1.27.06,1.9.1.33.02.66.02.98.06.12.01.23.12.34.19-.7.16-1.4.32-2.1.47-.05-.06-.09-.17-.14-.18-.49-.05-.98-.09-1.47-.11-.28-.01-.55.04-.83.03-.37-.01-.74-.07-1.12-.09-.46-.02-.92,0-1.38-.02-.44-.02-.88-.07-1.32-.09-1.22-.06-2.44-.11-3.67-.15-.72-.03-1.44-.02-2.16-.06-.29-.01-.58-.1-.87-.15.09-.14.18-.27.27-.41.03-.04.06-.07.1-.11Z"/>
      <path class="cls-17" d="m76.6,66.7c-.12-.07-.23-.19-.36-.2-.56-.04-1.13-.04-1.69-.06-1.04-.03-2.07-.07-3.11-.1-.41-.01-.83-.03-1.24-.05-.76-.05-1.53-.11-2.29-.15-.43-.02-.86,0-1.28,0-.71-.02-1.41-.07-2.12-.1-.63-.02-1.26-.03-1.89-.06-.67-.03-1.34-.08-2.02-.1-.47-.01-.93.02-1.4.03-.06,0-.12-.02-.17-.03.09-.14.17-.27.26-.41.1.03.2.1.3.1.25,0,.51-.05.76-.04.75.02,1.48-.04,2.22-.17.08.05.15.15.23.16.36.05.73.09,1.09.11,1.07.04,2.13.07,3.2.11.31,0,.63-.01.94,0,.67.04,1.34.12,2.01.14,1.01.04,2.02.04,3.02.06.16,0,.32,0,.48,0,1.1.05,2.2.1,3.29.15.06,0,.12-.01.18,0,.21.06.42.14.63.21-.34.14-.69.27-1.03.41Z"/>
      <path class="cls-14" d="m79.64,65.05c-.18.04-.36.09-.54.1-.18,0-.35-.04-.53-.04-.3,0-.61,0-.91,0-1.02-.05-2.04-.11-3.06-.15-.81-.03-1.62-.03-2.44-.06-.63-.02-1.27-.06-1.9-.1-.44-.03-.89-.07-1.33-.11-.07,0-.13-.07-.19-.1.04-.01.08-.04.11-.04.3-.05.61-.1.92-.15.8-.14,1.61-.29,2.41-.43.21.07.41.2.62.21.67.06,1.34.09,2.01.11.86.03,1.72.04,2.59.06.13,0,.25.04.38.04.23-.02.5.14.68-.14.4.27.79.55,1.19.82Z"/>
      <path class="cls-5" d="m57.88,67.57c.29.05.58.13.87.15.72.04,1.44.03,2.16.06,1.22.05,2.45.1,3.67.15.44.02.88.07,1.32.09.46.02.92,0,1.38.02.37.02.74.07,1.12.09.28.01.55-.04.83-.03.49.02.98.06,1.47.11.05,0,.09.12.14.18-.63.12-1.26.24-1.89.36-.09.02-.18.03-.27.04-.09-.26-.34-.21-.52-.23-.35-.04-.71-.02-1.06-.03-.4-.01-.81-.03-1.21-.04-.59-.02-1.19-.04-1.78-.06-.42-.01-.84-.02-1.26-.05-.41-.02-.82-.06-1.23-.09-.08,0-.15,0-.23,0-.89-.02-1.78-.02-2.66-.06-.4-.02-.8-.1-1.21-.15.12-.17.24-.34.36-.51Z"/>
      <path class="cls-13" d="m77.63,66.29c-.21-.07-.42-.14-.63-.21-.05-.02-.12,0-.18,0-1.1-.05-2.2-.1-3.29-.15-.16,0-.32,0-.48,0-1.01-.02-2.02-.02-3.02-.06-.67-.02-1.34-.1-2.01-.14-.31-.02-.63,0-.94,0-1.07-.03-2.13-.06-3.2-.11-.36-.01-.73-.06-1.09-.11-.08-.01-.15-.1-.23-.16.02-.01.04-.03.07-.03.8-.08,1.6-.15,2.4-.23.17.06.34.15.51.16.8.03,1.6.03,2.4.06,1.05.04,2.1.1,3.15.15.65.03,1.3.03,1.94.06.71.03,1.43.07,2.14.1.91.04,1.82.06,2.72.11.19.01.39.1.58.16-.28.14-.56.27-.84.41Z"/>
      <path class="cls-9" d="m78.45,64.23c-.17.28-.45.13-.68.14-.12,0-.25-.03-.38-.04-.86-.02-1.72-.03-2.59-.06-.67-.02-1.34-.05-2.01-.11-.21-.02-.42-.14-.62-.21.08-.03.15-.07.23-.09.28-.08.57-.16.85-.24.48-.13.96-.27,1.45-.4.21-.06.43-.11.64-.18.04-.01.07-.07.11-.1.29.1.58.19.86.31.72.32,1.43.65,2.14.97Z"/>
      <path class="cls-25" d="m41.52,60.79c-.27.34-.54.67-.81,1-.13.16-.28.32-.42.48-.14-.07-.29-.19-.43-.19-.9-.03-1.81-.04-2.72-.06-.46-.01-.93-.03-1.39-.05-.12,0-.29,0-.29-.2.2-.05.41-.1.61-.15.07-.02.14-.01.2-.02.37-.06.74-.12,1.11-.19.67-.12,1.34-.26,2.01-.36.71-.1,1.42-.16,2.13-.24Z"/>
      <path class="cls-11" d="m33.93,63.36c.02-.29.03-.58.05-.87.52.05,1.05.12,1.57.15.7.04,1.4.04,2.1.06.61.02,1.21.03,1.82.06.09,0,.17.1.26.15-.24.24-.48.48-.72.73-.11-.05-.22-.15-.33-.15-1.02-.03-2.05-.04-3.07-.06-.06,0-.12-.02-.18-.02-.5-.01-1-.02-1.5-.03Z"/>
      <path class="cls-19" d="m33.93,63.36c.5.01,1,.02,1.5.03.06,0,.12.02.18.02,1.02.02,2.05.03,3.07.06.11,0,.22.1.33.15-.19.22-.38.44-.57.66-.12.1-.24.21-.36.31-.29-.04-.59-.08-.88-.13-.7-.13-1.4-.26-2.1-.4-.39-.08-.78-.16-1.17-.25v-.46Z"/>
      <path class="cls-16" d="m39.73,62.89c-.09-.05-.17-.14-.26-.15-.6-.03-1.21-.04-1.82-.06-.7-.02-1.4-.02-2.1-.06-.52-.03-1.05-.1-1.57-.15-.02-.4-.02-.41.36-.5.37-.09.75-.15,1.12-.22,0,.21.17.2.29.2.46.03.93.04,1.39.05.91.02,1.81.03,2.72.06.15,0,.29.13.43.19-.11.15-.22.3-.33.46-.08.05-.16.11-.24.16Z"/>
      <path class="cls-22" d="m51.37,66.14s-.02.03-.03.05c-.01,0-.03.02-.03.03-.21.26-.42.53-.62.79-.03,0-.06,0-.09.01-.09-.04-.17-.1-.26-.11-.55-.03-1.11-.04-1.67-.06-.48-.02-.95-.06-1.42-.1-.39-.03-.78-.07-1.16-.1.27-.27.54-.55.81-.82.04.02.09.06.13.06.43.04.87.07,1.31.1.22.01.43.02.65.03.31.02.63.05.94.06.49.02.98.04,1.47.06Z"/>
      <path class="cls-20" d="m46.07,66.65c.39.03.78.07,1.16.1.47.04.95.07,1.42.1.55.03,1.11.03,1.67.06.09,0,.17.07.26.11-.2.24-.4.48-.6.72-.58-.04-1.17-.08-1.75-.11-.85-.04-1.7-.07-2.56-.11-.11,0-.22-.06-.34-.09.05-.07.09-.14.14-.21.19-.19.39-.38.58-.57Z"/>
      <path class="cls-13" d="m33.93,63.82c.39.08.78.17,1.17.25.7.14,1.4.27,2.1.4.29.05.59.09.88.13-.16.15-.31.3-.47.44-.11-.05-.22-.12-.33-.13-.42-.03-.85-.04-1.27-.06-.68-.02-1.37-.04-2.05-.05-.01-.33-.02-.65-.04-.98Z"/>
      <path class="cls-21" d="m33.97,64.79c.68.02,1.37.03,2.05.05.42.01.85.02,1.27.06.11,0,.22.09.33.13-.23.2-.46.39-.69.59-.51-.04-1.03-.07-1.54-.11-.42-.03-.85-.06-1.27-.08-.03,0-.07.05-.1.08-.01-.24-.03-.48-.04-.72Z"/>
      <path class="cls-22" d="m34.01,65.52s.07-.08.1-.08c.42.02.85.05,1.27.08.51.03,1.03.07,1.54.11-.3.26-.6.51-.9.77-.09-.04-.18-.09-.28-.1-.2-.02-.39,0-.59,0-.36,0-.72,0-1.08,0-.02-.26-.04-.51-.07-.77Z"/>
      <path class="cls-20" d="m34.08,66.29c.36,0,.72,0,1.08,0,.2,0,.39-.01.59,0,.09,0,.18.07.28.1-.37.29-.75.58-1.12.87-.21.16-.42.31-.63.47-.16-.47-.22-.95-.19-1.45Z"/>
      <path class="cls-15" d="m59.31,24.1c-.1,0-.2,0-.3,0,.1,0,.2,0,.3,0Z"/>
      <path class="cls-15" d="m58.59,24.11s-.09,0-.14,0c.05,0,.09,0,.14,0Z"/>
      <path class="cls-15" d="m27.91,64.48s0-.06,0-.09c0,.03,0,.06,0,.09Z"/>
      <path class="cls-15" d="m27.93,64.89s0-.06,0-.09c0,.03,0,.06,0,.09Z"/>
      <path class="cls-15" d="m27.91,64.27s0-.06,0-.09c0,.03,0,.06,0,.09Z"/>
      <path class="cls-15" d="m27.92,64.07s0-.06,0-.09c0,.03,0,.06,0,.09Z"/>
      <path class="cls-15" d="m27.92,64.69s0-.06,0-.09c0,.03,0,.06,0,.09Z"/>
      <path class="cls-15" d="m27.92,63.87s0-.06,0-.09c0,.03,0,.06,0,.09Z"/>
      <path class="cls-15" d="m27.94,63.66s0-.02,0-.03c0,0,0,0,.01,0,0,.01,0,.03,0,.04Z"/>
      <path class="cls-4" d="m55.05,41.45c-.02.14-.02.29-.07.43-.06.18.01.28.18.28.33,0,.66-.04,1-.02.27.01.53.08.8.13-.61,0-1.21,0-1.82,0-.2,0-.27-.08-.24-.26.04-.19.1-.37.15-.56Z"/>
      <path class="cls-6" d="m55.09,46.41c-.51,0-1.01,0-1.52,0,.51,0,1.01,0,1.52,0Z"/>
      <path class="cls-6" d="m55.77,46.43s-.1,0-.14-.01c.05,0,.09,0,.14.01Z"/>
      <path class="cls-4" d="m20.9,62.28c-.01-.06-.04-.11-.04-.17,0-.73,0-1.47,0-2.2.01.06.04.11.04.17,0,.73,0,1.47,0,2.2Z"/>
      <path class="cls-4" d="m46.07,66.65c-.19.19-.39.38-.58.57-.05-.05-.1-.14-.17-.15-.25-.03-.51-.05-.76-.06-.7-.02-1.4-.03-2.1-.06-.38-.02-.76-.06-1.14-.1-.11-.01-.21-.07-.31-.11.46-.46.92-.92,1.38-1.39.81.05,1.61.12,2.42.16.64.03,1.28.03,1.92.06.07,0,.13.07.19.11-.02.05-.04.1-.06.15-.27.27-.54.55-.81.82Z"/>
      <path class="cls-4" d="m40.75,66.95s.07-.06.1-.1c-.03.03-.07.06-.1.1Z"/>
      <path class="cls-4" d="m40.86,66.85s.06-.04.09-.06c-.03.02-.06.04-.09.06Z"/>
      <path class="cls-4" d="m40.95,66.8s.04-.03.05-.05c-.02.02-.04.03-.05.05Z"/>
      <path class="cls-18" d="m39.73,62.89c.08-.05.16-.11.24-.16,1.53.07,3.05.14,4.58.21,0,.02,0,.03,0,.05-.39.43-.78.86-1.17,1.29-.12.12-.24.24-.37.36-.43-.24-.9-.15-1.36-.17-.59-.03-1.19-.06-1.78-.09-.24-.01-.48-.03-.73-.04-.24-.02-.47-.03-.71-.05.19-.22.38-.44.57-.66.24-.24.48-.48.72-.73Z"/>
      <path class="cls-19" d="m43.01,64.64c.12-.12.24-.24.37-.36.35-.02.7-.05,1.05-.05.89.02,1.78.06,2.68.1.32.02.63.06.94.1-.15.19-.3.38-.45.57-.06.06-.12.12-.18.18-.17.17-.33.33-.5.5-.06-.04-.13-.1-.19-.11-.64-.02-1.28-.03-1.92-.06-.81-.04-1.61-.1-2.42-.16.21-.24.41-.48.62-.72Z"/>
      <path class="cls-16" d="m73.26,63.62c-.28.08-.57.16-.85.24-.08.02-.16.06-.23.09-.8.14-1.61.29-2.41.43-.03-.03-.06-.08-.09-.09-.6-.06-1.2-.12-1.8-.16-.41-.03-.83-.02-1.24-.03-.39-.02-.78-.06-1.17-.07-.55-.01-1.1,0-1.65-.01-.4,0-.79-.03-1.19-.05-.55-.03-1.11-.06-1.66-.1-.19-.02-.38-.07-.57-.11.13-.25.26-.5.38-.75.03-.03.05-.05.08-.08.21.04.42.09.63.11.33.03.66.04,1,.06.6.03,1.19.07,1.79.09.32.01.63,0,.95.01.73.02,1.47.03,2.2.05.75.03,1.5.07,2.25.1.52.02,1.04.03,1.56.05.6.03,1.21.06,1.81.11.08,0,.15.07.22.11Z"/>
      <path class="cls-10" d="m60.77,63.01c-.13.25-.26.5-.38.75-.15.23-.3.45-.45.68-.82-.05-1.65-.11-2.47-.15-.44-.02-.87,0-1.31,0-.55-.01-1.09-.03-1.64-.05-.26-.01-.52-.02-.78-.05-.22-.03-.5,0-.59-.31.12-.19.25-.37.37-.56.13-.19.27-.38.4-.56.04-.04.08-.07.11-.11.42.04.85.08,1.27.11.56.04,1.12.06,1.68.09.04,0,.08.01.13.01.73.02,1.47.03,2.2.06.35.01.69.06,1.04.09.14.01.27.02.41.02Z"/>
      <path class="cls-23" d="m53.15,63.87c.09.3.36.27.59.31.26.04.52.04.78.05.55.02,1.09.04,1.64.05.44,0,.87-.02,1.31,0,.82.04,1.65.1,2.47.15,0,.02,0,.03,0,.05-.12.17-.24.34-.37.52-.03.02-.05.05-.08.07,0,0,0,0,0,0-.02.04-.04.07-.07.11-.03.05-.06.09-.1.14-.28.03-.57.1-.85.09-.95-.02-1.91-.06-2.86-.1-.66-.03-1.33-.07-1.99-.1-.3-.02-.6-.01-.89-.06-.12-.02-.23-.17-.34-.26.06-.1.12-.2.18-.3.12-.17.24-.34.37-.5.07-.07.13-.15.2-.22Z"/>
      <path class="cls-21" d="m46.93,65.68c.17-.17.33-.33.5-.5.06-.06.12-.12.18-.18.17.02.34.05.51.06.49.03.98.07,1.47.09.56.03,1.12.03,1.68.05.26.01.52.04.78.06-.22.29-.44.58-.66.87-.49-.02-.98-.03-1.47-.06-.31-.02-.63-.05-.94-.06-.22-.01-.43-.01-.65-.03-.44-.03-.87-.06-1.31-.1-.05,0-.09-.04-.13-.06.02-.05.04-.1.06-.15Z"/>
      <path class="cls-19" d="m59.57,65c.12-.17.24-.34.37-.52.23.05.45.13.68.15.23.02.46-.04.69-.03.36.02.73.07,1.09.09.55.03,1.11.03,1.66.06.26,0,.52.01.78.06.19.03.37.13.56.2-.12.03-.24.06-.36.09-.8.08-1.6.15-2.4.23-.02,0-.04.02-.07.03-.73.12-1.47.19-2.22.17-.25,0-.5.04-.76.04-.1,0-.2-.06-.3-.1.02-.05.03-.1.05-.15.03-.05.06-.09.1-.14.02-.04.04-.07.07-.11,0,0,0,0,0,0,.03-.02.05-.05.08-.07Z"/>
      <path class="cls-13" d="m52.03,65.26c-.26-.02-.52-.05-.78-.06-.56-.02-1.12-.03-1.68-.05-.49-.02-.98-.06-1.47-.09-.17-.01-.34-.04-.51-.06.15-.19.3-.38.45-.57.07-.07.14-.14.21-.21.09.03.17.09.26.1.51.04,1.02.09,1.53.1.75.03,1.5.03,2.25.06.09,0,.19.06.28.1-.06.1-.12.2-.18.3-.12.13-.25.25-.37.38Z"/>
      <path class="cls-21" d="m51.3,66.22s.02-.02.03-.03c-.01.01-.02.02-.03.03Z"/>
      <path class="cls-16" d="m44.55,62.99s0-.03,0-.05c.19-.24.38-.48.58-.72.46.05.92.13,1.38.15.79.04,1.58.03,2.37.06.21,0,.42.06.63.1-.12.17-.24.34-.36.51-.07.07-.13.14-.2.21-.16-.05-.33-.15-.49-.15-.5-.02-1.01,0-1.51-.02-.63-.02-1.25-.06-1.88-.09-.17,0-.33,0-.5,0Z"/>
      <path class="cls-9" d="m49.13,63.05c.12-.17.24-.34.36-.51.05-.05.1-.1.15-.16.27.04.54.09.81.1.79.03,1.59.04,2.38.06.28,0,.56.02.84.06.09.01.17.1.25.16-.13.19-.27.38-.4.56-.24-.02-.48-.05-.72-.07-.2-.01-.4-.01-.59-.02-.31-.02-.62-.05-.94-.07-.71-.04-1.43-.07-2.14-.11Z"/>
      <path class="cls-11" d="m65.39,65.01c-.19-.07-.37-.17-.56-.2-.25-.05-.52-.05-.78-.06-.55-.02-1.11-.03-1.66-.06-.36-.02-.73-.08-1.09-.09-.23,0-.46.05-.69.03-.23-.02-.46-.1-.68-.15,0-.02,0-.03,0-.05.15-.23.3-.45.45-.68.19.04.38.09.57.11.55.04,1.1.07,1.66.1.4.02.79.04,1.19.05.55,0,1.1,0,1.65.01.39.01.78.06,1.17.07.41.02.83,0,1.24.03.6.04,1.2.1,1.8.16.03,0,.06.06.09.09-.31.05-.61.1-.92.15-.04,0-.08.03-.11.04-.7.09-1.4.19-2.1.28-.41.05-.83.09-1.24.14Z"/>
      <path class="cls-11" d="m44.55,62.99c.17,0,.33,0,.5,0,.63.03,1.25.07,1.88.09.5.02,1.01,0,1.51.02.17,0,.33.1.49.15-.09.13-.18.27-.26.4-.14.19-.27.38-.41.57-.07.07-.14.14-.21.21-.31-.03-.63-.08-.94-.1-.89-.04-1.78-.08-2.68-.1-.35,0-.7.03-1.05.05.39-.43.78-.86,1.17-1.29Z"/>
      <path class="cls-14" d="m48.67,63.66c.09-.13.18-.27.26-.4.07-.07.13-.14.2-.21.71.03,1.43.07,2.14.11.31.02.62.05.94.07.2.01.4,0,.59.02.24.02.48.04.72.07-.12.19-.25.37-.37.56-.07.07-.13.15-.2.22-.12-.05-.24-.15-.36-.16-.55-.03-1.09-.04-1.64-.06-.55-.02-1.11-.02-1.66-.06-.21-.01-.41-.1-.61-.15Z"/>
      <path class="cls-15" d="m48.67,63.66c.2.05.41.14.61.15.55.04,1.11.04,1.66.06.55.02,1.09.03,1.64.06.12,0,.24.1.36.16-.12.17-.24.34-.37.5-.09-.03-.18-.1-.28-.1-.75-.02-1.5-.03-2.25-.06-.51-.02-1.02-.06-1.53-.1-.09,0-.17-.07-.26-.1.14-.19.27-.38.41-.57Z"/>
      <path class="cls-24" d="m59.57,65s-.05.05-.08.07c.03-.02.05-.05.08-.07Z"/>
      <path class="cls-24" d="m59.49,65.07s-.04.07-.07.11c.02-.04.04-.07.07-.11Z"/>
    </g>
  </g>
</svg>