<?xml version="1.0" encoding="UTF-8"?>
<svg id="Layer_1" data-name="Layer 1" xmlns="http://www.w3.org/2000/svg" viewBox="0 0 100 100">
  <defs>
    <style>
      .cls-1 {
        fill: #fff;
      }
    </style>
  </defs>
  <circle class="cls-1" cx="50" cy="50" r="50"/>
  <g>
    <path d="m70.74,64.9c3.09,0,6.19,0,9.28,0,.41,0,1.08-.2,1.11.37.03.52-.54.75-1.11.75-6.38,0-12.77,0-19.15-.01-.32,0-.74.08-.77-.46-.03-.68.45-.66.91-.66,3.24,0,6.48,0,9.73,0Z"/>
    <path d="m18.87,65.2c.44-.4.85-.3,1.24-.3,6.17,0,12.34,0,18.51,0,.3,0,.6.01.89.04.37.03.49.28.5.62.01.43-.3.46-.6.47-.55.01-1.09.01-1.64.01-5.67,0-11.35,0-17.02,0-.73,0-1.54.15-1.88-.83Z"/>
    <path d="m29.85,60.78c-2.79,0-5.57.01-8.36-.01-.36,0-1,.26-.96-.52.03-.67.56-.57,1-.57,5.67,0,11.34,0,17.01,0,.36,0,.87-.15.9.47.04.71-.51.61-.94.61-2.88,0-5.77,0-8.65,0Z"/>
    <path d="m70.17,60.78c-2.79,0-5.58.01-8.37-.01-.44,0-1.14.24-1.14-.55,0-.8.71-.53,1.14-.53,5.53-.02,11.06-.02,16.58,0,.46,0,1.14-.18,1.14.57,0,.81-.72.5-1.14.51-2.74.03-5.48.02-8.22.01Z"/>
    <path d="m78.8,67.54c-.42.92-.92,1.15-1.66,1.14-5.43-.02-10.86,0-16.29-.03-.36,0-.98.3-1.03-.46-.04-.67.46-.66.92-.66,5.96,0,11.93,0,18.05,0Z"/>
    <path d="m21.36,67.54c1.26,0,2.43,0,3.61,0,4.63,0,9.26,0,13.89.01.53,0,1.39-.3,1.38.63,0,.86-.83.46-1.27.47-5.28.03-10.55.01-15.83.03-.79,0-1.47-.07-1.78-1.14Z"/>
    <path d="m69.67,58.14c-2.59,0-5.18,0-7.77,0-.4,0-1.02.21-1.07-.46-.05-.76.58-.66,1.07-.66,5.23,0,10.46,0,15.69,0,.5,0,1.11-.06,1.06.68-.05.69-.68.44-1.06.44-2.64.02-5.28.01-7.92.01Z"/>
    <path d="m30.1,58.14c-2.59,0-5.18.01-7.77-.01-.33,0-.91.25-.94-.38-.03-.63.43-.76,1.01-.75,5.28.02,10.57,0,15.85.02.42,0,.99-.13.95.59-.04.7-.61.53-1.02.53-2.69.01-5.38,0-8.07,0Z"/>
    <path d="m69.44,55.5c-2.44,0-4.88.02-7.33-.02-.39,0-1.11.34-1.06-.57.03-.68.56-.58.99-.58,4.93,0,9.87,0,14.8-.01.61,0,1.01.2.98.8-.02.62-.59.36-.91.37-2.49.02-4.98.01-7.48.01Z"/>
    <path d="m22.2,55.5c.04-.94.38-1.19,1.14-1.19,4.87.03,9.74.02,14.61.02.5,0,1.04-.07,1.07.67.03.7-.51.48-.83.49-5.31.01-10.63.01-15.99.01Z"/>
    <path d="m76.16,70.2c-.44.87-.9,1.17-1.65,1.16-4.67-.02-9.34,0-14.01-.03-.36,0-.98.29-.95-.52.03-.66.52-.62.97-.62,5.16,0,10.32,0,15.64,0Z"/>
    <path d="m23.95,70.2c5.34,0,10.51,0,15.69,0,.53,0,.9.14.89.73-.02.66-.57.42-.89.42-4.68.02-9.37,0-14.05.02-.74,0-1.22-.27-1.63-1.16Z"/>
    <path d="m30.97,52.82c-2.19,0-4.39.02-6.58-.02-.42,0-1.17.36-1.24-.3-.09-.78.62-.82,1.27-.82,3.89.02,7.78,0,11.67,0,.65,0,1.3.01,1.95,0,.49,0,.76.22.75.71,0,.57-.48.4-.78.41-2.34.02-4.69,0-7.03.01Z"/>
    <path d="m69.22,52.82c-2.34,0-4.68,0-7.02-.01-.34,0-.87.21-.88-.46-.01-.66.46-.66.92-.66,4.58,0,9.16,0,13.73,0,.52,0,.93.13.94.69.02.81-.66.42-.98.42-2.24.04-4.48.02-6.72.02Z"/>
    <path d="m29.68,63.39c-2.98,0-5.97.01-8.95-.02-.36,0-1.01.32-1.06-.4-.05-.74.57-.68,1.06-.68,5.97,0,11.94,0,17.91,0,.44,0,1.13-.2,1.06.62-.05.68-.67.46-1.06.46-2.98.02-5.97.01-8.95.01Z"/>
    <path d="m70.45,63.39c-2.99,0-5.97.01-8.96-.01-.42,0-1.13.26-1.08-.58.04-.67.65-.49,1.05-.49,5.92-.01,11.85-.01,17.77,0,.47,0,1.15-.12,1.17.58.02.81-.72.49-1.13.49-2.94.03-5.87.02-8.81.02Z"/>
    <path d="m49.33,35.97c0-2.14,0-4.28,0-6.42,0-.4-.18-.96.58-.93.73.02.56.57.56.97.03,4.28.05,8.56.05,12.84,0,.4.18,1-.56.96-.63-.04-.59-.54-.59-1,0-2.14,0-4.28,0-6.42-.01,0-.03,0-.04,0Z"/>
    <path d="m53.87,42.85c1.73-3.89,2.94-7.99,4.45-11.97.14-.37.27-.75.44-1.11.19-.41.57-.38.9-.25.42.17.17.52.08.75-1.48,4.16-2.96,8.32-4.5,12.46-.28.75-.84,1.26-1.33.06l-.04.04Z"/>
    <path d="m24.02,50.15c-.05-.89.36-1.11,1.09-1.11,4.14.02,8.28,0,12.42.02.43,0,.95-.07.97.61.02.55-.4.47-.73.47-4.58,0-9.17,0-13.75,0Z"/>
    <path d="m68.93,50.15c-2.14,0-4.27.01-6.41-.01-.34,0-.87.21-.91-.44-.04-.67.45-.65.91-.65,4.17,0,8.35,0,12.52,0,.49,0,.96.07.98.65.03.8-.65.43-.98.44-2.04.04-4.07.02-6.11.02Z"/>
    <path d="m56.04,43.41c-.84-.19-.18-.77-.04-1.08,1.33-2.93,2.71-5.84,4.07-8.76.46-.99.93-1.97,1.36-2.97.21-.48.49-.75,1.02-.52.64.28.15.67.02.95-1.77,3.87-3.57,7.74-5.36,11.6-.19.41-.36.84-1.07.77Z"/>
    <path d="m37.7,29.77c.51-.09.67.24.85.63,1.86,4,3.74,7.99,5.58,12,.12.26.64.72,0,.97-.49.2-.85-.09-1.06-.56-.64-1.4-1.29-2.79-1.94-4.19-1.23-2.65-2.47-5.3-3.69-7.96-.15-.32-.65-.84.25-.9Z"/>
    <path d="m49.03,42.4c-.04.42.19.93-.43.99-.52.05-.67-.36-.73-.77-.59-4.39-1.18-8.78-1.76-13.16-.05-.34-.13-.72.38-.81.52-.09.68.17.75.66.59,4.39,1.19,8.77,1.79,13.11Z"/>
    <path d="m53.92,42.81c-.39.24-.65.91-1.23.51-.4-.28-.11-.76-.02-1.11,1.04-4.08,2.12-8.15,3.18-12.22.12-.44.05-1.14.83-.89.77.24.31.81.2,1.23-.96,3.79-1.93,7.58-2.91,11.37-.1.39-.26.75-.11,1.15,0,0,.04-.05.04-.05Z"/>
    <path d="m47.53,42.73c.04.31.04.62-.38.66-.5.04-.69-.28-.8-.7-.45-1.78-.89-3.55-1.35-5.33-.64-2.49-1.31-4.98-1.92-7.49-.07-.28-.48-.79.2-.96.59-.15.79.23.91.71,1.1,4.27,2.2,8.54,3.3,12.81.02.1.03.2.04.29Z"/>
    <path d="m46.03,42.83c.03.2.05.45-.17.5-.22.05-.52.05-.69-.06-.18-.12-.28-.39-.36-.61-1.5-4.16-3-8.33-4.48-12.49-.11-.31-.55-.74.15-.93.48-.13.73.1.89.54,1.53,4.26,3.07,8.51,4.6,12.77.03.09.05.19.07.29Z"/>
    <path d="m57.46,43.22c.67-1.11,1.32-2.2,1.97-3.29,1.68-2.81,3.36-5.63,5.05-8.43.27-.44.5-1.09,1.22-.57.66.48-.07.79-.23,1.06-2.08,3.56-4.22,7.08-6.32,10.62-.36.61-.73,1.07-1.68.62Z"/>
    <path d="m42.63,43.22c-.88.41-1.27.06-1.62-.51-2.21-3.7-4.43-7.4-6.64-11.11-.17-.29-.63-.64,0-.95.37-.18.63-.16.86.22,2.45,4.11,4.91,8.22,7.38,12.35Z"/>
    <path d="m51.08,42.26c.57-4.15,1.15-8.43,1.75-12.71.05-.35-.02-.85.63-.76.6.08.51.44.45.87-.57,4.28-1.13,8.57-1.7,12.86-.06.42-.12.98-.78.86-.61-.11-.32-.61-.36-1.11Z"/>
    <path d="m40.3,43.01c.03.39-.24.38-.48.41-.53.05-.8-.31-1.07-.68-2.48-3.36-4.97-6.72-7.44-10.09-.15-.2-.66-.43-.13-.8.37-.25.68-.34,1,.1,2.62,3.57,5.26,7.12,7.89,10.68.09.12.16.25.23.37Z"/>
    <path d="m59.58,43.23c2.77-3.75,5.46-7.38,8.13-11.02.33-.46.74-.56,1.13-.24.49.41-.08.71-.27.97-2.37,3.25-4.78,6.49-7.16,9.73-.41.56-.86.97-1.82.56Z"/>
    <path d="m31.77,44.93c-1.7,0-3.39.01-5.09-.01-.33,0-.91.23-.9-.42,0-.54.42-.71.95-.7,3.49.01,6.98,0,10.48.01.35,0,.72,0,.75.5.03.58-.37.62-.79.62-1.8,0-3.59,0-5.39,0Z"/>
    <path d="m68.16,44.92c-1.69,0-3.38,0-5.08,0-.44,0-.97.06-.92-.63.04-.6.54-.49.91-.49,3.38,0,6.77,0,10.15-.01.54,0,1.1.06,1.07.71-.03.67-.67.41-1.05.42-1.69.03-3.38.01-5.08.01Z"/>
    <path d="m31.4,47.54c-1.74,0-3.49.02-5.23-.02-.43,0-1.19.33-1.23-.36-.05-.86.77-.72,1.34-.72,3.04,0,6.08,0,9.12,0,.65,0,1.3,0,1.94,0,.38.01.85-.07.88.53.02.62-.47.55-.84.55-1.99.01-3.99,0-5.98,0Z"/>
    <path d="m68.57,47.49c-1.89,0-3.79.01-5.68-.01-.38,0-1,.22-.99-.52,0-.6.52-.5.89-.5,3.79-.01,7.57,0,11.36,0,.47,0,1,.03.98.63-.02.72-.67.4-1.03.41-1.84.04-3.69.02-5.53.02Z"/>
    <path d="m63.39,42.29c.11-.97.63-1.14,1.36-1.14,2.53.02,5.06.01,7.59,0,.53,0,1.06.01,1.1.67.05.82-.64.44-.97.44-3.01.04-6.02.02-9.08.02Z"/>
    <path d="m36.75,42.28c-3.24,0-6.35,0-9.47,0-.28,0-.67.05-.65-.39.03-.54.37-.74.91-.74,2.04.02,4.08,0,6.12,0,.6,0,1.2.02,1.79,0,.71-.03,1.08.29,1.3,1.13Z"/>
    <path d="m34.78,39.62c-2.27,0-4.4,0-6.54,0-.3,0-.78.14-.71-.45.04-.36.21-.68.64-.68,1.89,0,3.78-.02,5.67,0,.54,0,.68.48.94,1.13Z"/>
    <path d="m65.35,39.62c.21-.89.63-1.19,1.4-1.17,1.58.05,3.17.03,4.75,0,.56,0,1.05.1,1.06.72.02.78-.66.41-.99.42-2.03.04-4.06.02-6.22.02Z"/>
    <path d="m67.4,36.96c.13-.71.38-1.14,1.04-1.15.84-.01,1.67,0,2.51,0,.53,0,.7.37.73.76.06.59-.46.38-.74.39-1.17.03-2.33.01-3.55.01Z"/>
    <path d="m32.69,36.95c-1.23,0-2.42,0-3.6,0-.23,0-.56.08-.64-.2-.05-.2.02-.52.16-.68.64-.77,3.56-.18,4.08.89Z"/>
  </g>
</svg>