<?xml version="1.0" encoding="UTF-8"?>
<svg id="Layer_1" data-name="Layer 1" xmlns="http://www.w3.org/2000/svg" viewBox="0 0 100 100">
  <defs>
    <style>
      .cls-1 {
        fill: #f3bb39;
      }

      .cls-2 {
        fill: #fff;
      }

      .cls-3 {
        fill: #f15c5d;
      }

      .cls-4 {
        fill: #70c59e;
      }

      .cls-5 {
        fill: #477abd;
      }

      .cls-6 {
        fill: #3a3b3a;
      }
    </style>
  </defs>
  <circle class="cls-2" cx="50" cy="50" r="50"/>
  <g>
    <rect class="cls-5" x="54.17" y="31.14" width="4.3" height="6.49"/>
    <rect class="cls-5" x="41.83" y="19.1" width="4.3" height="6.49"/>
    <rect class="cls-4" x="29.49" y="25.29" width="4.3" height="6.49"/>
    <rect class="cls-1" x="23.29" y="49.98" width="4.34" height="18.54"/>
    <rect class="cls-4" x="23.29" y="31.44" width="4.34" height="18.54"/>
    <rect class="cls-5" x="60.32" y="37.33" width="4.3" height="6.49"/>
    <rect class="cls-3" x="60.32" y="56.13" width="4.3" height="6.49"/>
    <rect class="cls-3" x="54.17" y="62.32" width="4.3" height="6.49"/>
    <rect class="cls-3" x="41.83" y="74.36" width="4.3" height="6.49"/>
    <rect class="cls-1" x="29.49" y="68.17" width="4.3" height="6.49"/>
    <path class="cls-6" d="m76.71,43.79v-12.34h-6.19v-6.15h-12.34v-6.19h-12.34v6.19h-12.34v6.19h-6.19v37.03h6.19v6.19h12.34v6.19h12.34v-6.19h12.34v-6.19h6.19v-12.39h-12.34v6.19h-6.19v6.19h-12.34v-6.19h-6.15v-24.69h6.19v-6.19h12.34v6.19h6.19v6.19h12.3v-.04Z"/>
  </g>
</svg>