<?xml version="1.0" encoding="UTF-8"?>
<svg id="Layer_1" data-name="Layer 1" xmlns="http://www.w3.org/2000/svg" xmlns:xlink="http://www.w3.org/1999/xlink" viewBox="0 0 100 100">
  <defs>
    <style>
      .cls-1, .cls-2 {
        fill: none;
      }

      .cls-3 {
        fill: url(#linear-gradient);
      }

      .cls-4, .cls-5 {
        fill: #fff;
      }

      .cls-6 {
        fill: #131424;
      }

      .cls-7 {
        fill: url(#linear-gradient-3);
      }

      .cls-8 {
        fill: url(#linear-gradient-2);
      }

      .cls-5 {
        fill-rule: evenodd;
      }

      .cls-2 {
        clip-path: url(#clippath);
      }
    </style>
    <clipPath id="clippath">
      <rect class="cls-1" x="21.83" y="21.83" width="56.34" height="56.34"/>
    </clipPath>
    <linearGradient id="linear-gradient" x1="62.5" y1="-172.07" x2="71.15" y2="-142.33" gradientTransform="translate(-20.36 195.06)" gradientUnits="userSpaceOnUse">
      <stop offset="0" stop-color="#44b3e7"/>
      <stop offset="1" stop-color="#ef549e"/>
    </linearGradient>
    <linearGradient id="linear-gradient-2" x1="69.59" y1="-174.14" x2="78.25" y2="-144.4" xlink:href="#linear-gradient"/>
    <linearGradient id="linear-gradient-3" x1="55.48" y1="-170.03" x2="64.14" y2="-140.29" xlink:href="#linear-gradient"/>
  </defs>
  <circle class="cls-4" cx="50" cy="50" r="50"/>
  <g class="cls-2">
    <g>
      <path class="cls-3" d="m33.57,27.23l43.67,29.81-10.8,15.96-43.67-30.05,10.8-15.73Z"/>
      <path class="cls-8" d="m77.23,57.04c-3.76,5.4-16.43,3.29-28.41-5.16-12.21-8.22-18.78-19.25-15.26-24.65,3.76-5.4,16.43-3.29,28.41,5.16,12.21,7.98,18.78,19.25,15.26,24.65Z"/>
      <path class="cls-7" d="m66.43,72.77c-3.76,5.4-16.43,3.29-28.41-5.16-11.97-8.45-18.78-19.25-15.02-24.88,3.76-5.4,16.43-3.29,28.41,5.16,11.97,8.45,18.55,19.48,15.02,24.88Z"/>
      <path class="cls-6" d="m77.23,57.04h0l-10.8,15.96h0c-3.76,5.4-16.43,3.05-28.41-5.16-2.35-1.64-4.46-3.29-6.57-5.16,1.64-.23,3.76-1.17,5.87-3.52,3.76-3.99,5.63-4.93,7.28-4.7,1.64,0,3.52,1.64,6.57,5.63,3.05,3.99,7.28,5.16,9.86,3.05.23-.23.47-.23.7-.47,2.11-1.64,2.82-2.35,6.81-9.86.94-1.88,4.23-4.93,8.69-3.52,1.17,3.05,1.17,5.63,0,7.75Z"/>
      <path class="cls-5" d="m75.59,56.1c-3.29,4.7-14.79,2.35-25.82-5.4-11.27-7.75-17.84-17.61-14.56-22.3,3.29-4.7,14.79-2.35,25.82,5.4,11.03,7.75,17.61,17.61,14.56,22.3Zm-10.33-7.04c-1.64,2.35-7.28,1.17-12.91-2.58-5.4-3.76-8.69-8.69-7.04-11.03,1.64-2.35,7.28-1.17,12.91,2.58,5.4,3.76,8.69,8.69,7.04,11.03Z"/>
      <path class="cls-4" d="m32.63,32.63c0-.23-.23-.47-.47-.23s-.47.23-.47.47c.23.7.47,1.17.47,1.64,0,.23.23.47.47.23.23,0,.47-.23.23-.47,0-.47,0-.94-.23-1.64Z"/>
      <path class="cls-4" d="m33.8,36.38c0-.23-.23-.47-.47-.23s-.23.23-.23.47c2.58,5.87,7.98,12.21,15.02,16.9.23.23.47,0,.7,0,.23-.23,0-.47,0-.7-7.28-4.7-12.44-10.8-15.02-16.43Z"/>
      <path class="cls-4" d="m62.21,59.39c-.23,0-.47,0-.47.23s0,.47.23.47c.7.23,1.64.47,2.35.7.23,0,.47,0,.47-.23s0-.47-.23-.47c-.7-.23-1.64-.47-2.35-.7Z"/>
      <path class="cls-4" d="m66.43,60.33c-.23,0-.47.23-.47.47s.23.47.47.47c1.88.23,3.99.47,5.63.23.23,0,.47-.23.47-.47s-.23-.47-.47-.47c-1.88.23-3.76,0-5.63-.23Z"/>
    </g>
  </g>
</svg>