<?xml version="1.0" encoding="UTF-8"?>
<svg id="Layer_1" data-name="Layer 1" xmlns="http://www.w3.org/2000/svg" xmlns:xlink="http://www.w3.org/1999/xlink" viewBox="0 0 100 100">
  <defs>
    <style>
      .cls-1 {
        fill: url(#linear-gradient);
      }

      .cls-2 {
        fill: #fff;
      }
    </style>
    <linearGradient id="linear-gradient" x1="10.24" y1="70.21" x2="99.44" y2="25.01" gradientUnits="userSpaceOnUse">
      <stop offset="0" stop-color="#a5489b"/>
      <stop offset="1" stop-color="#c74197"/>
    </linearGradient>
  </defs>
  <g id="gwWtHG">
    <g>
      <path class="cls-1" d="m100,46.25v7.75c-.18.88-.41,1.75-.52,2.64-1.18,9.23-4.72,17.46-10.58,24.65-8.14,10-18.61,16.03-31.37,18.04-1.51.24-3.02.45-4.53.67h-6c-.35-.1-.7-.25-1.05-.28-4.46-.34-8.81-1.26-12.99-2.82-9.15-3.41-16.76-8.96-22.65-16.77-5.53-7.33-8.88-15.54-9.79-24.71C.36,53.7.18,51.97,0,50.25c0-.17,0-.33,0-.5.09-.48.25-.96.26-1.44.07-4.14.7-8.2,1.87-12.15,3.13-10.57,9.09-19.26,17.87-25.94C26.63,5.18,34.09,2,42.36.76,44.15.49,45.95.25,47.75,0c1.5,0,3,0,4.5,0,1.22.18,2.44.39,3.67.52,9.69,1.07,18.29,4.76,25.78,10.95,9.67,8,15.57,18.23,17.6,30.65.23,1.38.47,2.76.7,4.13Zm-75.58,20.71c.51-.35.73-.46.89-.63,3.74-3.74,7.49-7.47,11.2-11.24.33-.34.53-.94.55-1.43.06-2.04-.02-4.08.07-6.12.03-.59.3-1.3.7-1.73,2.13-2.23,4.3-4.41,6.53-6.54.43-.41,1.14-.71,1.72-.72,4.75-.06,9.5,0,14.24-.06,1.2-.02,1.45.41,1.44,1.51-.05,4.71.01,9.41-.05,14.12,0,.62-.34,1.38-.77,1.83-2.13,2.22-4.32,4.39-6.55,6.52-.4.38-1.06.64-1.62.66-2.08.08-4.16,0-6.25.05-.48.01-1.07.23-1.4.56-3.5,3.45-6.97,6.93-10.44,10.41-.42.42-.83.87-1.44,1.51.67.08,1.02.15,1.37.15,7.87,0,15.74.01,23.61-.02.49,0,1.1-.2,1.43-.53,4.76-4.71,9.5-9.45,14.2-14.23.38-.39.65-1.08.65-1.63.04-10.79.02-21.57.05-32.36,0-1-.25-1.37-1.33-1.37-10.83.04-21.66.01-32.49.05-.51,0-1.15.24-1.51.6-4.71,4.65-9.4,9.32-14.04,14.04-.46.46-.77,1.29-.77,1.94-.05,6.62-.03,13.24-.03,19.87,0,1.49,0,2.97,0,4.78Z"/>
      <path class="cls-2" d="m24.42,66.96c0-1.81,0-3.3,0-4.78,0-6.62-.02-13.24.03-19.87,0-.66.32-1.48.77-1.94,4.64-4.72,9.33-9.39,14.04-14.04.36-.36,1-.6,1.51-.6,10.83-.03,21.66-.01,32.49-.05,1.07,0,1.33.37,1.33,1.37-.03,10.79-.01,21.57-.05,32.36,0,.55-.27,1.24-.65,1.63-4.7,4.78-9.44,9.52-14.2,14.23-.33.33-.95.53-1.43.53-7.87.03-15.74.03-23.61.02-.35,0-.7-.08-1.37-.15.61-.64,1.01-1.08,1.44-1.51,3.47-3.48,6.93-6.97,10.44-10.41.34-.33.93-.55,1.4-.56,2.08-.06,4.17.02,6.25-.05.55-.02,1.22-.28,1.62-.66,2.23-2.13,4.42-4.29,6.55-6.52.43-.45.76-1.21.77-1.83.06-4.71,0-9.41.05-14.12.01-1.09-.23-1.52-1.44-1.51-4.75.07-9.5,0-14.24.06-.59,0-1.3.31-1.72.72-2.22,2.13-4.4,4.31-6.53,6.54-.4.42-.68,1.13-.7,1.73-.09,2.04,0,4.08-.07,6.12-.02.49-.22,1.09-.55,1.43-3.71,3.77-7.46,7.5-11.2,11.24-.16.16-.38.27-.89.63Z"/>
    </g>
  </g>
</svg>