<?xml version="1.0" encoding="UTF-8"?>
<svg id="Layer_1" data-name="Layer 1" xmlns="http://www.w3.org/2000/svg" viewBox="0 0 100 100">
  <defs>
    <style>
      .cls-1, .cls-2 {
        fill: #ed1e7a;
      }

      .cls-3 {
        fill: #fff;
      }

      .cls-2 {
        fill-rule: evenodd;
      }
    </style>
  </defs>
  <circle class="cls-3" cx="50" cy="50" r="50"/>
  <g>
    <path class="cls-1" d="m40.42,27.45c-.61-.09-.64-.12-.35-.14.55-.09,1.82.03,2.72.23,2.08.49,3.96,1.76,5.95,3.99l.52.61.75-.12c3.21-.52,6.5-.12,9.25,1.16.75.35,1.94,1.04,2.08,1.21.06.06.14.43.2.81.2,1.36.12,2.37-.32,3.15-.23.43-.23.55-.09.92.12.29.46.49.78.49.69,0,1.42-1.1,1.76-2.63l.14-.61.26.29c1.47,1.65,2.63,3.93,2.8,5.55l.06.43-.26-.38c-.43-.66-.84-1.1-1.39-1.47-.98-.66-2.02-.87-4.77-1.01-2.48-.14-3.9-.35-5.29-.81-2.37-.78-3.58-1.79-6.38-5.52-1.24-1.65-2.02-2.54-2.8-3.29-1.7-1.65-3.41-2.51-5.63-2.86Z"/>
    <path class="cls-1" d="m61.94,31.12c.06-1.1.2-1.82.52-2.48.12-.26.23-.49.26-.49s-.03.2-.12.43c-.23.64-.26,1.53-.12,2.54.2,1.3.29,1.47,1.68,2.89.64.66,1.39,1.5,1.68,1.85l.49.64-.49-.46c-.61-.58-1.99-1.68-2.31-1.82-.2-.12-.23-.12-.38.03-.12.12-.14.29-.14,1.13-.03,1.3-.2,2.11-.64,2.95-.23.43-.26.35-.06-.14.14-.38.17-.55.17-1.79,0-2.51-.29-3.12-2.05-4.13-.43-.26-1.18-.64-1.62-.84-.46-.2-.81-.38-.78-.38.06-.06,1.76.43,2.43.72,1.01.4,1.18.43,1.3.4.09-.09.14-.32.17-1.04Z"/>
    <path class="cls-1" d="m41.6,35.42c-1.21-1.68-1.99-4.28-1.82-6.21l.06-.61.29.06c.52.09,1.42.43,1.85.69,1.16.69,1.68,1.65,2.17,4.02.14.69.35,1.5.43,1.76.14.43.69,1.44,1.16,2.08.32.46.12.69-.61.64-1.1-.12-2.57-1.13-3.52-2.43Z"/>
    <path class="cls-1" d="m60.47,47.99c-5.72-2.31-7.74-4.3-7.74-7.69,0-.49.03-.9.03-.9.03,0,.23.17.49.38,1.16.92,2.46,1.33,6.07,1.85,2.11.32,3.32.55,4.42.92,3.5,1.16,5.66,3.52,6.18,6.73.14.92.06,2.69-.17,3.61-.2.72-.78,2.05-.92,2.08-.03,0-.09-.14-.09-.38-.06-1.21-.66-2.37-1.68-3.26-1.21-1.04-2.77-1.82-6.59-3.35Z"/>
    <path class="cls-1" d="m56.42,48.95c-.06-.43-.2-.98-.29-1.21l-.14-.43.26.32c.38.43.66.95.92,1.68.2.55.2.72.2,1.62s-.03,1.07-.2,1.56c-.29.78-.64,1.33-1.21,1.94-1.04,1.07-2.4,1.65-4.33,1.91-.35.03-1.33.12-2.2.17-2.17.12-3.61.35-4.91.81-.17.06-.35.12-.38.09-.06-.06.84-.58,1.56-.92,1.01-.49,2.05-.75,4.33-1.16,1.13-.17,2.28-.4,2.57-.52,2.86-.9,4.28-3.12,3.81-5.84Z"/>
    <path class="cls-1" d="m59.05,53.6c-.75-1.65-.92-3.21-.52-4.68.06-.14.12-.29.17-.29s.23.09.4.2c.35.23,1.07.64,2.92,1.65,2.34,1.27,3.67,2.25,4.59,3.38.81.98,1.3,2.11,1.53,3.5.14.78.06,2.66-.14,3.44-.64,2.46-2.08,4.42-4.19,5.55-.32.17-.58.29-.61.29s.09-.29.26-.64c.69-1.47.78-2.89.26-4.48-.32-.98-.98-2.17-2.31-4.16-1.59-2.31-1.96-2.92-2.37-3.76Z"/>
    <path class="cls-1" d="m37.53,62.44c2.14-1.79,4.77-3.06,7.19-3.47,1.04-.17,2.77-.12,3.73.14,1.53.4,2.92,1.27,3.64,2.34.69,1.04,1.01,1.94,1.33,3.93.12.78.26,1.59.29,1.76.23,1.04.69,1.85,1.27,2.28.9.66,2.46.69,3.99.12.26-.09.49-.17.49-.14.06.06-.72.58-1.24.84-.72.38-1.3.49-2.08.49-1.39,0-2.57-.72-3.52-2.17-.2-.29-.61-1.13-.95-1.91-1.01-2.34-1.53-3.03-2.72-3.81-1.04-.66-2.37-.81-3.38-.32-1.33.64-1.68,2.34-.75,3.38.38.43,1.07.78,1.65.87,1.07.14,1.99-.69,1.99-1.76,0-.69-.26-1.1-.95-1.42-.92-.4-1.94.06-1.91.95,0,.38.17.61.55.78q.23.12.06.09c-.84-.17-1.04-1.21-.38-1.88.81-.81,2.51-.46,3.09.66.23.46.26,1.39.06,1.96-.49,1.27-1.88,1.94-3.29,1.56-.95-.26-1.36-.52-2.51-1.7-2.02-2.08-2.8-2.48-5.69-2.92l-.55-.09.61-.58Z"/>
    <path class="cls-2" d="m22.33,15.95c6.73,8.18,17.1,20.89,17.62,21.58.43.58.26,1.13-.46,1.53-.4.23-1.24.46-1.65.46-.46,0-1.01-.23-1.39-.61-.26-.26-1.39-1.91-3.93-5.86-1.94-3.03-3.58-5.55-3.61-5.58q-.12-.06,3.41,6.24c2.22,3.96,2.95,5.37,2.95,5.55,0,.38-.12.58-.58,1.1-.78.87-1.13,1.85-1.39,3.9-.29,2.28-1.07,3.9-3.29,6.64-1.3,1.62-1.5,1.91-1.82,2.57-.4.81-.52,1.27-.58,2.31-.06,1.1.06,1.79.38,2.83.29.92.61,1.53,1.39,2.72.66,1.04,1.07,1.82,1.07,2.11,0,.23.06.23,1.1,0,2.48-.58,4.54-1.56,5.66-2.77.69-.75.87-1.16.87-2.2,0-.66-.03-.81-.2-1.21-.29-.64-.84-1.16-2.02-1.96-1.56-1.07-2.22-1.94-2.4-3.09-.14-.98.03-1.65.9-3.47.9-1.88,1.13-2.66,1.27-4.56.09-1.21.23-1.7.58-2.08.38-.4.69-.55,1.59-.66,1.47-.2,2.43-.58,3.18-1.3.66-.61.95-1.21.98-2.11l.03-.66-.38-.4c-1.36-1.56-20.17-22.25-20.25-22.25-.03,0,.43.55.98,1.24Zm8.87,41.08c.32-.55.14-1.24-.38-1.59-.49-.32-1.24-.17-1.24.26,0,.12.06.23.23.29.26.14.29.29.09.61s-.2.61.06.81c.4.32.95.14,1.24-.38Z"/>
    <path class="cls-2" d="m42.9,41.84c-.69.2-1.36.95-1.56,1.7-.12.46-.06,1.3.14,1.56.32.4.61.52,1.42.52,1.59,0,2.95-.69,3.09-1.53.14-.69-.46-1.65-1.3-2.08-.43-.23-1.33-.32-1.79-.17Zm1.85,1.44c.23-.35.14-.72-.29-.98-.78-.49-1.96-.09-1.96.66,0,.38.61.78,1.18.78.38,0,.9-.23,1.07-.46Z"/>
  </g>
</svg>