<?xml version="1.0" encoding="UTF-8"?>
<svg id="Layer_1" data-name="Layer 1" xmlns="http://www.w3.org/2000/svg" viewBox="0 0 389 101">
  <defs>
    <style>
      .cls-1 {
        fill: #cfcfcf;
      }
    </style>
  </defs>
  <path class="cls-1" d="m55.46,43.65c-1.3.02-2.51.13-3.6.73-.98.54-.93.55-1.11-.58-.1-.66-.3-1.32-.56-1.93-.25-.56-.69-1.03-1.36-1.12-.98-.13-1.82-.64-2.75-.91-.8-.23-1.47-.08-2.1.27-3.07,1.7-6.12,3.46-9.18,5.18-.89.5-1.79.97-2.7,1.43-.69.35-1.01.87-.96,1.65.16,2.31-2.85,4.84-4.83,4.87-3.42.04-5.19-1.77-5.79-4.03-.89-3.36,1.42-6.68,4.87-6.74,1.06-.02,2.1.05,3.03.63.22.13.46.06.72-.08,2.37-1.3,4.77-2.56,7.13-3.88,2.34-1.3,4.66-2.64,6.98-3.98,1.5-.87,2.98-.86,4.5-.05,1.93,1.03,3.74,2.26,5.61,3.38.53.32.74.85.9,1.47.31,1.24.78,2.44,1.2,3.7h0Zm-33.18,4.19c-.21,1.79,1.61,3.65,3.35,3.57,2.04-.1,3.72-1.09,3.74-3.56.02-1.88-1.23-3.49-3.37-3.48-2.28.01-3.72,1.33-3.72,3.47Z"/>
  <path class="cls-1" d="m64.59,39.41c.09,1.1-.1,2.5-.14,3.9-.01.4-.21.64-.45.88-.89.89-1.83,1.75-2.55,2.8-.29.42-.54.27-.67-.07-.47-1.21-1.4-1.92-2.55-2.38-.52-.21-.43-.45-.09-.72.81-.65,1.28-1.59,2.09-2.25.52-.43.17-1.02.07-1.52-.18-.89-.47-1.77-.66-2.66-.22-1.08-1.07-1.59-1.9-2.07-3.66-2.13-7.35-4.22-11.02-6.35-.68-.39-1.25-.34-1.97-.06-1.77.67-3.6.88-5.26-.29-1.5-1.06-2.55-2.52-2.59-4.38-.05-2.09.95-3.91,2.75-4.87,3.2-1.7,7.73-.35,8.14,4.2.05.58.36,1.02.8,1.22,2.36,1.13,4.52,2.62,6.81,3.87,2.29,1.25,4.5,2.65,6.82,3.85,1.8.93,2.38,2.41,2.39,4.27,0,.78,0,1.55,0,2.63Zm-22.18-11.81c1.97-.03,3.53-1.4,3.62-3.47.09-1.98-1.55-3.56-3.57-3.6-2.4-.05-3.59,1.9-3.67,3.47-.1,1.83,1.75,3.58,3.62,3.61h0Z"/>
  <path class="cls-1" d="m89.58,53.91c.26,2.6-1.27,4.1-3.21,5.05-1.75.85-3.69.74-5.31-.58-.47-.38-.83-.13-1.16.05-1.83.97-3.64,1.97-5.43,3-2.78,1.59-5.53,3.27-8.34,4.8-1.1.6-2.34.36-3.41-.23-2.1-1.15-4.16-2.36-6.21-3.59-.65-.39-.65-1.21-.87-1.85-.29-.86-.49-1.76-.82-2.61-.17-.44-.2-.88.51-.79,1.1.14,2.03-.3,2.94-.83.53-.31.94-.51,1.02.46.06.79.41,1.56.68,2.33.21.59.65.96,1.26,1.15.86.26,1.71.54,2.54.87.81.31,1.54.13,2.24-.27,2.71-1.53,5.4-3.08,8.11-4.61,1.41-.8,2.82-1.59,4.26-2.31.31-.16.46-.22.48-.61.07-1.82,2.36-4.82,4.96-4.71,1.66.07,3.18.35,4.31,1.45,1.03,1,1.73,2.35,1.44,3.84h0Zm-8.83.02c-.25,1.65,1.79,3.71,3.45,3.62,1.71-.1,3.7-1.39,3.67-3.47-.03-2.26-1.37-3.55-3.55-3.68-2.07-.12-3.76,1.9-3.57,3.53h0Z"/>
  <path class="cls-1" d="m52.49,56.69c-1.04.86-1.95,1.67-2.69,2.67-.16.21-.33.39-.28.68.26,1.29.46,2.59.8,3.86.35,1.31,1.64,1.67,2.66,2.24,3.59,2,7.15,4.06,10.65,6.22.31.19.53.22.86.08,1.48-.64,2.98-.75,4.5-.13,1.9.77,3.08,2.12,3.27,4.2.26,2.74-.75,4.52-3.11,5.71-2.58,1.3-5.61.09-6.9-2.21-.48-.87-.86-1.76-.76-2.79.05-.46-.12-.77-.55-1.02-2.78-1.64-5.56-3.29-8.32-4.98-1.78-1.09-3.69-1.95-5.42-3.14-1.33-.91-1.77-2.14-1.71-3.7.07-1.72.12-3.46-.01-5.17-.11-1.45.32-2.58,1.33-3.56.58-.56,1.11-1.17,1.71-1.71.29-.26.56-.5.87.17.59,1.25,1.69,2.04,3.09,2.59h0Zm10.92,20.5c0,1.96,1.53,3.64,3.33,3.62,2.49-.03,3.68-1.52,3.79-3.53.1-1.86-1.88-3.68-3.66-3.6-1.66.07-3.75,1.95-3.46,3.51h0Z"/>
  <path class="cls-1" d="m40.32,61.67c0,2.3,0,4.6,0,6.9,0,.46.1.77.54,1.04,3.39,2.03,3.45,7.29-.17,9.21-1.81.96-3.63,1.26-5.43.13-3.89-2.45-3.42-7.26-.11-9.43.39-.26.49-.47.52-.91.27-3.84.29-7.68.3-11.53,0-1.67-.06-3.34,0-5.01.04-1.22.67-2,1.58-2.66,1.54-1.1,3.37-1.72,4.86-2.83,1.59-1.18,3.11-.67,4.71-.31.55.12,1.1.21,1.64.36.39.11.76.26.26.77-.81.84-.75,1.92-.69,2.97.03.64-.05.82-.8.63-.94-.24-1.91-.38-2.87-.6-.19-.04-.49-.06-.59.05-.95.99-2.15,1.71-3.06,2.75-.42.48-.54,1.04-.54,1.65v6.82h-.14Zm-2.3,9.13c-2.16,0-3.54,1.32-3.61,3.31-.06,1.84,1.65,3.71,3.57,3.64,2.05-.07,3.56-1.56,3.56-3.67,0-1.88-1.5-3.28-3.51-3.28h0Z"/>
  <path class="cls-1" d="m69.65,39.74c0-2.5,0-5,0-7.5,0-.35-.09-.56-.4-.82-2.05-1.69-2.88-3.75-2.15-6.22.58-1.99,2.52-3.56,4.78-3.67,2.17-.1,3.91.65,5.05,2.32,1.02,1.5,1.21,3.31.45,5.08-.51,1.19-1.29,2.15-2.5,2.7-.62.28-.72.8-.72,1.39.03,5.06.08,10.13.09,15.19,0,1.31-.44,2.38-1.63,3.18-1.99,1.34-4.1,2.43-6.22,3.53-.78.4-1.61.12-2.4-.07-.76-.18-1.52-.38-2.3-.47-.87-.1-.97-.34-.55-1.09.49-.87.7-1.81.7-2.8,0-.88.05-.9.94-.61.66.22,1.36.35,2.03.54,1.06.29,1.72-.38,2.37-1.01.88-.85,1.99-1.5,2.37-2.78.14-.45.12-.91.12-1.36,0-1.84,0-3.68,0-5.53h-.05,0Zm6.24-12.89c0-1.95-1.54-3.59-3.41-3.55-2.18.04-3.6,1.75-3.73,3.47-.12,1.61,1.78,3.61,3.29,3.66,2.3.07,4.08-1.87,3.85-3.58h0Z"/>
  <path class="cls-1" d="m72.81,71.87c-1.27-.27-2.61-.36-3.36-1.7-.34-.61-.18-1.41.46-1.78,3.62-2.07,7.27-4.1,10.97-6.04.68-.35,1.35-.73,2.04-1.06.97-.45,1.36-.24,1.28.77-.04.57.16,1.09.12,1.66-.13,1.88-1.32,2.9-2.77,3.8-2.3,1.43-4.65,2.79-7.1,3.97-.52.25-1.05.39-1.65.37Z"/>
  <path class="cls-1" d="m56.31,82.72c-1.48.1-2.63-.67-3.79-1.3-2.04-1.11-4-2.35-5.98-3.55-1.37-.83-2.2-3.39-1.6-4.84.38-.91,1.3-1.18,2.34-.56,2.38,1.41,4.74,2.86,7.1,4.3,1.83,1.12,3.64,2.25,5.46,3.37.5.31.64.62.12,1.05-1.08.89-2.21,1.65-3.66,1.53h0Z"/>
  <path class="cls-1" d="m25.93,37.56c-.57-2.18,1.16-3.22,2.72-4.22,2.1-1.34,4.31-2.52,6.48-3.75,1.77-1,3.5-.66,5,.46,1.35,1,1.22,1.89-.18,2.66-4.24,2.32-8.5,4.62-12.75,6.93-.81.44-1.15.31-1.27-.6-.06-.42,0-.86,0-1.47Z"/>
  <path class="cls-1" d="m53.39,18.28c1.08.12,2.15.32,3.12.88,2.29,1.32,4.62,2.57,6.88,3.95,1.47.9,2.07,3.69,1.59,4.84-.36.85-1.2,1.16-1.99.69-2.6-1.55-5.24-3.03-7.8-4.64-1.67-1.06-3.38-2.04-5.1-3-.63-.35-.67-.71-.13-1.15,1-.81,1.97-1.71,3.43-1.57Z"/>
  <path class="cls-1" d="m26.97,65.01c.02-2.18.17-4.37.03-6.54-.07-1.12,0-2.15.43-3.13.5-1.13,1.43-1.91,2.61-2.29,1.25-.4,2.06.28,1.95,1.57-.07.84-.09,1.66-.07,2.51.04,1.95.08,3.92-.13,5.85-.23,2.12.04,4.23-.13,6.33-.05.6-.13.91-.89.69-2.44-.73-3.72-2.32-3.89-4.83.06,0,.16,0,.18-.02.04-.06.02-.14-.09-.13h0Z"/>
  <path class="cls-1" d="m78.02,43.83c.37-1.21.26-2.46.16-3.66-.1-1.18-.1-2.37.02-3.51.18-1.75.09-3.49.12-5.22.01-.72.17-.75.84-.56,3.07.87,3.83,2.38,3.88,5.14.05,2.59.06,5.17,0,7.76-.04,2.02-1.43,3.32-3.09,3.98-.44.17-1.04.26-1.44-.19-.4-.45-.67-.97-.48-1.61.18-.58.21-1.17-.03-1.75.2.03.22-.1.21-.24,0-.12-.06-.2-.2-.14h0Z"/>
  <path class="cls-1" d="m59.58,50.88c0,1.69-2.37,4.2-3.98,4.2-3.21,0-5.22-1.97-5.22-5.12,0-1.69,2.34-4.03,4.03-4.03,3.34,0,5.16,1.75,5.17,4.96h0Z"/>
  <path class="cls-1" d="m78.02,43.83c.14-.06.2.03.2.14,0,.13-.01.27-.21.24,0-.13,0-.25,0-.38h0Z"/>
  <path class="cls-1" d="m26.97,65.01c.11-.01.13.07.09.13-.02.03-.11.02-.18.02-.07-.11-.08-.18.09-.15h0Z"/>
  <path class="cls-1" d="m236.77,45.71c2.15-3.19,3.86-6.44,5.73-9.6,1.54-2.6,3.03-5.22,4.4-7.92.81-1.58,1.77-3.1,2.79-4.55.73-1.04,1.87-1.2,3.08-.86,1.53.43,2,1.59,2.01,2.99.02,6.97.02,13.93.02,20.9,0,1.81-.09,3.62-.02,5.43.06,1.37-.29,2-1.84,1.91-.98-.06-1.96-.36-3-.09-.67.17-1.04-.41-.98-1.15.44-5.13.2-10.27.16-15.41,0-.3.12-.73-.32-.82-.43-.09-.48.32-.64.6-3,5.22-6.05,10.41-8.96,15.68-.63,1.14-1.71,1.44-2.58,1.56-.83.12-1.9-.49-2.46-1.51-2.45-4.5-4.84-9.03-7.58-13.37-.41-.64-.67-1.38-.98-2.08-.18-.42-.35-.9-.9-.75-.46.13-.37.62-.37.99-.02,3.07-.05,6.14-.05,9.21,0,1.76.01,3.51.11,5.26.07,1.25-.31,1.91-1.66,1.7-.16-.02-.33-.03-.49-.03-2.34-.08-3.51-1.32-3.52-3.7,0-8.01-.02-16.02.01-24.03,0-2.58.82-3.24,3.3-3.12.91.05,1.49.49,1.85,1.16,1.77,3.26,3.74,6.41,5.56,9.64,1.44,2.56,2.91,5.15,4.52,7.64.93,1.44,1.41,3.16,2.8,4.33h0Z"/>
  <path class="cls-1" d="m103.98,38.25c0-4.06,0-8.12,0-12.18,0-1.79.74-2.83,2.45-2.87,6.22-.14,12.48-.69,18.64.21,4.17.61,8.42,4.24,9.38,9.53.62,3.41.92,6.81.22,10.06-1.45,6.7-4.8,10.23-12.13,10.78-5.15.39-10.35.11-15.53.06-2.1-.02-3.05-1.14-3.05-3.26,0-4.11,0-8.23,0-12.34h.02,0Zm5.56.31h-.04c0,2.46-.02,4.93.01,7.39.01.86-.25,1.91.36,2.52.31.31,1.31-.09,1.99-.1,3.41-.02,6.82.09,10.23-.04,2.92-.11,5.24-1.31,6.44-4.19,1.36-3.29,1.27-6.8.41-9.98-1.12-4.12-3.04-5.62-7.86-5.56-3.3.05-6.6.01-9.9-.04-1.19-.02-1.68.39-1.65,1.62.06,2.79.02,5.58.02,8.38Z"/>
  <path class="cls-1" d="m276.85,54.26c-2.4-.28-5.03.26-7.64-.57-3.12-.99-5.39-2.98-7.16-5.58-1.34-1.97-1.71-4.25-1.67-6.6.05-3.53-.42-7.11.64-10.54,1.44-4.64,6.58-8.29,11.45-8.31,2.87-.01,5.73-.09,8.59,0,5.61.19,10.81,2.93,12.21,9.2,1.02,4.56.99,9.16.01,13.64-1.08,4.94-6.4,8.66-11.61,8.75-1.54.03-3.08,0-4.83,0h0Zm-.41-5.57v.06c1.59,0,3.19.02,4.78,0,2.3-.03,5.71-1.56,6.41-4.35.96-3.81,1.06-7.64.14-11.44-.48-2.02-1.71-3.83-3.88-4.25-3.94-.76-7.98-.84-11.96-.36-3.79.45-5.85,3.02-5.93,6.84-.05,2.19-.02,4.38-.03,6.57-.02,3.75,3.03,6.86,6.84,6.94,1.21.02,2.42,0,3.63,0h0Z"/>
  <path class="cls-1" d="m314.47,54.29c-2.03-.3-4.28.32-6.51-.3-4.5-1.27-7.27-4.38-9.11-8.44-.28-.61-.15-1.4-.22-2.11-.4-3.73-.23-7.48.18-11.16.42-3.71,4.63-8.72,10.06-9.3,4.49-.47,8.98-.71,13.41.09,3.5.64,6.3,2.52,7.94,5.95,2.47,5.16,2.13,10.5,1.08,15.79-1.26,6.37-6.56,9.38-12.66,9.48-1.32.02-2.64,0-4.16,0h0Zm0-5.56c1.96,0,3.5.09,5.04-.02,2.77-.2,4.96-1.27,6.04-4.07,1.52-3.94,1.17-7.97.32-11.89-.47-2.15-2.18-3.68-4.59-4.15-3.81-.75-7.66-.57-11.46-.23-3.08.28-5.43,2.86-5.65,5.84-.22,3.06-.34,6.16.16,9.18.37,2.23,1.76,4.08,4.05,4.93,2.12.79,4.34.25,6.09.41h0Z"/>
  <path class="cls-1" d="m368.44,37.89c0,4.33-.03,8.67.02,13,.02,1.31-.2,2.38-1.48,3.01-1.52.73-2.72.17-3.77-.92-3.92-4.08-7.82-8.18-11.75-12.26-2.28-2.37-4.59-4.73-6.89-7.09-.33-.34-.68-.86-1.23-.62-.5.22-.25.78-.25,1.18,0,5.87-.02,11.74.03,17.61.01,1.5-.45,2.16-2.07,2.12-3.54-.1-3.56-.04-3.57-3.52,0-8.34.02-16.67.04-25.01,0-1.01.2-1.9,1.32-2.36,1.25-.52,2.32-.76,3.43.41,6.1,6.4,12.25,12.74,18.38,19.11.3.32.58.66.9.96.21.2.3.61.77.42.42-.17.59-.46.58-.89,0-.22,0-.44,0-.66,0-5.92.01-11.85-.05-17.77-.02-1.21.24-1.76,1.55-1.56,1.33.2,3.06-.69,3.93.32.76.88.11,2.52.12,3.83.03,3.56,0,7.13.01,10.69h0Z"/>
  <path class="cls-1" d="m155.31,23c3.86,0,7.71.08,11.57-.04,1.47-.05,1.71.59,1.55,1.74-.06.43-.24.83-.29,1.26-.27,2.54-.26,2.56-2.89,2.57-5.89.02-11.79.06-17.68.01-1.3-.01-1.71.33-1.69,1.66.09,5.1.04,10.2.06,15.3,0,2.2.59,2.81,2.83,2.82,5.95.03,11.9.06,17.85,0,1.42-.02,1.93.33,1.84,1.84-.18,3.41-.1,3.53-3.48,3.61-6.16.16-12.33.27-18.49-.12-2.53-.16-5.48-3-5.95-5.51-.31-1.63-.21-3.28-.21-4.92-.01-5.54-.02-11.08-.02-16.62,0-2.98.53-3.52,3.6-3.54,3.8-.03,7.6,0,11.4,0v-.05h0Z"/>
  <path class="cls-1" d="m173.87,39.18c0-4.16-.01-8.33,0-12.49.01-2.85.79-3.62,3.61-3.62,7.7,0,15.41.02,23.12,0,.9,0,1.24.22,1.26,1.19.08,4.33.11,4.32-4.26,4.32-5.34,0-10.68,0-16.02.02-2.21,0-2.2,0-2.18,2.11.03,7.18.05,14.35.1,21.53,0,1.21-.44,1.75-1.67,1.58-.38-.05-.77-.08-1.15-.09-2.86-.08-2.81-.08-2.77-3.04.06-3.84.01-7.67.01-11.51h-.06,0Z"/>
  <path class="cls-1" d="m212.2,38.32c0,4.6-.04,9.21.03,13.81.02,1.34-.31,2-1.75,1.76-.21-.04-.44-.02-.66-.03-2.17-.04-3.25-1.17-3.25-3.38.01-8.6.05-17.21.02-25.81,0-1.26.27-1.7,1.64-1.66,3.96.11,3.97.04,3.97,3.98,0,3.78,0,7.56,0,11.34h0,0Z"/>
  <path class="cls-1" d="m156.83,41.21c-2.53,0-5.05-.01-7.58,0-.76,0-1.05-.07-1.16-1.04-.49-4.61-.56-4.59,3.92-4.56,4.12.03,8.24.08,12.36.02,1.27-.02,1.71.42,1.51,1.62-.04.21-.04.43-.05.65-.11,2.21-1.3,3.33-3.56,3.34-1.81.01-3.63,0-5.44,0v-.04Z"/>
  <path class="cls-1" d="m190.4,35.62c2.53,0,5.05.02,7.58-.01.98-.01,1.45.34,1.3,1.34-.03.16-.05.32-.07.48-.15,1.23.59,2.91-.36,3.57-.85.6-2.43.18-3.69.18-3.95,0-7.91-.06-11.86.02-1.37.02-1.7-.55-1.69-1.75.02-3.76,0-3.76,3.69-3.77,1.7,0,3.41,0,5.11,0v-.07h0Z"/>
  <path class="cls-1" d="m251.17,72.58c0-2.14-.03-4.28.01-6.41.01-.59-.24-1.52.75-1.52,1.09,0,.83.95.85,1.61.03.93,0,1.86.03,2.8.03,1,.18,1.5,1.33.69,1.37-.97,4.72-.73,5.94.23,1.67,1.31,2.8,4.33,2.29,6.15-1.05,3.78-4.78,5.39-8.2,3.51-.64-.35-.99-.07-1.42.32-.3.28-.66.69-1.14.38-.41-.26-.45-.72-.45-1.17v-6.58h0Zm1.62,2.07c.01,2.78,1.5,4.45,3.99,4.45,2.21,0,3.95-1.98,3.94-4.49,0-2.14-1.84-4.17-3.83-4.15-2.37.03-4.33,1.5-4.1,4.19Z"/>
  <path class="cls-1" d="m272.46,75.51c-1.1,0-2.2,0-3.3,0-1.09,0-1.42.37-.81,1.39,1.38,2.31,3.55,2.78,5.78,1.23.72-.5,1.68-1.65,2.32-.69.63.94-.72,1.66-1.51,2.17-2.23,1.46-5.07,1.11-7.09-.78-1.83-1.71-2.63-5.17-1.33-7.11,1.67-2.5,5.61-3.59,8.5-1.47,1.51,1.11,2.1,2.45,2.33,4.24.12.94-.26.88-.77.89-1.37.03-2.75.01-4.12.01v.11Zm-.84-1.73v.04c.93,0,1.87.04,2.8,0,1.06-.05,1.17-.68.71-1.45-1.42-2.4-5.33-2.39-6.82-.03-.67,1.06-.38,1.5.84,1.46.82-.02,1.65,0,2.47,0h0Z"/>
  <path class="cls-1" d="m306.21,75.46c-.77,0-1.54,0-2.31,0-1.08,0-1.43.35-.8,1.38,1.56,2.58,3.57,2.98,5.97,1.15.73-.56,1.75-1.43,2.34-.55.43.64-.64,1.7-1.43,2.14-1.75.99-3.64,1.84-5.62.58-2.02-1.29-3.4-2.95-3.31-5.59.11-3,1.11-4.59,3.62-5.25,2.59-.68,5.61.47,6.87,2.54.36.6.46,1.21.51,1.87.06.91-.05,1.4-1.27,1.48-1.52.1-3.03.3-4.56.23h0Zm-3.55-1.93c.14.07.28.2.42.2,1.81.03,3.61.07,5.42.03.52,0,1.29.4,1.51-.5.21-.91-.18-1.57-.98-2.03-2.65-1.51-5.35-.52-6.36,2.3h0Z"/>
  <path class="cls-1" d="m360.55,75.48c-.9,0-1.94-.04-2.99.01-.74.03-1.05.26-.61,1.13,1.36,2.71,3.72,3.25,6.28,1.37.57-.42,1.26-1.39,1.92-.64.65.74-.26,1.55-.8,2.03-2.1,1.88-5.57,1.87-7.68-.5-1.4-1.58-1.64-3.38-1.69-5.27-.05-1.7,2.69-4.27,4.49-4.42,3.17-.24,5.73.45,6.65,4.69.23,1.05-.03,1.44-.99,1.56-1.48.18-2.96.22-4.59.04h0Zm.53-1.75c.6.04,1.2.09,1.8.11.48.02,1.05.14,1.29-.44.21-.51-.06-.96-.36-1.36-1.53-2.05-5.1-1.98-6.58.08-.3.42-.29.83-.18,1.22.14.5.61.54,1.08.47.98-.13,1.96-.2,2.95-.09h0Z"/>
  <path class="cls-1" d="m293.08,80.84c-2-.38-3.6-.82-4.79-2.16-.4-.45-.72-1.02-.24-1.41.44-.35,1.32-.41,1.63.17.99,1.85,2.47,1.76,4.16,1.34.78-.19,1.61-.29,1.67-1.24.07-1.06-.72-1.56-1.64-1.72-1.46-.26-2.91-.61-4.17-1.36-1.09-.65-1.97-1.52-1.53-3.12.42-1.56,1.46-1.81,2.8-1.86,1.33-.05,2.67-.77,3.97.16.22.16.5.25.69.43.59.54,1.58,1.21.95,1.96-.53.63-1.19-.33-1.7-.77-.75-.65-3.53-1.02-4.35-.56-.91.51-.93,1.52-.11,2.22,1,.86,2.26.99,3.45,1.2,2.2.39,3.39,1.36,3.48,3.07.07,1.42-1,2.59-3.02,3.16-.5.14-.95.66-1.23.47h0Z"/>
  <path class="cls-1" d="m340.86,74.52c0,1.43.11,2.86-.04,4.27-.08.77,0,2.34-1.66,1.12-.53-.39-1.14-.15-1.72.1-3.54,1.53-6.52-1.03-6.59-4.33-.04-1.81.03-3.61.05-5.42,0-.52.04-1.06.74-1.03.63.02.62.55.57.98-.19,1.75.31,3.46.31,5.21,0,1.78,1.38,3.61,2.74,3.68,2.03.11,3.67-1.27,3.82-3.37.12-1.69.04-3.4.1-5.1.02-.6-.21-1.44.87-1.41,1.03.03.67.83.69,1.35.04,1.31.02,2.63.02,3.94h.11Z"/>
  <path class="cls-1" d="m346.02,76.26c.21-1.91-.38-3.78-.27-5.69.03-.54-.09-1.13.64-1.32.64-.17,1.08.14,1.25.71.24.8.63.37,1.09.28.75-.15,1.13-.87,1.82-1.05.51-.13.94-.16,1.2.47.29.72-.19.88-.65.98-2.84.58-3.21,2.78-3.37,5.09-.08,1.2.01,2.4,0,3.61,0,.49-.08,1.05-.74,1.1-.7.04-.94-.47-.96-1.06-.03-1.04,0-2.07,0-3.11Z"/>
  <path class="cls-1" d="m316.03,73.29c.36-2.06,1.63-3.54,3.55-3.99,2.12-.5,4.34-.29,5.96,1.54.44.49,1.16,1.18.34,1.81-.73.56-.97-.41-1.31-.77-2.04-2.18-4.99-1.72-7.02,1.13-.57-.23-1.02.13-1.52.29h0Z"/>
  <path class="cls-1" d="m318.27,77.77c3.05,1.85,3.52,1.82,6.58-.46.35-.26.78-.67,1.15-.35.42.35.22.91-.09,1.33-1.94,2.69-6.86,3.59-8.62.31.77.24.87-.28.97-.82Z"/>
  <path class="cls-1" d="m318.27,77.77c-.09.54-.2,1.07-.97.82-1.13-1.6-1.58-3.36-1.28-5.3.5-.15.95-.51,1.52-.28-.38,1.36-.48,2.71.05,4.05-.04.27.05.44.36.4h-.03c.03.2.13.33.36.32l-.02-.02h0Z"/>
  <path class="cls-1" d="m317.96,77.47c-.31.04-.4-.13-.36-.4.12.13.24.27.36.4Z"/>
  <path class="cls-1" d="m318.29,77.79c-.23,0-.33-.13-.36-.33.28-.06.36.1.36.33Z"/>
</svg>