<?xml version="1.0" encoding="UTF-8"?>
<svg id="Layer_1" data-name="Layer 1" xmlns="http://www.w3.org/2000/svg" viewBox="0 0 389 101">
  <defs>
    <style>
      .cls-1 {
        fill: #cfcfcf;
      }
    </style>
  </defs>
  <path class="cls-1" d="m88.24,32.43c-.37,4.12-.75,8.26-1.1,12.4-.38,4.55-.84,9.09-1.07,13.65-.25,4.96-1.72,9.35-5.41,12.89-4.21,4.05-7.96,8.52-11.98,12.75-1.28,1.35-1.22,1.34-2.58.02-4.56-4.4-8.72-9.16-13.17-13.65-2.94-2.97-4.04-6.71-4.34-10.71-.62-8.38-1.03-16.78-2.08-25.11-.32-2.57.32-3.64,2.61-4.85,6.2-3.27,11.47-7.85,16.52-12.63.15-.14.29-.29.44-.43,1.32-1.24,1.44-1.17,2.74.13,3.06,3.07,6.43,5.78,9.95,8.33,2.69,1.95,5.51,3.69,8.38,5.36.72.42,1.3.89,1.1,1.84h0Z"/>
  <path class="cls-1" d="m114.61,40.79c0-4,.03-8-.02-12-.01-1.05.34-1.43,1.42-1.4,2.55.06,5.11-.07,7.66.04,6.57.28,10.4,3.26,11.99,8.76,1.08,3.76.9,7.42-.75,10.99-2.16,4.68-6.08,6.73-11.1,6.98-2.59.13-5.19,0-7.78.05-1.07.02-1.44-.37-1.43-1.42.04-4,.02-8,.02-12h0Zm5.04-.08c0,2.63.02,5.25-.01,7.88,0,.81.27,1.19,1.14,1.16,1.11-.05,2.23.04,3.33-.04,2.57-.19,4.75-1.12,5.9-3.55,1.56-3.31,1.76-6.72.32-10.11-1.19-2.8-3.3-4.36-6.53-4.21-.95.04-1.9.06-2.84,0-1.05-.07-1.34.39-1.33,1.36.05,2.5.02,5.01.02,7.52h0Z"/>
  <path class="cls-1" d="m142.11,40.7c0-3.92.03-7.84-.02-11.76-.01-1.12.33-1.57,1.55-1.55,4.94.06,9.89.05,14.83,0,1.11,0,1.53.33,1.5,1.46-.09,3.21.38,3-3.07,3-2.88,0-5.77.02-8.65,0-.98-.01-1.45.3-1.4,1.33.06,1.13.06,2.27,0,3.4-.05,1.03.43,1.34,1.41,1.31,1.77-.04,3.54,0,5.31-.02.91,0,1.4.27,1.24,1.29-.1.67-.08,1.37-.05,2.06.04.94-.39,1.31-1.33,1.3-1.69-.02-3.38.04-5.07-.01-1.09-.03-1.59.31-1.54,1.45.07,1.53.04,3.07,0,4.61-.02.81.29,1.19,1.15,1.18,3.7-.05,7.41.13,11.12-.11,1.47-.09,1.75.15,1.76,1.58.02,3.45,0,2.97-2.97,2.98-4.66.02-9.31,0-13.97,0-1.8,0-1.85-.04-1.85-1.85,0-3.88,0-7.76,0-11.64h.02,0Z"/>
  <path class="cls-1" d="m280.05,40.72c0-3.96.03-7.93-.02-11.89-.01-1.09.31-1.49,1.47-1.48,4.99.05,9.97.04,14.96,0,.92,0,1.3.27,1.41,1.2.38,3.05.22,3.27-2.83,3.28-2.93,0-5.85.05-8.77,0-1.1-.02-1.46.36-1.39,1.41.07,1.09.01,2.18.02,3.27,0,1.52.13,1.64,1.73,1.49,1.64-.15,3.29-.13,4.93-.05.91.05,1.27.39,1.27,1.34.01,3.05.05,3.05-3.07,3.04-1.19,0-2.39.03-3.58,0-.96-.02-1.32.38-1.29,1.31.05,1.62.06,3.24,0,4.85-.04.99.38,1.23,1.31,1.22,3.66-.04,7.33.02,11-.04,1.15-.02,1.62.27,1.58,1.48-.11,3.55.42,3-3.09,3.01-4.74.02-9.48-.02-14.21.02-1.03,0-1.45-.22-1.43-1.35.07-4.04.03-8.09.03-12.13h0Z"/>
  <path class="cls-1" d="m247.44,54.19c-1.63.01-2.69-.74-3.2-2.24-.34-1-.71-1.98-1.04-2.98-.16-.48-.43-.74-.98-.73-2.96.04-5.93.08-8.9.08-.87,0-1.37.29-1.61,1.14-.33,1.12-.85,2.2-1.13,3.33-.24.98-.84,1.32-1.75,1.35-.82.02-1.65-.03-2.47.03-1.09.08-1.19-.42-.87-1.25.64-1.66,1.3-3.32,1.93-4.99,2.49-6.51,4.98-13.01,7.45-19.53.26-.7.64-1.01,1.43-1.03,3.46-.09,3.47-.11,4.69,3.06,2.71,7.07,5.39,14.16,8.12,21.22,1.21,3.11.81,2.49-1.66,2.54Zm-9.9-20.25c-.65,1.72-1.21,3.23-1.78,4.74-.59,1.55-1.17,3.1-1.8,4.64-.31.75.08.83.67.84,1.81,0,3.62,0,5.43.04,1.05.03,1.33-.33.96-1.31-1.05-2.76-2.06-5.53-3.09-8.3-.07-.18-.2-.33-.4-.65Z"/>
  <path class="cls-1" d="m211.77,26.94c3.23-.05,5.89,1.35,7.67,4.28.72,1.17.54,1.59-.76,2.08-.16.06-.32.09-.47.16-1.32.59-2.31.82-3.5-.63-1.35-1.65-3.57-1.53-5.53-1.03-1.68.42-2.14,2.58-.96,3.85.89.96,2.06,1.44,3.29,1.84,1.96.62,3.91,1.26,5.69,2.32,2.91,1.73,4.17,4.27,3.84,7.56-.32,3.11-2.07,5.28-4.94,6.43-4.19,1.68-9.48.88-12.45-2.62-.64-.75-1.13-1.59-1.62-2.43-.43-.72-.21-1.24.56-1.54.88-.34,1.78-.64,2.67-.96.81-.29,1.1.32,1.45.81,1.37,1.98,3.19,3.11,5.71,2.95,1.94-.13,3.44-1.15,3.79-2.59.4-1.67-.41-3.14-2.29-4.13-1.83-.96-3.82-1.49-5.73-2.24-1.99-.78-3.82-1.75-4.79-3.77-1.85-3.85,0-8.17,4.17-9.69,1.29-.47,2.62-.68,4.24-.65h0Z"/>
  <path class="cls-1" d="m73.42,84.32c1.63-1.61,3.6-2.77,5.37-4.19,2.9-2.33,5.67-4.81,8.47-7.25,3.73-3.24,5.36-7.48,5.83-12.22.76-7.63,1.49-15.27,2.19-22.92.32-3.46.41-6.94,1-10.37.15-.87-.31-1.22-1.07-1.47-6.79-2.3-13.34-5.15-19.74-8.32-.57-.28-1.2-.48-1.78-1.2,1.71.27,2.96,1.08,4.34,1.52,6.4,2.04,12.9,3.64,19.63,4.2,2.86.24,2.89.33,2.58,3.11-.52,4.7-.93,9.41-1.37,14.11-.54,5.71-1.07,11.42-1.61,17.13-.17,1.85-.23,3.7-.56,5.54-1.04,5.88-3.95,10.52-9.03,13.89-4.48,2.97-9.26,5.43-13.8,8.28-.13.08-.3.11-.44.16h0Z"/>
  <path class="cls-1" d="m61.27,84.42c-1.66-.66-2.9-1.68-4.27-2.47-3.69-2.13-7.4-4.22-10.91-6.65-4.67-3.23-7.21-7.68-8.11-13.09-.86-5.23-1.02-10.53-1.52-15.8-.57-5.99-1.12-11.99-1.66-17.98-.15-1.65-.2-3.31-.37-4.95-.08-.84.2-1.16,1.05-1.23,3.45-.27,6.88-.67,10.27-1.4,4.59-.99,9.17-2.01,13.47-3.94.51-.23,1.06-.37,1.63-.46-1.41,1.17-3.1,1.84-4.73,2.6-5.4,2.52-10.83,4.95-16.48,6.89-.8.27-.91.79-.9,1.5.06,3.8.48,7.58.8,11.36.31,3.74.58,7.49.97,11.22.42,4.06.53,8.14,1.16,12.18.78,4.98,3.24,8.9,7.16,12.06,4.07,3.28,7.86,6.89,12.3,9.72.05.03.05.14.14.44h0Z"/>
  <path class="cls-1" d="m69.68,16.51c1.09.09,1.88.79,2.72,1.3,6.21,3.81,12.8,6.84,19.69,9.24,1.93.67,1.99.67,1.8,2.68-.69,7.56-1.42,15.12-2.13,22.68-.27,2.9-.43,5.8-.88,8.68-.8,5.04-3.36,9.01-7.41,12.19-3.41,2.68-6.67,5.52-10.01,8.3-.14.12-.32.2-.57.36.21-.96.88-1.42,1.41-1.93,3.34-3.19,6.43-6.61,9.48-10.06,2.17-2.44,3.12-5.36,3.34-8.56.62-8.87,1.56-17.7,2.44-26.55.1-1.04.06-2.1.13-3.15.03-.47-.14-.77-.56-.97-6.47-3.19-11.81-7.91-17.34-12.37-.7-.56-1.42-1.1-2.13-1.66-.02-.02,0-.07,0-.2h0Z"/>
  <path class="cls-1" d="m65.09,16.52c-2.85,2.36-5.65,4.79-8.57,7.07-3.42,2.67-6.9,5.26-10.85,7.16-.58.28-.71.7-.66,1.29.74,8.81,1.45,17.63,2.23,26.44.18,2,.28,4.02.73,6.01.76,3.33,2.99,5.69,5.24,8.07,2.72,2.87,5.46,5.72,8.36,8.43.18.16.41.29.38.59-.22.29-.45.1-.62-.04-3.88-3.31-8.01-6.34-11.81-9.76-3.97-3.58-5.7-8.09-6.14-13.23-.7-8.29-1.44-16.58-2.16-24.87-.15-1.69-.25-3.38-.4-5.07-.06-.65.24-.97.82-1.15,7.27-2.25,13.98-5.68,20.53-9.45.94-.54,1.67-1.4,2.71-1.77.07.1.13.19.2.29h0Z"/>
  <path class="cls-1" d="m166.59,40.71v-11.76c0-1.5.04-1.55,1.61-1.55,4.82,0,9.64.03,14.45-.02,1.1-.01,1.56.31,1.53,1.44-.07,3.52.29,2.99-2.99,3.01-2.8.03-5.6.04-8.4,0-1.07-.02-1.49.39-1.46,1.42.04,1.13.04,2.26,0,3.39-.03.89.34,1.24,1.24,1.22,1.77-.03,3.54.02,5.31-.02,1.01-.03,1.4.34,1.38,1.34-.08,3.8.48,3.26-3.33,3.3-.99.01-1.98,0-2.96.01-1.61.01-1.62.02-1.62,1.65,0,2.83-.04,5.66.02,8.49.02,1.12-.31,1.6-1.54,1.57-3.52-.1-3.22.48-3.23-3.2-.01-3.43,0-6.87,0-10.31h-.01Z"/>
  <path class="cls-1" d="m256.04,40.73c0-4,.03-8.01-.02-12.01-.01-1.08.36-1.38,1.43-1.37,4.82.05,9.64.05,14.46,0,1.19-.01,1.6.37,1.57,1.53-.09,3.38.45,2.91-3.04,2.95-2.72.03-5.44,0-8.16,0-1.56,0-1.63.07-1.62,1.55.01,1.21.1,2.42.07,3.63-.02.82.49.82,1.05.82,1.73,0,3.46.05,5.19-.01,1.15-.04,1.62.34,1.61,1.53-.03,2.97.01,2.97-2.99,2.97-1.19,0-2.39.03-3.58,0-1-.03-1.39.37-1.37,1.37.05,3.03-.01,6.06.04,9.09.02,1.06-.35,1.41-1.43,1.4-3.83-.06-3.15.36-3.19-3.03-.04-3.48,0-6.95,0-10.43h0Z"/>
  <path class="cls-1" d="m340.14,48.64c.76-3.76-.79-6.81-2.84-9.85-2.27-3.37-4.21-6.95-6.31-10.43-.48-.79-.2-1.01.61-.99h.25c4.73.09,3.42-.66,5.74,3.13,1.47,2.39,2.89,4.8,4.29,7.23.48.84.83.91,1.33.05,1.83-3.12,3.7-6.22,5.49-9.36.41-.72.85-1.11,1.72-1.06,1.03.06,2.06.02,3.09,0,.83-.01,1.06.27.61,1.01-2.53,4.16-5,8.37-7.61,12.49-1.06,1.67-1.74,3.31-1.61,5.33.15,2.17,0,4.37.04,6.55.02.99-.29,1.45-1.41,1.46-3.4.02-3.39.06-3.39-3.26v-2.3h0Z"/>
  <path class="cls-1" d="m312.44,42.99c0-3.23-.04-6.47.02-9.7.02-1.09-.28-1.53-1.45-1.47-1.68.09-3.38,0-5.06.04-.97.03-1.45-.25-1.42-1.29.08-3.81-.5-3.15,3.14-3.17,5.23-.04,10.47.01,15.7-.03,1.16-.01,1.61.33,1.59,1.51-.07,3.48.31,2.94-3.03,2.97-1.11.01-2.23.04-3.34-.01-1.01-.05-1.37.33-1.37,1.34.03,6.1.02,12.21.01,18.31,0,3.21.07,2.65-2.69,2.72-.33,0-.66-.02-.99,0-.86.07-1.14-.3-1.13-1.14.04-3.35.02-6.71.02-10.06h.01,0Z"/>
  <path class="cls-1" d="m189.83,40.77c0-4,.03-8-.02-12-.02-1.08.36-1.46,1.42-1.38.74.06,1.49.06,2.22,0,1.1-.1,1.41.38,1.41,1.41-.03,7.07-.02,14.14-.01,21.21,0,1.01.13,2.01.14,3.02.01.84-.24,1.38-1.31,1.22-.85-.13-1.73-.09-2.59-.06-.97.04-1.29-.38-1.28-1.31.03-4.04.01-8.08.01-12.12h0Z"/>
  <path class="cls-1" d="m195.57,70.85c0-.77-.09-1.55.03-2.3.08-.47-.25-1.18.62-1.39,1.29-.31,3.04.03,3.56.8.49.74.28,1.47-.13,2.17-.27.46-1.02.73-.71,1.42.35.79,1,1.38,1.66,1.92.41.34.72-.05.88-.36.33-.64.72-1.3.85-2,.22-1.26,1.02-2.3,1.32-3.51.08-.33.3-.47.63-.46.4,0,.57.29.7.6.59,1.38,1.16,2.76,1.75,4.14.17.41.37.81.55,1.21.13.28.41.63,0,.84-.37.19-.65-.14-.75-.44-.43-1.34-1.47-1.41-2.65-1.37-.66.02-1.03.23-1.35.81-.81,1.45-2.14,1.59-3.31.37-.53-.56-.96-1.2-1.45-1.8-.22-.27-.5-.45-.86-.3-.32.13-.34.44-.35.72-.01.48.02.97,0,1.45-.01.29-.09.59-.46.61-.38.02-.5-.3-.51-.57-.03-.85-.01-1.69-.01-2.54h-.02Zm3.42-1.87c0-.91-.74-1.07-1.49-1.13-.86-.06-.97.63-1.01,1.22-.05.8.38,1.26,1.25,1.28.91.02,1.19-.52,1.25-1.36h0Z"/>
  <path class="cls-1" d="m168.15,71.06c0,.73.01,1.45,0,2.18,0,.36,0,.79-.53.79-.51,0-.57-.4-.58-.77-.02-1.25-.04-2.5-.01-3.75.02-.85-.06-1.54-1.17-1.57-.3,0-.76-.1-.72-.5.04-.4.52-.36.81-.36,1.79-.01,3.59-.03,5.38.06.83.04.9.96,1.32,1.47.37.46.37,1.37,1.03,1.39.74.02.81-.9,1.2-1.39.41-.51.76-1.66,1.32-1.32.76.46-.27,1.12-.54,1.66-.68,1.34-1.9,2.49-1.39,4.22.09.32.02.83-.49.81-.55-.02-.59-.54-.53-.93.24-1.71-.6-3.05-1.5-4.36-.73-1.07-2.25-1.29-3.3-.56-.27.19-.29.47-.29.76,0,.73,0,1.45,0,2.18h-.02Z"/>
  <path class="cls-1" d="m290.63,74.12c-1.67,0-1.85-.17-1.87-1.78-.02-1.37-.01-2.75-.06-4.12-.03-.82.35-1.23,1.16-1.21,1.3.03,2.67-.13,3.77.79,1.16.96,1.55,2.65,1.01,4.11-.45,1.23-1.79,2.14-3.26,2.21-.24.01-.49,0-.74,0h0Zm-.8-3.59c0,.44.03.89,0,1.33-.09,1.01.32,1.36,1.36,1.28,2.25-.17,3-1.13,2.52-3.38-.28-1.34-1.34-2-2.97-1.82-1.41.16-.77,1.26-.91,1.99-.04.19,0,.4,0,.61h0Z"/>
  <path class="cls-1" d="m123.29,70.63v-1.69c0-1.74.36-2.03,2.24-1.87,1.93.16,2.56.78,2.26,2.33-.14.72-.28,1.33.25,2.03.52.69,0,1.39-.5,1.94-.61.67-2.93,1.05-3.74.69-.46-.2-.51-.6-.52-1.01-.01-.81,0-1.61,0-2.41h0Zm1.97-.29c1,.02,1.95-.65,1.84-1.38-.15-.91-.97-1.02-1.7-1.1-.94-.11-1.06.58-1.07,1.26-.02.63.02,1.26.94,1.22h0Zm.27,2.89c.61-.21,1.71.02,1.71-1.26,0-.67-.41-1-1.04-.84-.72.18-1.93-.42-1.94,1.02,0,.67.26,1.2,1.26,1.09h0Z"/>
  <path class="cls-1" d="m213.35,71.88c.33-.97.14-1.97.18-2.95.02-.36,0-.73.03-1.09.02-.29.12-.57.5-.56.37.02.5.31.47.59-.21,1.85-.13,3.71-.19,5.56,0,.21-.09.42-.32.47-.34.08-.52-.18-.7-.41-.9-1.15-1.79-2.31-2.7-3.46-.19-.24-.3-.67-.72-.51-.32.12-.22.49-.22.76-.01.89,0,1.78-.02,2.67,0,.38.11.96-.44.98-.59.02-.6-.57-.61-1.01-.03-1.62-.03-3.23-.03-4.84,0-.34-.14-.8.34-.93.41-.12.66.19.89.5.86,1.14,1.72,2.26,2.6,3.38.24.31.35.75.91.85h0Z"/>
  <path class="cls-1" d="m233.03,73.57c-.04.39-.25.51-.58.31-.16-.1-.28-.29-.39-.46-.71-1.11-1.84-1.63-3.1-1.46-.57.08-.64.55-.88.91-.27.41-.4,1.3-.95,1.03-.72-.34.01-.97.19-1.44.61-1.58,1.28-3.14,1.92-4.71.13-.31.25-.61.67-.6.35,0,.51.23.62.5.8,1.85,1.6,3.71,2.39,5.57.05.11.07.23.1.34h0Z"/>
  <path class="cls-1" d="m285.62,71.99c.38-1.45.17-2.65.15-3.85,0-.45-.04-.99.62-.95.61.04.45.58.45.95.02,1.65.02,3.31,0,4.97,0,.31.08.71-.32.84-.39.12-.56-.24-.76-.48-1-1.22-2.01-2.45-3.02-3.68-.15-.19-.34-.41-.61-.32-.28.1-.25.39-.24.63.05,1.01.12,2.01.16,3.02.01.35.02.82-.48.84-.5.01-.54-.45-.53-.81.03-1.74-.09-3.47.11-5.21.03-.29.03-.59.4-.66.34-.06.51.19.7.42.57.69,1.14,1.38,1.69,2.08.52.66,1.02,1.35,1.67,2.21h0Z"/>
  <path class="cls-1" d="m314.43,70.37c0-.72-.01-1.45,0-2.18.01-.38-.19-.89.32-1.06.48-.16.71.28.95.6.89,1.16,1.77,2.32,2.68,3.47.21.26.32.78.79.58.33-.14.18-.58.18-.89.02-.97,0-1.94.01-2.9,0-.35-.02-.8.53-.78.53.02.52.43.47.81-.23,1.69-.1,3.38-.16,5.07-.01.32.04.69-.38.79-.34.08-.51-.21-.69-.42-.91-1.14-1.81-2.3-2.72-3.44-.19-.24-.37-.62-.77-.41-.33.16-.16.5-.16.77.01.93.03,1.85.03,2.78,0,.32-.01.73-.43.76-.48.03-.58-.39-.59-.77-.02-.93,0-1.85,0-2.78h-.07,0Z"/>
  <path class="cls-1" d="m324.03,74.09c-1.84.04-2.02-.13-1.78-1.92.17-1.26-.1-2.5-.11-3.75,0-.82.23-1.26,1.17-1.32,1.17-.07,2.32-.11,3.35.48,1.13.64,1.83,2.28,1.59,3.45-.36,1.7-1.56,2.85-3.24,3.06-.32.04-.66,0-.99,0h0Zm-.85-3.45c0,2.65.68,3.22,2.77,2.3,1-.44,1.57-1.85,1.28-3.13-.28-1.19-1.74-2.12-3.05-1.9-1.36.23-.9,1.31-.99,2.13-.02.2,0,.4,0,.61h0Z"/>
  <path class="cls-1" d="m341.47,70.55c0,.77,0,1.54,0,2.3,0,.36.05.83-.34.97-.5.17-.67-.35-.91-.65-.89-1.11-1.78-2.22-2.68-3.33-.17-.21-.29-.56-.65-.42-.28.11-.17.42-.17.65,0,.97-.23,1.92-.04,2.9.07.38.05.93-.49.92-.44,0-.45-.52-.45-.87,0-1.62.02-3.23.05-4.85,0-.31.02-.71.37-.84.44-.16.67.21.89.49.86,1.08,1.7,2.18,2.56,3.26.2.25.4.63.75.54.4-.11.26-.55.26-.84-.03-.89-.13-1.77-.13-2.66,0-.38.02-.94.57-.89.44.04.41.55.42.9.02.81,0,1.62,0,2.42h-.02Z"/>
  <path class="cls-1" d="m121.65,70.39c0,2.12-1.39,3.72-3.23,3.73-2,.01-3.61-1.65-3.58-3.7.03-1.86,1.62-3.42,3.47-3.39,1.82.03,3.34,1.56,3.33,3.36h0Zm-1.06.23c.01-1.83-.67-2.62-2.26-2.63-1.39-.01-2.57,1.1-2.56,2.41,0,1.66,1.01,2.67,2.64,2.67,1.47,0,2.17-.79,2.18-2.45Z"/>
  <path class="cls-1" d="m350.06,70.42v-1.33c0-1.9.08-1.99,1.98-2.06.66-.02,1.32.02,1.97.06.23.02.53.08.52.4,0,.29-.26.43-.5.45-.57.05-1.15.05-1.72.06-.65.01-1.15.18-1.13.95.02.7.28,1.18,1.09,1.17.25,0,.5-.02.74,0,.34.03.85-.14.83.42-.02.44-.47.51-.84.56-.32.04-.66.04-.99.04-.63,0-.88.31-.86.92.01.58.23.93.86.94.62,0,1.24,0,1.85.02.32.01.72,0,.72.46,0,.4-.32.57-.67.58-.95.02-1.89.04-2.83-.03-.68-.05-.97-.57-.99-1.2-.02-.81,0-1.62,0-2.42h-.02Z"/>
  <path class="cls-1" d="m250.99,71.93c.54-1.29.36-2.46.29-3.61-.03-.47-.27-1.1.5-1.09.7,0,.44.66.45,1.05.03,1.57.01,3.15,0,4.73,0,.31.11.71-.26.87-.46.2-.65-.25-.86-.5-.91-1.09-1.79-2.21-2.7-3.3-.23-.27-.46-.74-.84-.61-.49.17-.26.71-.26,1.08,0,.85.07,1.69.09,2.54,0,.35.08.82-.45.82-.4,0-.48-.42-.48-.74.02-1.81.06-3.63.1-5.44,0-.22.11-.4.34-.45.33-.07.54.15.71.38.97,1.25,2.09,2.4,2.91,3.76.08.13.21.24.46.51h0Z"/>
  <path class="cls-1" d="m234.28,70.49c0-.81,0-1.61,0-2.42,0-.36-.02-.72.4-.94.72-.38,3.13.06,3.72.71.69.76.58,1.66-.44,2.78-.45.49-.49.87-.04,1.35.33.36.63.74.92,1.13.19.25.55.56.21.83-.39.32-.67-.11-.88-.37-.46-.57-.87-1.17-1.32-1.74-.28-.36-.62-.76-1.11-.62-.51.15-.23.69-.32,1.06-.15.59.43,1.66-.56,1.67-.81,0-.46-1.03-.52-1.62-.06-.6-.01-1.21-.01-1.81h-.04Zm2.22-2.6c-.77-.13-1.06.19-1.1.84-.06.81.03,1.47,1.05,1.57.88.09,1.39-.43,1.48-1.14.12-.99-.85-1.01-1.42-1.27Z"/>
  <path class="cls-1" d="m240.56,71.73c0-1.09.01-2.17,0-3.26-.01-.81.24-1.29,1.19-1.3.82-.01,1.63-.28,2.45-.11.3.06.76.04.75.47,0,.48-.46.49-.83.51-.49.03-.99-.02-1.48.06-.56.08-1.05.32-1.03.99.02.69.46.99,1.13,1.02.04,0,.08,0,.12,0,.46.11,1.27-.29,1.29.49.02.74-.77.5-1.27.57-.16.02-.33,0-.49.03-.48.06-.73.34-.77.8-.05.52.22.89.73.96.65.09,1.31.06,1.97.1.3.02.59.12.59.48s-.26.52-.56.52c-.99.02-1.97.03-2.96,0-.44-.01-.64-.34-.65-.75-.02-.52,0-1.05,0-1.57h-.17Z"/>
  <path class="cls-1" d="m308.48,70.65c0-.73.06-1.46-.01-2.18-.11-1.09.44-1.46,1.44-1.45.66,0,1.32-.01,1.97.04.33.02.87-.05.83.47-.03.44-.52.44-.89.45-.41.01-.82.01-1.23,0-.75-.01-1,.38-.99,1.07.01.69.28,1.01,1.02,1.07.53.04,1.52-.35,1.47.5-.04.75-.99.49-1.56.44-.66-.06-.92.18-.91.8,0,.58-.04,1.2.81,1.21.57,0,1.15-.03,1.73-.03.29,0,.61.03.65.4.03.33-.2.55-.5.59-1.1.15-2.22.14-3.32.02-.48-.05-.48-.49-.49-.86-.01-.85,0-1.7,0-2.55h0Z"/>
  <path class="cls-1" d="m136.22,74.07c-1.38.04-2.06-.61-2.05-1.95,0-1.29.01-2.59.01-3.88,0-.67.26-1.03,1.01-1.09.9-.07,1.8-.21,2.7,0,.24.06.54.09.5.41-.03.28-.3.39-.55.39-.41,0-.82-.1-1.23-.09-.78,0-1.38.23-1.42,1.15-.04.95.51,1.18,1.33,1.12.24-.02.5,0,.74,0,.22.01.41.11.45.34.04.27-.12.46-.37.56-.36.14-.73.09-1.1.03-.64-.1-1.08.15-1.11.81-.03.64.13,1.26.93,1.33.48.04.98-.09,1.47-.13.34-.02.71,0,.78.41.06.42-.27.56-.62.58-.49.02-.99,0-1.48,0h0Z"/>
  <path class="cls-1" d="m296.6,70.54v-1.21c0-2.29.16-2.45,2.53-2.27.53.04,1.53-.22,1.46.56-.05.66-.96.31-1.5.25-.83-.09-1.35.11-1.42,1.05-.07.99.38,1.29,1.32,1.22.41-.03,1.1-.24,1.14.34.05.73-.71.66-1.21.66-.79.01-1.45.15-1.37,1.11.09,1.03.88,1,1.66.96.52-.02,1.36-.55,1.45.25.1.88-.88.64-1.42.64-2.98.03-2.61.21-2.65-2.47,0-.36,0-.73,0-1.09h.01Z"/>
  <path class="cls-1" d="m329.97,70.62c0-.48-.05-.97.01-1.45.09-.63-.5-1.57.36-1.84,1.11-.34,2.33-.51,3.51-.09.18.06.27.21.24.37-.05.22-.23.35-.44.36-.53.01-1.06-.04-1.59,0-.81.06-1.32.42-1.22,1.31.1.87.68.99,1.42.92.41-.04,1.05-.3,1.12.32.07.67-.61.61-1.09.65-.2.02-.41,0-.62,0-.58,0-.97.24-.97.84,0,.54.27.96.86,1,.65.05,1.31.02,1.97.05.3.01.6.08.64.44.04.35-.2.54-.52.55-1.02.02-2.05.06-3.07,0-.57-.03-.63-.53-.62-1.01.01-.81,0-1.61,0-2.42h0,0Z"/>
  <path class="cls-1" d="m304.26,67.05c1.03.11,2.2.08,2.63,1.42.47,1.45-.28,2.79-1.82,2.89-1.12.07-1.55.42-1.43,1.52.05.41.16,1.04-.45,1.09-.69.05-.65-.61-.65-1.07-.02-1.41,0-2.82-.01-4.23,0-1.56.05-1.61,1.72-1.61h0Zm.34,3.55c.68-.18,1.61-.3,1.61-1.36,0-1.04-.88-1.29-1.72-1.39-.95-.11-1.07.61-1.03,1.28.04.64-.05,1.46,1.14,1.47h0Z"/>
  <path class="cls-1" d="m221.93,70.67c0-.85.01-1.7,0-2.54-.01-.72.35-1.04,1.06-1.01.49.02.99.02,1.48.07,1.16.1,1.99.81,2.03,1.73.06,1.21-.64,2.18-1.77,2.43-.24.05-.49.08-.73.08-.83,0-1.22.37-1.12,1.2.06.51.19,1.27-.48,1.26-.73,0-.44-.81-.47-1.28-.04-.64,0-1.29,0-1.94h0,0Zm.87-1.6c.04.89.11,1.61,1.19,1.53.91-.07,1.4-.44,1.42-1.42.02-1.14-.83-1.19-1.57-1.25-.86-.08-1.09.53-1.04,1.14h0Z"/>
  <path class="cls-1" d="m143.1,73.1c.4-.07.81-.13,1.21-.22.27-.06.62-.28.77.04.18.37-.23.56-.49.74-1.17.83-3.19.51-4.13-.65-1.13-1.39-1.2-3.35-.16-4.74.85-1.15,2.66-1.57,4.27-.99.32.11.68.22.58.64-.1.41-.49.37-.82.34-.24-.02-.49-.08-.73-.14-1-.24-1.93-.11-2.56.73-.66.86-.81,1.85-.34,2.86.46,1,1.26,1.45,2.39,1.4h0Z"/>
  <path class="cls-1" d="m346.56,73.04c.49-.03.98,0,1.45-.22.26-.12.61-.22.77.09.17.35-.23.47-.44.62-1.09.76-2.76.72-3.82-.06-1.21-.89-1.72-2.55-1.24-4.02.64-1.94,2.69-2.93,4.64-2.24.34.12.67.29.6.66-.09.51-.54.39-.9.32-.52-.1-.99-.37-1.56-.27-1.48.26-2.01,1.18-1.84,3.28.11,1.37.73,1.86,2.33,1.84h0Z"/>
  <path class="cls-1" d="m257.24,73.05c.33-.03.65-.07.98-.1.37-.03.9-.42,1.04.14.1.43-.49.58-.86.74-1.26.54-2.72.24-3.64-.71-.93-.96-1.15-2.93-.49-4.34.56-1.18,1.7-1.84,3.11-1.76.37.02.73.11,1.1.16.38.06.8.13.64.65-.14.47-.56.47-.91.3-1.09-.53-2.05-.22-2.82.54-.84.83-.76,1.9-.43,2.96.35,1.12,1.14,1.52,2.27,1.42h0Z"/>
  <path class="cls-1" d="m219.18,68.01c-.58,0-.83-.03-1.07,0-.46.06-.97.14-1.1.63-.12.46.32.73.65.94.48.3,1.04.48,1.53.77.7.41,1.24.96,1.13,1.86-.13.97-.8,1.47-1.67,1.74-.89.28-1.71.12-2.41-.51-.1-.09-.2-.29-.17-.41.07-.24.32-.19.52-.17.49.06.98.16,1.47.17.58.01,1.21-.02,1.35-.76.12-.64-.33-.94-.84-1.19-.48-.23-.96-.46-1.43-.71-.81-.43-1.02-1.13-.83-1.96.2-.87.83-1.27,1.69-1.33.28-.02.57.03.86.08.45.08,1.21-.11,1.17.55-.04.76-.76.29-.85.3h0Z"/>
  <path class="cls-1" d="m194.64,67.11c-.55.84-1.15.87-1.71.9-.73.04-.97.33-.91,1.08.1,1.32.08,2.66.09,3.99,0,.43.02,1-.64.95-.62-.04-.61-.56-.55-1.02.16-1.13.06-2.25-.02-3.38-.06-.91-.06-1.73-1.33-1.67-.24.01-.5-.13-.54-.41-.05-.33.25-.42.48-.43,1.65-.02,3.3-.01,5.14-.01h0Z"/>
  <path class="cls-1" d="m161.18,67.65c-.21.48-.45,1-.67,1.52-.57,1.38-1.09,2.78-1.73,4.13-.43.91-.92.92-1.33.01-.8-1.76-1.48-3.57-2.2-5.37-.1-.25-.2-.6.18-.72.42-.12.68.08.82.5.41,1.22.84,2.44,1.3,3.64.12.32.22.78.68.75.38-.03.41-.46.52-.75.47-1.2.92-2.41,1.39-3.61.12-.32.31-.58.7-.57.28,0,.29.22.33.47h0Z"/>
  <path class="cls-1" d="m145.95,67.08c1.67,0,3.16-.02,4.66.01.28,0,.74.03.69.49-.04.34-.38.43-.67.4-1.21-.14-1.32.56-1.28,1.49.05,1.17.03,2.33,0,3.5,0,.4.16,1.01-.51,1.03-.65.02-.6-.56-.6-.99-.02-1.17-.05-2.34,0-3.5.04-.95-.15-1.58-1.3-1.55-.31,0-.65-.11-.99-.89h0Z"/>
  <path class="cls-1" d="m265.93,67.46c-.16.26-.28.51-.44.74-1.1,1.51-2.31,2.98-1.76,5.05.08.32-.07.67-.48.73-.49.07-.72-.32-.68-.67.29-2.12-.96-3.67-1.95-5.33-.14-.23-.41-.51-.08-.74.3-.2.52.08.72.29.54.57.83,1.29,1.21,1.95.41.69.84.73,1.23-.02.4-.76.8-1.5,1.46-2.08.16-.14.33-.27.55-.2.09.03.13.16.22.27h0Z"/>
  <path class="cls-1" d="m153.77,71.02c.04.55.1,1.35.14,2.16.02.44-.13.82-.65.86-.53.04-.76-.29-.76-.74,0-1.81-.12-3.63.13-5.44.05-.39.14-.76.63-.72.41.03.5.39.5.72.02.97,0,1.94,0,3.16h0Z"/>
  <path class="cls-1" d="m163.67,70.64c0,.81.01,1.62,0,2.42,0,.46-.04.97-.67.95-.55-.01-.61-.48-.61-.89,0-1.7,0-3.39.03-5.09,0-.42.06-.88.6-.9.64-.02.64.51.65.96,0,.85,0,1.7,0,2.55h0Z"/>
  <path class="cls-1" d="m131.24,69.93c0-.73-.02-1.45,0-2.18.01-.36.21-.61.64-.58.4.03.64.27.59.63-.27,1.59.04,3.24-.49,4.8-.33.99-1.01,1.55-2.12,1.5-.32-.01-.57-.16-.62-.48-.05-.29.15-.51.41-.49,1.76.08,1.55-1.14,1.57-2.23,0-.32,0-.65,0-.97h.02Z"/>
  <path class="cls-1" d="m279.16,70.65c0,.88.01,1.77,0,2.65,0,.38-.12.76-.61.73-.46-.02-.64-.39-.58-.77.27-1.73-.13-3.45-.07-5.17.02-.45,0-.97.65-.95.62.01.63.54.64.98.01.84,0,1.69,0,2.53h-.02Z"/>
</svg>