<?xml version="1.0" encoding="UTF-8"?>
<svg id="Layer_1" data-name="Layer 1" xmlns="http://www.w3.org/2000/svg" viewBox="0 0 389 101">
  <defs>
    <style>
      .cls-1 {
        fill: #cfcfcf;
      }
    </style>
  </defs>
  <g>
    <path class="cls-1" d="m34.19,56.61c0-2.28-.08-4.57.02-6.85.17-4.05.03-8.1.12-12.14.03-1.55.46-2.96,1.43-4.22.48-.62,1.09-1.07,1.74-1.46,1.56-.93,3.14-1.84,4.8-2.59,1.45-.66,2.97-.67,4.52-.46,4.64.64,9.28,1.33,13.91,2.05.5.08,1,.1,1.51.02.17-.02.35-.07.4-.26.05-.19-.11-.3-.24-.4-.64-.46-1.33-.85-2.05-1.19-2.28-1.07-4.38-2.45-6.67-3.51-.58-.27-1.11-.66-1.66-1-.2-.12-.52-.16-.53-.42,0-.3.34-.36.56-.48.68-.39,1.38-.77,2.07-1.15,2.52-1.37,5.04-2.75,7.57-4.12.76-.41,1.54-.77,2.36-1.05.97-.32,1.93-.32,2.91-.05.96.27,1.83.72,2.69,1.19,5.79,3.18,11.58,6.36,17.36,9.54,2.06,1.13,4.1,2.28,6.18,3.37,2.6,1.37,3.78,3.53,3.8,6.34.01,1.48.08,2.96-.23,4.43-.24,1.15-.69,2.2-1.41,3.14-.8,1.03-1.66,2.02-2.44,3.06-1.45,1.94-2.84,3.91-4.45,5.73-.83.94-1.68,1.87-2.51,2.82-.16.19-.46.38-.24.66.22.29.53.13.79.01,1.67-.74,3.21-1.7,4.74-2.68,1.55-1,3.21-1.8,4.84-2.67.84-.45,1.16-.27,1.18.65.03,2.02.05,4.05-.06,6.07-.08,1.36-.04,2.73-.05,4.09,0,.57-.04,1.13-.13,1.69-.3,2-1.3,3.55-3.01,4.69-1.5.99-3.1,1.81-4.67,2.67-3.21,1.76-6.41,3.53-9.64,5.27-2,1.08-4,2.17-6.06,3.13-1.28.6-2.56,1.19-3.76,1.95-.73.46-1.54.78-2.36,1.05-1.49.48-2.93.37-4.34-.31-1.73-.83-3.38-1.8-5.02-2.78-1.36-.82-2.12-2.11-2.69-3.5-.6-1.47-1.29-2.89-1.97-4.32-1.21-2.54-2.26-5.14-3.18-7.8-.19-.56-.45-1.09-.76-1.6-.09-.14-.2-.29-.39-.26-.26.04-.25.26-.25.44-.03,1.85-.23,3.71-.05,5.57.11,1.17.05,2.35.06,3.53,0,.84.19,1.69,0,2.53-.02.07,0,.14-.02.21-.1.71-.22.74-.81.36-.68-.45-1.37-.88-2.08-1.27-2.01-1.11-3.96-2.32-5.93-3.5-.76-.46-1.53-.88-2.31-1.3-1.24-.67-2.15-1.65-2.85-2.83-.54-.92-.72-1.95-.73-2.99-.02-2.38,0-4.76,0-7.13h.01Zm15.45-6.04h0c0,1.77-.03,3.53,0,5.29.03,1.83.85,3.31,2.26,4.46.66.54,1.42.97,2.14,1.43,2.43,1.53,5.07,2.7,7.56,4.12.44.25.89.46,1.35.66.82.35,1.66.59,2.57.63,1.25.05,2.38-.31,3.45-.87,2.24-1.2,4.45-2.43,6.68-3.65.96-.53,1.93-1.06,2.88-1.61,2.2-1.27,3.25-3.2,3.28-5.67.01-.96,0-1.93,0-2.9,0-2.42.06-4.85-.04-7.27-.08-1.84-.73-3.52-2.24-4.73-.81-.66-1.73-1.19-2.65-1.7-1.84-1.02-3.7-2.01-5.53-3.04-2.03-1.14-4.1-2.1-6.54-1.77-.05,0-.1,0-.14,0-.66.02-1.29.16-1.89.42-.55.24-1.09.51-1.6.8-2.19,1.27-4.51,2.32-6.63,3.72-1.08.71-2.24,1.3-3.13,2.25-1.13,1.22-1.85,2.61-1.81,4.33.04,1.69,0,3.39,0,5.08h0Z"/>
    <path class="cls-1" d="m190.53,67.58c-4.26,0-8.52.01-12.77,0-2.08,0-3.84-.79-5.25-2.28-1.1-1.16-1.5-2.6-1.62-4.14-.03-.4-.03-.8-.03-1.2v-19c0-1.33.12-2.63.71-3.86.76-1.58,2.01-2.62,3.67-3.2,1.16-.41,2.38-.56,3.62-.55,5.82,0,11.64,0,17.46,0,2.21,0,4.43,0,6.64,0,.84,0,1.68.06,2.51.24,3.22.71,5.3,3.2,5.31,6.42.02,5.25,0,10.5,0,15.75,0,1.79.16,3.57.1,5.36-.08,2.4-1.15,4.23-3.26,5.47-.86.5-1.82.73-2.8.85-.81.1-1.63.12-2.45.12-3.94,0-7.89,0-11.84,0h0Zm.3-28.12h-12.41c-1.1,0-1.24.14-1.28,1.21,0,.09,0,.19,0,.28,0,6.52,0,13.03,0,19.55,0,.9.18,1.07,1.08,1.1.22,0,.43,0,.65,0,1.61,0,3.22-.12,4.83-.11,6.28.02,12.55.01,18.83.01.36,0,.72,0,1.08-.02.65-.05.83-.23.89-.88.03-.3.03-.61.03-.92,0-6.16,0-12.33-.01-18.49,0-.31,0-.61-.03-.92-.06-.57-.24-.74-.81-.79-.29-.02-.58-.02-.86-.02h-11.97Z"/>
    <path class="cls-1" d="m285.94,33.37h11.84c.79,0,1.59-.02,2.37.13,2.43.47,4.34,1.6,5.35,3.93.43,1,.5,2.05.5,3.11,0,5.32,0,10.64,0,15.96,0,1.46,0,2.92.06,4.38.16,3.16-2.49,6.25-6.15,6.59-.89.08-1.77.11-2.67.11-7.92,0-15.83,0-23.75,0-.97,0-1.93-.11-2.85-.4-2.55-.79-4.07-2.5-4.53-5.07-.19-1.05-.15-2.11-.05-3.17.03-.31.05-.61.05-.92,0-5.37,0-10.74,0-16.1,0-.4-.03-.8-.07-1.2-.29-3.57,1.87-6.58,5.52-7.23.64-.11,1.29-.14,1.94-.14h12.41s0,0,0,0Zm.03,28.14c4.13,0,8.27,0,12.41,0,1.33,0,1.42-.1,1.42-1.42v-17.65c0-.71,0-1.41-.02-2.12-.02-.55-.15-.72-.71-.79-.43-.06-.86-.06-1.3-.06-2.31,0-4.62,0-6.93,0h-16.37c-.5,0-1.01,0-1.51.05-.48.04-.62.21-.67.67-.01.14,0,.28,0,.42,0,6.49,0,12.99,0,19.48,0,1.32.11,1.41,1.43,1.41,4.09,0,8.18,0,12.26,0h0Z"/>
    <path class="cls-1" d="m338.11,50.51v9.68c0,.19,0,.38,0,.56.02.63.11.71.77.75.22.01.43,0,.65,0,4.64,0,9.29,0,13.93,0,1.26,0,1.35.09,1.37,1.32.01,1.13.01,2.26,0,3.39,0,.21-.01.42-.06.63-.1.47-.29.63-.77.71-.12.02-.24.03-.36.03-1.8-.02-3.61.07-5.41-.08-.45-.04-.91-.03-1.37-.03-8.3,0-16.6-.02-24.9.01-1.92,0-3.84.11-5.77.1-1.62,0-1.69-.05-1.69-1.59,0-1.04,0-2.07,0-3.11,0-.24,0-.47.03-.71.06-.56.21-.69.78-.69.29,0,.58.02.87.02,4.43,0,8.85,0,13.28,0,.53,0,1.06,0,1.58-.05.58-.05.74-.24.77-.82.02-.28.02-.56.02-.85-.01-4.66,0-9.32-.05-13.98-.02-1.79-.05-3.58-.07-5.36,0-.7-.16-.86-.89-.92-.34-.03-.67-.02-1.01-.02-4.67,0-9.34,0-14-.01-1.23,0-1.31-.09-1.31-1.29s0-2.31,0-3.46c0-.21,0-.42.03-.63.08-.52.29-.69.83-.68.48,0,.96.06,1.44.06,11.52,0,23.05,0,34.57,0,.87,0,1.73,0,2.6,0,.52,0,.63.08.76.56,0,.02.01.04.01.07.13,1.55.12,3.1.05,4.65-.02.47-.27.63-.77.69-.22.02-.43.02-.65.02-4.74,0-9.48.01-14.22.02-1.05,0-1.05,0-1.05,1.05v9.96h0Z"/>
    <path class="cls-1" d="m131.37,53.67v13.2c0,.21,0,.42,0,.64-.03.54-.09.63-.63.63-1.95.01-3.9.01-5.84,0-.52,0-.6-.12-.63-.65-.01-.19,0-.38,0-.56v-26.05c0-.77.4-1.16,1.19-1.16h4.19c.19,0,.38,0,.58-.02.45-.06.62-.25.48-.68-.3-.97-.25-1.95-.25-2.94,0-.49-.05-.99-.1-1.48-.09-.81.2-1.14,1.02-1.2.19-.02.39-.01.58-.01,7.48,0,14.96,0,22.44,0,1.64,0,3.21.23,4.67.99,2.12,1.11,3.2,2.91,3.63,5.15.12.6.14,1.21.05,1.83-.06.42-.04.85-.04,1.27,0,6.71,0,13.41,0,20.12,0,1.13.07,2.26.09,3.38,0,.28,0,.57-.06.84-.09.52-.21.63-.77.64-.77.01-1.54,0-2.31,0s-1.59,0-2.38,0c-.65-.01-.78-.15-.83-.8-.01-.14,0-.28,0-.42,0-8.59-.01-17.18-.02-25.77,0-.14.01-.28,0-.42-.03-.42-.17-.6-.61-.65-.4-.05-.82-.06-1.22-.06-6.23,0-12.46-.01-18.69,0-1.06,0-2.11-.19-3.17-.11-.14.01-.29,0-.43.01-.94.05-.93.05-.93.95,0,4.45,0,8.9,0,13.35h0Z"/>
    <path class="cls-1" d="m241.49,38.76c-.15-1.36-.05-2.72-.14-4.08-.06-1.07.21-1.3,1.27-1.3,2.31,0,4.62,0,6.93.01,1.73.01,3.4.28,4.89,1.23,2.07,1.32,3.12,3.25,3.24,5.61.1,2.02.02,4.05.02,6.07,0,4.56.02,9.13,0,13.7-.01,2,.13,4,.11,6,0,.33,0,.66-.09.98-.12.44-.3.61-.75.62-1.66.02-3.32.02-4.98,0-.51,0-.63-.14-.67-.64-.02-.26-.01-.52-.01-.78v-25.55c0-1.23-.01-1.13-1.14-1.13-2.26-.01-4.52-.01-6.78-.03-.6,0-1.21.02-1.74-.31-.01-.14-.06-.28-.15-.39h0Z"/>
    <path class="cls-1" d="m241.49,38.76c.09.12.13.25.15.39-.11.22-.1.46-.1.69,0,7.67,0,15.34.01,23.01,0,.96.11,1.93.08,2.89-.01.35-.03.71-.08,1.05-.1.64-.28.79-.96.79-1.13,0-2.26,0-3.39,0-.46,0-.91.02-1.37,0-.52-.02-.63-.13-.67-.63-.02-.26-.01-.52-.01-.78v-25.48c0-1.35.03-1.21-1.27-1.23-1.3-.02-2.6-.02-3.9-.01-1.2.01-2.4-.16-3.6-.03-.68.07-.76-.05-.87-.74-.1-.68-.06-1.36-.07-2.04,0-.75-.01-1.51,0-2.26.02-.82.21-1.01,1.02-1.01,2.33,0,4.66-.03,7,0,1.4.02,2.77.19,4.06.82,1.62.79,2.78,1.98,3.51,3.59.14.32.22.68.46.95h0Z"/>
    <path class="cls-1" d="m226.08,53.91v13.2c0,1.02,0,1.03-1.04,1.03h-4.98c-1.08,0-1.1-.03-1.11-1.05v-26.27c0-.74.39-1.11,1.16-1.12h4.19c.39,0,.77-.01,1.15-.06.43-.05.56.08.61.5.03.23.01.47.01.71v13.06h0Z"/>
  </g>
  <path class="cls-1" d="m177.31,28.18c.01-.66.21-.91.71-.92.28,0,.45.11.46.41.01.24-.04.47-.11.69-.13.39-.33.55-.65.52-.31-.03-.42-.22-.41-.69h0Z"/>
</svg>