<?xml version="1.0" encoding="UTF-8"?>
<svg id="Layer_1" data-name="Layer 1" xmlns="http://www.w3.org/2000/svg" viewBox="0 0 389 101">
  <defs>
    <style>
      .cls-1 {
        fill: #fefeff;
      }

      .cls-2 {
        fill: #cfcfcf;
      }

      .cls-3 {
        fill: #9b9b9b;
      }

      .cls-4 {
        fill: #4d4d4d;
      }
    </style>
  </defs>
  <path class="cls-4" d="m86.53,36.19c.25.44.4.91.53,1.4.17.58.26,1.17.39,1.75.21.91.39,1.83.59,2.75.24,1.12.48,2.25.72,3.37.28,1.34.57,2.68.85,4.01.18.83.35,1.66.53,2.49.2.92.4,1.85.59,2.78.14.67.26,1.35.4,2.03.13.62.18,1.24.04,1.86-.32,1.5-1.06,2.75-2.13,3.86-1.09,1.13-2.35,2.05-3.56,3.05-.81.67-1.63,1.34-2.46,2-2.53,1.99-5.02,4.02-7.53,6.03-2.74,2.18-5.5,4.34-8.29,6.46-1.14.87-2.3,1.71-3.51,2.47-1.24.78-2.55,1.4-3.9,1.94-.93.37-1.9.66-2.89.73-1.27.09-2.54.12-3.81-.19-1.65-.39-3.13-1.11-4.46-2.14-1.65-1.27-3.3-2.54-4.96-3.81-1.86-1.42-3.73-2.84-5.59-4.26-1.57-1.21-3.13-2.43-4.71-3.63-.83-.64-1.69-1.25-2.53-1.88-.7-.54-1.38-1.1-2.08-1.65-.7-.54-1.41-1.07-2.11-1.61-.45-.34-.88-.71-1.35-1.04-.68-.47-1.32-.99-1.96-1.51-1.1-.87-2.01-1.9-2.61-3.19-.41-.88-.6-1.79-.49-2.74.06-.56.21-1.11.32-1.66.15-.79.28-1.58.47-2.36.12-.52.2-1.04.32-1.56.17-.77.29-1.56.47-2.33.14-.6.22-1.22.37-1.82.17-.67.27-1.36.41-2.04.21-1.03.42-2.07.62-3.1.21-1.07.4-2.15.63-3.22.22-.98.34-2,.84-2.89.02.44-.07.9.05,1.33.2.73.45,1.43.94,2.03.6.73,1.27,1.4,2.03,1.96.38.28.81.52,1.17.82.54.46,1.13.84,1.69,1.28.36.29.81.5,1.12.8.44.41.94.72,1.41,1.06.64.47,1.22,1,1.89,1.43.47.3.92.63,1.35,1,.55.49,1.24.81,1.79,1.29.66.57,1.43,1,2.1,1.56.42.35.88.64,1.32.97,1.76,1.31,3.51,2.63,5.28,3.92,1.41,1.03,2.82,2.06,4.21,3.11,1.05.79,2.23,1.29,3.54,1.42,1.51.16,2.95-.19,4.32-.82,1.25-.58,2.39-1.34,3.52-2.11,1.25-.84,2.48-1.72,3.7-2.6,1.19-.85,2.37-1.71,3.53-2.6,1.09-.83,2.23-1.61,3.33-2.42.85-.62,1.66-1.28,2.51-1.91.9-.67,1.79-1.34,2.67-2.03,1.07-.83,2.14-1.66,3.18-2.52,1.26-1.03,2.58-1.99,3.6-3.28.6-.76,1.15-1.53,1.42-2.46.1-.33.24-.66.11-1.01-.06-.18-.05-.36,0-.54h0Z"/>
  <path class="cls-3" d="m86.53,36.19c-.06.18-.07.35,0,.54.13.35-.02.69-.11,1.01-.28.93-.83,1.71-1.42,2.46-1.02,1.29-2.34,2.25-3.6,3.28-1.05.86-2.12,1.69-3.18,2.52-.88.69-1.77,1.36-2.67,2.03-.84.63-1.66,1.28-2.51,1.91-1.1.82-2.23,1.6-3.33,2.42-1.16.88-2.35,1.74-3.53,2.6-1.23.88-2.45,1.76-3.7,2.6-1.14.77-2.27,1.53-3.52,2.11-1.37.63-2.81.97-4.32.82-1.31-.13-2.49-.64-3.54-1.42-1.4-1.04-2.8-2.08-4.21-3.11-1.77-1.29-3.52-2.61-5.28-3.92-.44-.32-.9-.62-1.32-.97-.67-.56-1.44-.99-2.1-1.56-.56-.48-1.24-.8-1.79-1.29-.42-.37-.87-.7-1.35-1-.67-.42-1.26-.96-1.89-1.43-.47-.35-.97-.66-1.41-1.06-.32-.29-.77-.51-1.12-.8-.55-.44-1.14-.82-1.69-1.28-.36-.3-.79-.53-1.17-.82-.76-.57-1.42-1.23-2.03-1.96-.49-.6-.75-1.3-.94-2.03-.12-.43-.03-.88-.05-1.33.1-.38.32-.69.56-.99.8-.96,1.83-1.6,2.91-2.21.53-.3,1.04-.69,1.57-1.02,2.22-1.42,4.41-2.87,6.56-4.38.99-.7,2.01-1.35,2.99-2.07,1.45-1.06,2.93-2.06,4.38-3.11,1.52-1.1,3.01-2.22,4.52-3.34.7-.52,1.38-1.06,2.09-1.57,1.11-.79,2.22-1.59,3.61-1.87,1.26-.25,2.5-.28,3.74.1,1.12.34,2.05,1.04,3.02,1.65.66.42,1.29.9,1.95,1.33,2.25,1.51,4.48,3.06,6.72,4.59,2.91,2,5.84,3.99,8.76,5.99,2.14,1.47,4.26,2.95,6.38,4.45.71.5,1.4,1.02,1.86,1.77.07.11.13.22.19.34h0Zm-34.82-2.5c.58-.3,1.22-.32,1.83-.33.56,0,1.12.12,1.64.37.31.14.64.13.92-.12.13-.11.27-.21.4-.32.77-.67,1.68-1.16,2.45-1.83.23-.2.29-.44.13-.68-.11-.16-.26-.26-.43-.35-1.21-.64-2.54-.83-3.88-.86-.78-.02-1.58.12-2.36.29-1.22.27-2.37.73-3.48,1.27-.19.09-.39.12-.58-.02-.41-.29-.81-.6-1.22-.89-.24-.17-.52-.23-.78-.05-.48.32-.96.65-1.42.99-.4.29-.41.66-.03.98.28.24.57.48.87.69.24.17.27.32.05.51-.07.06-.14.14-.21.21-.78.74-1.42,1.58-1.88,2.56-.72,1.54-.46,3.33.69,4.45,1.22,1.18,2.72,1.68,4.37,1.8.5.04.99-.12,1.47-.21.85-.16,1.69-.41,2.5-.73.85-.34,1.69-.68,2.51-1.07.22-.1.44-.22.69-.03.37.28.72.58,1.09.84.78.56,1.53,1.16,2.29,1.75.17.13.23.23-.02.37-.84.44-1.71.44-2.6.23-.69-.17-1.34-.46-1.92-.88-.27-.2-.54-.2-.81,0-1.08.82-2.15,1.64-3.23,2.45-.48.36-.45.83.06,1.18,1.2.82,2.51,1.34,3.95,1.59.44.08.89.15,1.32.15.49,0,1.01-.06,1.52-.13,1.75-.23,3.36-.84,4.88-1.72.36-.21.55-.17.91.12.43.35.89.67,1.34.99.27.19.56.15.81-.04.52-.39,1.02-.78,1.52-1.19.38-.31.36-.75-.03-1.04-.44-.34-.89-.67-1.33-1.01-.16-.12-.19-.22-.04-.4.19-.23.45-.39.6-.64.28-.46.69-.81.9-1.34.28-.73.74-1.4.75-2.21,0-.55.03-1.1-.14-1.64-.37-1.19-1.21-1.98-2.21-2.64-.61-.4-1.28-.65-1.99-.84-.59-.16-1.19-.29-1.8-.28-1.26.02-2.47.34-3.65.74-1.03.35-1.99.83-2.98,1.28-.26.12-.51.1-.66-.08-.21-.25-.5-.38-.74-.59-.56-.49-1.17-.91-1.77-1.36-.1-.08-.22-.14-.28-.29h0Z"/>
  <path class="cls-1" d="m51.71,33.69c.06.14.18.21.28.29.59.45,1.21.87,1.77,1.36.24.21.53.34.74.59.15.18.4.19.66.08.99-.44,1.95-.93,2.98-1.28,1.18-.4,2.39-.72,3.65-.74.61,0,1.21.12,1.8.28.7.19,1.38.44,1.99.84,1,.66,1.85,1.45,2.21,2.64.16.54.15,1.09.14,1.64-.02.81-.47,1.48-.75,2.21-.21.53-.62.88-.9,1.34-.15.25-.41.41-.6.64-.15.18-.11.28.04.4.44.34.89.67,1.33,1.01.39.3.41.73.03,1.04-.5.41-1,.8-1.52,1.19-.25.18-.54.23-.81.04-.45-.32-.9-.65-1.34-.99-.36-.28-.55-.33-.91-.12-1.51.89-3.12,1.5-4.88,1.72-.5.06-1.02.13-1.52.13-.42,0-.88-.07-1.32-.15-1.43-.25-2.74-.77-3.95-1.59-.52-.35-.55-.82-.06-1.18,1.08-.81,2.15-1.63,3.23-2.45.27-.2.55-.2.81,0,.58.43,1.23.71,1.92.88.88.22,1.76.21,2.6-.23.25-.13.19-.23.02-.37-.76-.58-1.51-1.19-2.29-1.75-.38-.27-.73-.57-1.09-.84-.26-.19-.48-.07-.69.03-.82.39-1.67.73-2.51,1.07-.81.32-1.65.57-2.5.73-.48.09-.97.24-1.47.21-1.66-.12-3.16-.62-4.37-1.8-1.16-1.12-1.41-2.91-.69-4.45.46-.98,1.11-1.81,1.88-2.56.07-.07.13-.15.21-.21.22-.2.19-.35-.05-.51-.3-.21-.59-.45-.87-.69-.38-.32-.37-.69.03-.98.47-.34.94-.67,1.42-.99.27-.18.54-.13.78.05.41.29.81.59,1.22.89.19.13.39.11.58.02,1.12-.54,2.27-1,3.49-1.27.78-.17,1.58-.31,2.36-.29,1.33.03,2.66.22,3.88.86.17.09.32.19.43.35.17.24.1.48-.13.68-.77.67-1.68,1.16-2.45,1.83-.13.11-.27.21-.4.32-.28.25-.61.26-.92.12-.53-.25-1.08-.38-1.64-.37-.61,0-1.26.03-1.83.33h0Zm10.95,6.27c0-.67-.75-1.46-1.44-1.52-.74-.07-1.46.05-2.16.31-.12.04-.3.06-.31.2,0,.13.14.21.24.29.9.69,1.8,1.38,2.69,2.08.18.14.31.12.43-.02.32-.39.53-.82.54-1.33h0Zm-12.22-2.16c.38,0,.83-.09,1.24-.3.18-.09.24-.2.06-.34-.76-.58-1.53-1.16-2.3-1.73-.08-.06-.17-.13-.29-.05-.51.38-.62,1.36-.19,1.82.37.41.84.62,1.48.59h0Z"/>
  <path class="cls-3" d="m62.66,39.96c0,.51-.22.95-.54,1.33-.12.14-.25.17-.43.02-.89-.7-1.79-1.39-2.69-2.08-.1-.08-.25-.16-.24-.29,0-.14.19-.16.31-.2.69-.26,1.41-.38,2.16-.31.69.07,1.43.85,1.44,1.52h0Z"/>
  <path class="cls-3" d="m50.44,37.8c-.64.02-1.11-.19-1.48-.59-.42-.47-.31-1.44.19-1.82.12-.09.21-.02.29.05.77.58,1.53,1.15,2.3,1.73.18.14.12.25-.06.34-.42.2-.86.3-1.24.3h0Z"/>
  <path class="cls-2" d="m187.51,44.09c0-5.19.05-9.81-.03-14.42-.03-1.51.24-2.14,1.98-2.1,4.58.1,4.56,0,4.55,4.57-.01,10.99-.04,21.99.04,32.98.01,1.58-.29,2.34-1.98,2.03-.14-.03-.29,0-.43,0-2.53,0-3.97-1.3-4.35-3.89-1.67,2.82-4.28,3.86-7.08,4.52-2.9.68-5.61-.17-8.11-1.48-3.66-1.91-5.14-5.4-5.86-9.19-1.17-6.18.59-11.48,5.8-15.13,3.34-2.34,9.85-2.57,13.6.51.49.4.96.81,1.87,1.6h0Zm-7.83,17.84c5.05.02,7.44-3.16,7.65-7.86.21-4.68-3.17-8.23-7.52-8.23-4.21,0-7.52,3.41-7.4,7.85.14,5,2.7,8.29,7.26,8.23h0Z"/>
  <path class="cls-2" d="m254.61,41.15c0,3.47.1,6.94-.04,10.41-.07,1.67.28,2.35,2.09,2.19.87-.08,2.38-.7,2.63.56.33,1.65.16,3.45-.08,5.14-.08.58-1.16.26-1.79.28-3.23.08-2.8-.44-2.81,2.71-.01,5.22-.11,5.3-5.45,4.71-.88-.1-1.09-.41-1.07-1.2.04-1.15,0-2.31,0-3.47-.01-3.06.44-2.7-2.82-2.72-5.07-.03-10.15-.04-15.22.02-1.27.02-1.66-.31-1.8-1.66-.34-3.34,1.24-5.77,3.06-8.31,4.66-6.51,9.17-13.12,13.67-19.75.75-1.11,1.52-1.68,2.9-1.58,1.52.11,3.05.11,4.56,0,1.58-.12,2.3.21,2.2,2.06-.18,3.53-.05,7.08-.05,10.62h0Zm-6.52-4.45c-.17-.07-.35-.14-.51-.21-3.84,5.62-7.68,11.24-11.74,17.18,4,0,7.6-.01,11.19,0,.89,0,1.08-.43,1.07-1.21-.02-5.26,0-10.52,0-15.78h0Z"/>
  <path class="cls-2" d="m362.74,63.84c-3.75,3.68-7.68,4.95-12.6,3.43-4.87-1.5-7.06-8.11-3.69-12.28,2.06-2.55,4.9-2.99,7.79-3.46,1.93-.31,3.88-.47,5.8-.82.75-.13,1.95.51,2.18-.77.24-1.39.05-2.83-1.28-3.67-2.57-1.61-8.88-1.65-10,2.54-.21.78-3.62,1.43-4.64.76-1.2-.79-.72-2-.25-3.04,2.08-4.56,6.01-6.11,10.66-6.25,4.01-.13,7.8.58,10.2,4.28,1.04,1.6,1.89,3.28,1.85,5.34-.1,5.06-.1,10.13,0,15.2.03,1.56-.31,2.05-2,2.13-2.46.11-4.28-.13-4.03-3.38h0Zm-.39-6.64c.41-1.49-.05-2.16-1.85-1.86-1.71.29-3.45.35-5.18.49-2.03.17-3.88,1.82-3.94,3.53-.06,1.77,1.67,3.53,3.75,3.83,3.54.51,6.82-2.16,7.21-6h0Z"/>
  <path class="cls-2" d="m309.42,58.86c-2.23,9.72-15.26,11.08-21.1,6.21-7.07-5.89-6.78-18.42,1.53-23.21,5.68-3.27,14.78-2.17,18.07,5.16.97,2.15,1.77,4.53,1.61,7.08-.08,1.19-.29,1.55-1.57,1.54-5.58-.03-11.17.13-16.75.11-1.64,0-2.04.39-1.41,1.98,1.06,2.67,2.72,4.57,5.74,4.7,2.89.13,5.88.26,7.46-2.95.34-.69.89-.63,1.46-.63,1.59,0,3.18,0,4.95,0h0Zm-13.36-7.35c1.88,0,3.76-.03,5.64.01,1.07.02,1.54-.38,1.11-1.4-.35-.84-.48-1.77-1.13-2.48-2.26-2.5-5.18-2.18-7.98-1.66-2.4.45-3.12,2.74-3.99,4.68-.45,1,.42.84.93.84,1.81.02,3.62,0,5.43,0Z"/>
  <path class="cls-2" d="m215.13,55.78c-2.76,0-5.52.05-8.27-.02-1.54-.04-1.75.79-1.36,1.92.93,2.72,2.71,4.57,5.73,4.79,2.96.22,5.83,0,7.58-2.89.32-.53.56-.73,1.11-.72.58.02,1.17-.06,1.74.02,1.09.14,2.74-.59,3.14.46.42,1.1-.61,2.46-1.38,3.47-3.35,4.36-8.01,5.62-13.21,4.94-6.54-.84-11.17-6.45-10.97-13.45.19-6.81,2.63-11.35,8.24-13.22,6.37-2.13,13.24-.46,16.36,6.29,1.02,2.2,1.37,4.65,1.18,7.16-.09,1.25-.82,1.14-1.62,1.14-2.76,0-5.51,0-8.27,0v.1h0Zm-2.99-4.28v.02c1.58,0,3.18-.08,4.76.02,1.55.11,1.99-.25,1.53-1.89-.81-2.86-3.5-4.16-6.71-4-3.41.17-5.73,1.99-6.25,4.77-.17.93.25,1.1,1.05,1.09,1.88-.03,3.75,0,5.63,0h0Z"/>
  <path class="cls-2" d="m134.26,53.96c-.21-7.99,5.83-13.61,13.97-13.64,8.3-.04,14.17,5.6,14.07,14-.1,8.05-5.83,13.44-14.08,13.55-7.47.09-14.12-5.11-13.96-13.91Zm6.64-.02c-.61,4.76,3.13,8.48,8.24,8.07,3.13-.25,6.75-3,6.6-7.99-.18-5.58-3.19-8.03-7.6-8.05-3.57-.02-7.78,2.38-7.23,7.97h0Z"/>
  <path class="cls-2" d="m321.25,43.9c1.93-1.67,3.95-3.14,6.75-3.49,6.49-.81,11.3,2.72,11.52,9.26.18,5.2-.03,10.42.07,15.63.03,1.58-.48,1.91-1.96,1.88-4.28-.07-4.28,0-4.27-4.35,0-3.18.06-6.37-.03-9.55-.12-4.25-1.28-6.07-4.3-7.07-2.98-.99-6.35.87-7.42,3.82-1.08,2.98-.44,6.02-.63,9.02-.08,1.3-.02,2.6-.02,3.91,0,4.35-.86,5-5.27,4.2-.95-.17-.94-.72-.94-1.37,0-7.89,0-15.77-.02-23.66,0-1,.44-1.23,1.32-1.18.94.05,1.9.1,2.83-.01,1.51-.18,2.16.35,1.95,1.89-.04.32-.11.73.42,1.08h0Z"/>
  <path class="cls-2" d="m127.51,50.58c-1.53-.02-3.06.35-3.91-1.69-1.05-2.51-3.51-3.11-5.93-2.96-2.7.17-4.85,1.72-5.75,4.27-1.03,2.9-.77,7.99,1.61,10.09,2.91,2.59,7.49,2.35,9.91-.74.5-.65.61-1.8,1.58-1.87,1.73-.12,3.48-.07,5.22.02.68.03.34.63.29,1.02-.57,3.62-2.76,6.01-5.9,7.6-5.15,2.6-10.16,2.27-14.85-1.13-4.1-2.97-5.1-7.46-4.9-12.04.23-5.45,2.72-9.97,8.11-11.99,6.01-2.26,14.24-.64,16.93,5.97,1.25,3.08,1.09,3.45-2.38,3.45Z"/>
  <path class="cls-2" d="m271.4,44.94c1.94-3.97,5.03-4.54,8.53-4.3.89.06,1.38.28,1.26,1.25-.03.21,0,.43,0,.65-.02,1.23.36,2.66-.14,3.64-.61,1.19-2.21.36-3.37.56-4.16.71-6.46,3.46-6.51,8-.04,3.47-.08,6.95.01,10.42.04,1.44-.26,2.02-1.87,2.01-4.67-.02-4.67.06-4.67-4.58,0-6.59.05-13.17-.03-19.76-.02-1.46.45-1.96,1.83-1.74.28.04.58,0,.87,0,2.23,0,3.6,1.28,4.09,3.85Z"/>
</svg>