<?xml version="1.0" encoding="UTF-8"?>
<svg id="Layer_1" data-name="Layer 1" xmlns="http://www.w3.org/2000/svg" viewBox="0 0 389 101">
  <defs>
    <style>
      .cls-1 {
        fill: #cfcfcf;
      }
    </style>
  </defs>
  <path class="cls-1" d="m82.85,34.01c0-1.38,0-2.76,0-4.14,0-.38.1-.54.51-.53,2.73.01,5.46.01,8.19,0,.41,0,.51.16.51.54-.01,2.76,0,5.52,0,8.28,0,.35-.09.52-.48.52-2.76-.01-5.52,0-8.28,0-.31,0-.46-.06-.46-.43.02-1.41,0-2.82,0-4.23h.01Z"/>
  <path class="cls-1" d="m81.36,67.02c0,1.38-.02,2.76,0,4.14,0,.43-.17.5-.54.5-2.71-.01-5.43-.01-8.15,0-.4,0-.52-.15-.52-.53,0-2.8,0-5.61-.01-8.41,0-.3.12-.4.4-.4,2.79,0,5.58,0,8.37,0,.33,0,.44.14.44.47,0,1.41,0,2.82,0,4.23h0Z"/>
  <path class="cls-1" d="m50.7,34c0-1.38.01-2.76,0-4.14,0-.4.13-.52.52-.52,2.71.01,5.43.01,8.15,0,.37,0,.51.12.51.49,0,2.78,0,5.55,0,8.33,0,.36-.11.51-.5.51-2.73-.01-5.46,0-8.19,0-.35,0-.51-.08-.5-.49.03-1.39,0-2.79,0-4.19h0Z"/>
  <path class="cls-1" d="m82.84,67.02c0-1.39.01-2.79,0-4.18,0-.4.13-.53.52-.53,2.68.01,5.37,0,8.05.01.6,0,.62.03.62.61,0,2.71,0,5.43,0,8.14,0,.42-.12.59-.56.59-2.7-.02-5.4-.01-8.1,0-.41,0-.55-.12-.55-.54.03-1.36,0-2.73,0-4.09h0Z"/>
  <path class="cls-1" d="m49.12,67.01c0,1.38-.01,2.76,0,4.14,0,.4-.13.52-.52.51-2.7-.01-5.4-.01-8.09,0-.42,0-.59-.12-.59-.56.01-2.74.01-5.49,0-8.23,0-.41.13-.56.55-.56,2.68.02,5.37.02,8.05.01.45,0,.61.12.6.59-.03,1.36-.01,2.73-.01,4.09h0Z"/>
  <path class="cls-1" d="m61.38,66.98c0-1.36.01-2.73,0-4.09,0-.39.13-.55.52-.55,2.76,0,5.52,0,8.28-.01.32,0,.41.15.41.44,0,2.81-.01,5.61,0,8.42,0,.35-.13.48-.48.47-2.74,0-5.49-.01-8.24,0-.37,0-.5-.12-.49-.5.02-1.39,0-2.79,0-4.18h0Z"/>
  <path class="cls-1" d="m50.7,67c0-1.38.01-2.76,0-4.14,0-.43.15-.55.55-.55,2.68.01,5.37.01,8.05,0,.42,0,.55.11.54.58-.02,2.36.01,4.73.03,7.09,0,.41,0,.82,0,1.23,0,.3-.11.44-.42.44-2.77,0-5.55,0-8.32,0-.35,0-.43-.16-.43-.47,0-1.39,0-2.79,0-4.18h0Z"/>
  <path class="cls-1" d="m98.18,71.65h-3.98c-.6,0-.65-.04-.62-.7.09-2.08.02-4.15.04-6.23,0-.67,0-1.33-.02-2-.01-.3.1-.41.39-.41,2.8,0,5.61,0,8.41,0,.27,0,.39.12.38.38,0,.3-.04.61-.04.91,0,2.55,0,5.09.02,7.64,0,.35-.13.4-.43.4-1.39,0-2.77,0-4.16,0h0s0,0,0,0Z"/>
  <path class="cls-1" d="m82.84,55.96c0-1.41.01-2.82,0-4.23,0-.34.13-.43.42-.42,2.8.13,5.61.04,8.41.05.42,0,.38.25.38.51v4.91c0,1.11,0,2.21.01,3.32,0,.38-.11.54-.52.53-2.76-.01-5.52-.01-8.28,0-.32,0-.44-.07-.43-.44.03-1.41.01-2.82.01-4.23Z"/>
  <path class="cls-1" d="m55.26,40.36c1.36,0,2.72.02,4.08-.01.43-.01.54.12.54.53-.02,2.27-.01,4.55-.01,6.83,0,.5,0,1,.01,1.5,0,.3-.09.42-.42.42-2.76-.01-5.52-.02-8.29,0-.39,0-.48-.13-.48-.49.01-2.73,0-5.46,0-8.19,0-.6,0-.59.58-.58,1.33,0,2.66,0,3.99,0h0Z"/>
  <path class="cls-1" d="m82.84,44.99c0-1.41.01-2.82,0-4.23,0-.45.27-.4.53-.4h7.82c.15,0,.3.01.45,0,.29-.04.41.06.41.37,0,2.83,0,5.67,0,8.5,0,.29-.1.4-.4.39-2.82,0-5.64,0-8.46,0-.28,0-.36-.08-.35-.36.02-1.42,0-2.85,0-4.27h0Z"/>
  <path class="cls-1" d="m66.04,40.36c1.39,0,2.78,0,4.16,0,.29,0,.39.07.39.38-.01,2.78-.02,5.55,0,8.33,0,.41-.12.56-.54.56-2.71-.01-5.43-.01-8.15,0-.38,0-.53-.11-.53-.52.01-2.74.01-5.49,0-8.23,0-.38.14-.5.51-.5,1.39.01,2.78,0,4.16,0h0s0-.01,0-.01Z"/>
  <path class="cls-1" d="m76.71,40.37c1.36,0,2.71.02,4.07,0,.46,0,.59.16.59.61-.02,2.71-.02,5.43,0,8.14,0,.4-.14.52-.53.52-2.71-.01-5.43-.01-8.14,0-.41,0-.55-.13-.54-.55.02-2.74.01-5.49,0-8.23,0-.37.11-.5.49-.49,1.36.02,2.71,0,4.07,0h0Z"/>
  <path class="cls-1" d="m59.87,55.96c0,1.36,0,2.73,0,4.09,0,.42-.11.59-.56.58-2.67-.02-5.34-.01-8.01,0-.61,0-.61,0-.61-.6v-8.01c0-.67,0-.65.67-.65,2.66,0,5.31.01,7.96,0,.44,0,.52.12.51.55-.03,1.35-.01,2.7-.01,4.05h.05Z"/>
  <path class="cls-1" d="m81.36,34.04c0,1.38,0,2.76,0,4.14,0,.37-.12.51-.49.5-2.77-.01-5.55,0-8.32,0-.1,0-.23.03-.28-.09-.05-.13.07-.18.14-.25,2.84-2.87,5.67-5.74,8.51-8.61.1-.1.18-.3.35-.23.16.07.08.27.08.41,0,1.38,0,2.76,0,4.14h0Z"/>
  <path class="cls-1" d="m61.44,29.51c.41.39.82.76,1.21,1.15,2.57,2.57,5.13,5.14,7.7,7.71.05.05.12.13.11.18-.02.1-.12.12-.22.11-2.7-.02-5.4.08-8.1-.04-.77-.04-.77-.06-.77-.82,0-2.59,0-5.19,0-7.78,0-.17-.06-.36.06-.5h0Z"/>
  <path class="cls-1" d="m61.38,56.01c0-1.35.01-2.7,0-4.05,0-.42.11-.59.56-.59,1.25.02,2.5,0,3.76-.02.3,0,.3.17.3.38,0,1.65,0,3.31-.01,4.96,0,1.12-.02,2.24.06,3.36.03.43-.12.59-.56.58-1.19-.03-2.39-.02-3.57,0-.4,0-.52-.13-.52-.53.02-1.36,0-2.73,0-4.09h0Z"/>
  <path class="cls-1" d="m138.35,50.08c0,4.34-.07,8.68.03,13.01.04,1.77-.74,2.01-2.24,1.99-1.68-.03-1.64-1.06-1.53-2.16.33-3.26.12-6.53.22-9.79.04-1.33-.47-1.78-1.77-1.77-3.98.05-7.96.04-11.94,0-1.25-.02-1.67.45-1.65,1.69.06,3.38-.06,6.76.07,10.14.07,1.88-.99,1.89-2.33,1.93-1.45.04-1.48-.87-1.47-1.89.01-8.73.03-17.46.03-26.19,0-1.17.11-2.09,1.69-2.09,1.54,0,2.07.62,2.04,2.13-.07,3.04.03,6.08-.03,9.12-.02,1.25.44,1.7,1.67,1.68,4.03-.05,8.07-.05,12.11-.01,1.13.01,1.62-.35,1.6-1.55-.06-3.15,0-6.31-.06-9.46-.02-1.06-.09-1.91,1.37-1.9,1.36.01,2.24.25,2.22,1.95-.07,4.39-.02,8.79-.02,13.18h.02,0Z"/>
  <path class="cls-1" d="m341.47,55.11c-2.02,0-4.04.03-6.05-.01-1.19-.02-1.53.38-1.37,1.63.66,5.34,5.21,6.93,10.53,5.11.37-.13.7-.41,1.07-.47.66-.11,1.37-1.4,1.91-.34.47.91.33,2.27-.75,2.87-5.79,3.22-12.96,1.93-15.27-3.57-2.15-5.13-1.74-12.08,3.46-15.71,3.8-2.65,11.59-2.36,13.33,4.72.32,1.31.5,2.65.7,3.98.19,1.27-.32,1.87-1.68,1.82-1.96-.07-3.92-.02-5.88-.02h0s0-.01,0-.01Zm-1.7-2.89c1.51,0,3.01-.01,4.52,0,.85,0,1.21-.34,1.13-1.23-.26-2.81-2.36-4.95-4.97-5.04-2.99-.09-5.78,2.12-6.17,4.88-.13.9.12,1.4,1.13,1.39,1.45-.03,2.9,0,4.36,0h0Z"/>
  <path class="cls-1" d="m157.36,62.34c-.66.56-1.06.94-1.5,1.27-1.85,1.39-3.82,2.37-6.23,1.91-3.59-.69-5.48-2.76-5.61-6.14-.13-3.2,1.63-5.5,4.96-6.57,2.26-.72,4.61-.89,6.94-1.17,1.4-.17,1.66-.88,1.43-2.07-.42-2.25-2.07-3.61-4.36-3.62-2.03,0-3.84.69-5.57,1.67-.37.21-.73.65-1.21.33-.44-.29-.32-.79-.31-1.24.03-1.28.69-2.12,1.83-2.58,2.5-1.01,5.1-1.35,7.75-.86,2.79.52,4.73,2.5,5.13,5.33.7,4.99.18,10.01.25,15.02.02,1.12-.73,1.38-1.7,1.36-.99-.02-1.83-.16-1.74-1.46.02-.27-.03-.55-.07-1.18h0Zm.05-6.27c-.19-.54.45-1.94-.67-1.75-2.41.41-4.93.25-7.22,1.34-1.49.71-2.17,1.9-2.05,3.52.11,1.57.98,2.57,2.43,3.11,3.75,1.4,7.38-1.54,7.52-6.23h0Z"/>
  <path class="cls-1" d="m278.23,62.22c-.84.69-1.46,1.24-2.12,1.73-2.17,1.61-4.5,2.17-7.11,1.13-2.64-1.05-3.92-2.77-3.97-5.45-.06-3.4,1.05-5.32,3.79-6.47,2.52-1.06,5.23-1.19,7.89-1.53,1.56-.2,1.86-.84,1.46-2.25-.83-2.89-3.06-4.09-6.36-3.24-1.31.33-2.55.83-3.68,1.6-.98.67-1.36.32-1.42-.82-.07-1.31.43-2.17,1.61-2.66,2.99-1.24,6.06-1.62,9.19-.67,2.29.69,4.18,3.5,4.22,6.35.06,4.39,0,8.79.03,13.18,0,1.22-.31,1.91-1.71,1.86-1.36-.05-2.03-.5-1.67-1.96.04-.14-.06-.32-.16-.81h0Zm.05-6.18c-.19-.62.49-1.99-1.13-1.72-2.14.36-4.33.45-6.4,1.19-1.71.61-2.3,1.69-2.25,3.85.03,1.67,1.03,2.54,2.47,2.99,3.77,1.19,7.18-1.72,7.3-6.31Z"/>
  <path class="cls-1" d="m211.54,50.12c0-4.39.04-8.79-.03-13.18-.02-1.45.44-2.01,1.92-1.99,3.98.06,7.95.03,11.93-.04,1.06-.02,1.57.24,1.54,1.38-.02,1.05-.1,1.92-1.48,1.91-2.74-.03-5.49.05-8.23-.04-1.42-.04-1.87.5-1.82,1.88.09,2.19.11,4.39,0,6.59-.07,1.54.55,1.95,1.98,1.9,2.35-.09,4.71.04,7.06-.07,1.42-.07,1.78.65,1.74,1.83-.04,1.19-.69,1.74-1.86,1.6-2.4-.28-4.81-.07-7.22-.14-1.22-.04-1.7.53-1.69,1.74.04,3.21.02,6.42.02,9.63,0,.96.12,2-1.37,1.98-2.46-.03-2.5-.04-2.5-1.98,0-4.34,0-8.67,0-13.01h0Z"/>
  <path class="cls-1" d="m288.02,54.48c0-2.93-.02-5.86,0-8.79,0-1.02-.03-2.13,1.43-2.22,1.28-.08,1.93.38,2.06,1.79.13,1.43.95.5,1.34.14,1.73-1.64,3.73-2.45,6.11-2.3,2.83.17,4.91,1.42,5.95,4.17.58,1.54,1.02,3.12,1.03,4.76.04,3.72-.03,7.44.04,11.16.03,1.49-.69,1.78-1.97,1.78-1.36,0-1.69-.56-1.66-1.85.09-3.21.04-6.43.03-9.64,0-.62,0-1.24-.05-1.86-.34-3.64-2.04-5.64-4.82-5.66-3.05-.03-5.88,2.59-6.01,5.89-.16,3.77-.11,7.55,0,11.33.05,1.57-.58,1.92-1.96,1.9-1.18-.02-1.61-.5-1.6-1.63.03-2.99,0-5.98,0-8.96h.04Z"/>
  <path class="cls-1" d="m242.49,54.35c0-3.04.02-6.08-.01-9.12-.01-1.04.2-1.76,1.44-1.77,1.11,0,1.83.26,1.83,1.59,0,1.58.79,1.01,1.42.39,2.25-2.21,4.89-2.79,7.89-2.05,1.95.48,3.26,1.7,4.02,3.52.72,1.72,1.13,3.53,1.13,5.42,0,3.55-.04,7.09.03,10.64.03,1.44-.45,2.02-1.93,2.02s-1.71-.67-1.69-1.98c.08-3.77.1-7.55-.03-11.31-.07-1.97-.42-3.94-2.45-5.05-3.78-2.05-8.18.79-8.38,5.59-.16,3.71-.05,7.43-.02,11.15,0,1.07-.22,1.61-1.48,1.68-1.42.08-1.88-.28-1.82-1.75.11-2.98.03-5.97.03-8.95h.01Z"/>
  <path class="cls-1" d="m189.05,43.09c.94-.05,2,.09,3.03.38.56.15,1.08.39,1.28.98.27.81.48,1.77-.05,2.43-.53.66-1.22-.12-1.81-.31-2.03-.68-4.03-1.04-6.01.08-2.11,1.2-2.24,3.26-.33,4.77.94.74,2.05,1.15,3.17,1.52,1.34.45,2.59,1.08,3.75,1.88,3.14,2.18,3.32,6.52.28,8.77-3.3,2.45-6.95,2.53-10.7,1.15-.67-.25-1.15-.73-1.29-1.45-.13-.71-.38-1.57.2-2.09.55-.49,1.13.2,1.66.44,2.05.92,4.16,1.31,6.37.71,1.23-.33,2.14-1.02,2.39-2.33.24-1.27-.42-2.17-1.38-2.87-1.61-1.17-3.56-1.63-5.34-2.45-2.61-1.19-4.06-3.37-3.88-5.77.18-2.38,2.13-4.62,4.71-5.37,1.02-.3,2.07-.51,3.15-.47.22,0,.45,0,.8,0h0Z"/>
  <path class="cls-1" d="m168.39,54.13c0-1.85-.11-3.72.03-5.56.11-1.4-.26-1.97-1.71-1.92-.79.03-1.88.44-2.22-.87-.39-1.51.13-2.35,1.73-2.25,1.88.12,2.33-.59,2.08-2.35-.22-1.5-.33-3.09,1.76-3.6,1.15-.28,1.74-.12,1.69,1.2-.04,1.07,0,2.14-.05,3.21-.05,1.07.37,1.57,1.47,1.5.72-.05,1.45,0,2.18,0,1.12,0,1.8.41,1.75,1.69-.04,1.19-.66,1.49-1.73,1.52-3.68.12-3.68.14-3.68,3.78,0,2.81-.04,5.63,0,8.44.03,2.72,1.09,3.65,3.74,3.5.56-.03,1.49-.68,1.68.37.19,1.03-.14,1.99-1.24,2.51-2.85,1.35-6.94-1.02-7.39-4.27-.32-2.3-.21-4.6-.08-6.91h0Z"/>
  <path class="cls-1" d="m310.79,54.68c0-4.13,1.29-7.64,4.89-9.96,3.09-2,6.45-2,9.87-1.1,1.09.29,1.69,2.08,1.16,3.11-.42.82-.98.25-1.42.06-2.21-.95-4.4-1.18-6.67-.18-1.28.56-2.28,1.41-2.99,2.6-1.67,2.8-1.8,5.83-.85,8.8,1.27,3.97,5.74,5.65,9.65,3.92.69-.31,1.54-1.41,2.26-.11.56,1-.16,2.3-1.39,2.83-7.32,3.15-14.52-1.8-14.51-9.97h0Z"/>
  <path class="cls-1" d="m231.78,54.01c0-2.87.08-5.74-.03-8.61-.06-1.5.47-2,1.91-2.01,1.38-.01,2.04.36,2.02,1.9-.06,6.13-.03,12.26,0,18.4,0,1.04-.34,1.51-1.36,1.36-1.02-.15-2.55.63-2.55-1.42.02-3.21,0-6.41,0-9.62Z"/>
  <path class="cls-1" d="m236,35.89c-.01,1.25-1.04,2.33-2.23,2.17-1.22-.16-2.02-.85-2.07-2.21-.06-1.47.89-1.98,2.08-2.1,1.27-.13,2.23.87,2.22,2.14h0Z"/>
</svg>