<?xml version="1.0" encoding="UTF-8"?>
<svg id="Layer_1" data-name="Layer 1" xmlns="http://www.w3.org/2000/svg" viewBox="0 0 100 100">
  <defs>
    <style>
      .cls-1 {
        fill: none;
      }

      .cls-2 {
        fill: #fff;
      }
    </style>
  </defs>
  <circle class="cls-2" cx="50" cy="50" r="50"/>
  <g>
    <g>
      <path class="cls-2" d="m24.47,43.13c0,.91.65,1.62,1.55,1.62.84,0,1.62-.71,1.62-1.62s-.71-1.62-1.62-1.68c-.78.06-1.62.71-1.55,1.68Z"/>
      <path class="cls-2" d="m38.08,43.13c0,.78-.71,1.49-1.49,1.49s-1.49-.71-1.49-1.55c0-.78.71-1.49,1.49-1.49.84.06,1.62.84,1.49,1.55Z"/>
      <path d="m24.47,43.13c-.06-.97.78-1.62,1.55-1.62.91,0,1.62.78,1.62,1.68s-.78,1.62-1.62,1.62c-.91-.06-1.55-.78-1.55-1.68Z"/>
      <path d="m68.4,61.14c2.46,0,4.47-2.01,4.47-4.54s-2.01-4.54-4.47-4.54-4.47,2.01-4.47,4.54,2.01,4.54,4.47,4.54Z"/>
      <path d="m86.09,44.49c-1.3-4.02-4.92-6.67-9.07-6.74-3.95-.06-7.84-.06-12.44-.06h-19.82c1.49-1.04,2.66-2.46,3.43-4.28.32-.78.71-1.62.71-2.59.06-.65-.13-1.23-.52-1.62-.39-.39-.97-.58-1.62-.58h-4.99v-2.2c-.06-.52-.06-.91-.19-1.3-.58-2.07-2.72-3.37-4.86-2.92-1.68.39-3.05,1.88-3.11,3.56-.06.71-.06,1.43-.06,2.14v.78h-4.6v-2.53c-.06-1.3-.71-2.46-1.75-3.24-1.1-.78-2.46-.97-3.76-.52-1.68.58-2.79,2.2-2.79,4.08v2.33h-5.05c-.58,0-1.17.26-1.55.65-.39.39-.58.97-.52,1.55.06.58.19,1.17.39,1.68.91,2.72,2.53,4.66,4.92,5.9.06.06.13.06.13.06v13.93c0,.84.06,1.55.26,2.14.97,3.3,3.17,5.31,6.41,5.96l.32.13.52.06h7.32c.32,0,.52.13.65.39.19.45.26.65.26.78v1.04l.19,4.86c.06,1.1.13,2.2.13,3.3.06.65.06,1.23.06,1.88.06.58.06,1.23.06,1.81,0,1.68,1.23,2.98,2.79,2.98h7.71c1.23,0,2.33-.91,2.66-2.2.13-.71.32-1.36.45-2.07.06-.45.19-.84.26-1.3.13-.84.32-1.62.52-2.4l.13-.45h15.16c.13.52.19.97.32,1.49l.39,1.75c.19.91.39,1.88.58,2.79.26,1.3,1.43,2.33,2.72,2.33h7.71c1.43,0,2.72-1.23,2.79-2.72,0-.97.06-2.01.13-2.98l.19-2.98c0-.97.06-1.88.13-2.85,0-.45.06-.84.06-1.3,0-.52.06-1.04.06-1.55.06-.71.06-1.43.13-2.14.06-.97.13-1.88.19-2.85.06-1.23.13-2.4.19-3.63l.06-1.94c0-.52.06-.97.06-1.49.06-1.04.13-2.14.13-3.24.06-1.75-.39-3.37-1.23-4.92,1.55.91,2.59,2.59,2.59,4.41v10.24c0,.71.06,1.55.65,2.2l.06.19.32.13c.52.26,1.04.32,1.43.32h.06l1.68-1.36c.32-.58.32-1.23.32-1.75v-9.78c-.06-1.3-.19-2.4-.52-3.37Zm-49.5-2.07c.19,0,.45.13.58.26.06.13.13.26.13.39v.06c0,.39-.32.71-.65.71-.19,0-.39-.13-.52-.26-.13-.13-.19-.32-.19-.45,0-.39.32-.71.65-.71Zm2.59,10.82c-.26,1.43-1.1,2.4-2.4,2.98-.52.19-1.1.32-1.88.32h-7.45c-1.17,0-2.07-.26-2.79-.78-1.17-.91-1.75-2.14-1.75-3.69v-15.03c0-.58-.26-1.55-1.62-2.01-1.14-.32-2.03-1.01-2.73-2.01h10.18v.97c0,.71,0,1.55.06,2.33.19,2.07.71,4.08,1.62,6.09.84,1.81,1.88,3.43,3.17,4.73,1.68,1.75,3.56,2.98,5.64,3.63v.65c.06.65.06,1.23-.06,1.81Zm37.12-4.34c-.06,1.17-.13,2.27-.19,3.43l-.39,7.64c-.13,2.33-.26,4.73-.39,7.06-.06,1.17-.13,2.33-.19,3.5l-.19,2.72h-4.66c-.32-1.3-.65-2.59-.91-3.89-.32-1.3-.58-2.59-.91-3.89l-.13-.58-.71-.06h-7.02c-.85-3.03-3.58-5.25-6.85-5.25s-6,2.22-6.85,5.26c-.76.05-1,.43-1.18,1.16-.13.84-.32,1.62-.52,2.4l-.39,1.62c-.19,1.1-.45,2.2-.71,3.3h-4.6v-9.98c-.06-1.23-.06-2.46-.06-3.76,1.81-1.1,3.04-2.66,3.76-4.66.19-.58.32-1.3.32-2.01v-10.5h5.03c-.42.77-.69,1.64-.69,2.59,0,2.98,2.4,5.44,5.31,5.44s5.06-2.18,5.27-4.96c.83.31,1.76.49,2.76.49,2.94,0,5.36-1.54,5.86-3.56h2.04v.06h3.82q.13,0,.19.06c.39.52.91.97,1.36,1.49,1.36,1.43,1.94,2.98,1.81,4.86Z"/>
      <path class="cls-2" d="m35.16,43.13c-.06-.97.78-1.62,1.55-1.62.91,0,1.62.78,1.62,1.68s-.78,1.62-1.62,1.62c-.91-.06-1.55-.78-1.55-1.68Z"/>
      <path class="cls-2" d="m25.58,28.75h-2.14c0-.13-.06-.26-.06-.39v-1.94c0-.26.06-.52.13-.71.19-.39.78-.65,1.17-.58.58.13,1.04.52,1.04,1.1v2.33s-.06.06-.13.19Z"/>
      <path class="cls-2" d="m38.66,28.75h-2.14c0-.13-.06-.26-.06-.39v-1.94c0-.26.06-.52.13-.71.19-.39.78-.65,1.17-.58.58.06.97.52.97,1.04v2.33c0,.06-.06.13-.06.26Z"/>
    </g>
    <rect class="cls-1" x="13.4" y="22.14" width="73.21" height="55.72"/>
  </g>
</svg>