<?xml version="1.0" encoding="UTF-8"?>
<svg id="Layer_1" data-name="Layer 1" xmlns="http://www.w3.org/2000/svg" viewBox="0 0 100 100">
  <defs>
    <style>
      .cls-1 {
        fill: #fff;
      }
    </style>
  </defs>
  <g id="IIkEnp">
    <g>
      <path class="cls-1" d="m50.02,100C21.72,100.1-.86,76.38.02,48.45.87,21.36,23.58-.77,51.46.02c27.25.77,49.34,23.65,48.52,51.47-.8,27.35-23.54,48.67-49.97,48.51ZM21.29,16.67c-.61,0-1.23-.02-1.79.27-2.33,1.21-3.43,3.03-3.03,5.61.26,1.67.75,3.29,1.21,4.91.68,2.4,1.45,4.78,1.97,7.23.38,1.8-.54,3.93-2.08,4.94-1.34.87-2.74,1.63-4.13,2.4-2.27,1.24-4.59,2.41-6.71,3.92-1.89,1.34-2.6,3.65-1.86,5.86.41,1.22,1.29,2.02,2.3,2.69,2.12,1.41,4.37,2.61,6.62,3.81,1.29.69,2.57,1.42,3.81,2.22,1.55,1.01,2.43,3.07,2.07,4.89-.45,2.24-1.17,4.4-1.78,6.6-.53,1.92-1.09,3.83-1.44,5.81-.54,3.08,2.34,5.85,4.84,5.64,1.32-.11,2.6-.31,3.87-.66,2.9-.8,5.8-1.61,8.71-2.4,2.41-.66,4.54.18,5.89,2.3,1.36,2.12,2.43,4.4,3.71,6.56.82,1.38,1.56,2.81,2.55,4.1,1.01,1.31,2.32,1.89,3.93,1.91,1.83.02,3.23-.74,4.29-2.24,1.1-1.56,1.99-3.25,2.93-4.9,1.11-1.94,2.09-3.95,3.33-5.81,1.05-1.58,3.36-2.52,5.19-2.04,2.08.54,4.15,1.14,6.22,1.72,1.5.43,2.99.89,4.52,1.2,1.1.22,2.23.41,3.35.2,2.12-.4,3.81-2.6,3.76-4.86-.03-1.72-.56-3.35-1.02-4.99-.75-2.64-1.57-5.26-2.2-7.94-.45-1.91.49-4.1,2.16-5.15,1.56-.98,3.19-1.84,4.8-2.74,2.12-1.17,4.29-2.25,6.23-3.72.86-.65,1.43-1.47,1.68-2.52.43-1.84.17-3.52-1.23-4.88-.72-.7-1.56-1.25-2.42-1.76-2.82-1.67-5.75-3.16-8.59-4.8-1.89-1.09-3.28-3.47-2.51-6.04.67-2.26,1.29-4.53,1.92-6.8.51-1.82,1.03-3.63,1.2-5.53.24-2.56-2.56-5.4-5.38-5.02-1.62.22-3.18.64-4.75,1.06-2.58.7-5.13,1.46-7.71,2.14-1.99.52-4.18-.38-5.3-2.11-.42-.64-.82-1.3-1.19-1.96-1.31-2.33-2.56-4.68-3.92-6.99-.47-.8-.99-1.56-1.59-2.26-.38-.44-.79-.85-1.32-1.11-2.28-1.08-4.88-.48-6.45,1.47-1,1.24-1.7,2.65-2.5,4.01-1.31,2.22-2.43,4.55-3.82,6.72-1.14,1.79-3.34,2.74-5.39,2.21-2.39-.61-4.75-1.31-7.13-1.96-1.91-.53-3.79-1.19-5.81-1.2Z"/>
      <path class="cls-1" d="m21.95,77.71c.05-.28.09-.57.17-.86.8-2.77,1.61-5.54,2.4-8.32.35-1.22.63-2.46.68-3.72.06-1.39-.26-2.73-.76-4.02-.96-2.49-2.73-4.25-5.03-5.53-2.69-1.49-5.38-2.99-8.05-4.51-1.11-.63-1.09-.68,0-1.35,2.21-1.35,4.54-2.5,6.79-3.79,1.49-.86,3-1.67,4.2-2.94,1.5-1.59,2.3-3.49,2.71-5.61.38-2.01-.13-3.91-.63-5.81-.76-2.88-1.74-5.7-2.42-8.61-.12-.53-.07-.58.47-.43,2.77.77,5.53,1.55,8.29,2.32,1.7.47,3.41.93,5.2.82,2.52-.16,4.72-1.09,6.59-2.8,1.53-1.41,2.41-3.25,3.42-5.01,1.24-2.17,2.36-4.4,3.7-6.52.28-.45.28-.45.56-.03,1.36,2.02,2.41,4.23,3.65,6.33.89,1.52,1.6,3.15,2.82,4.47,2.88,3.11,6.38,4.23,10.49,3.2,3.45-.86,6.87-1.85,10.3-2.78.53-.14.59-.09.47.44-.4,1.7-.98,3.35-1.41,5.05-.49,1.94-1.16,3.82-1.54,5.79-.38,1.97-.22,3.88.49,5.76.99,2.63,2.87,4.44,5.28,5.79,2.64,1.48,5.34,2.86,7.93,4.44.23.14.45.29.67.43.18.12.17.25,0,.36-.21.14-.42.28-.63.41-2.14,1.29-4.37,2.43-6.55,3.65-1.85,1.03-3.73,2.01-5.07,3.71-1.72,2.18-2.51,4.69-2.28,7.48.16,1.9.85,3.67,1.32,5.5.56,2.18,1.3,4.3,1.81,6.49.13.56.09.61-.46.46-1.89-.52-3.78-1.09-5.68-1.58-1.84-.47-3.64-1.11-5.53-1.42-4.49-.73-8.87,1.45-11.07,5.44-1.59,2.88-3.13,5.8-4.85,8.61-.05.08-.11.15-.15.24-.16.32-.3.28-.48,0-.97-1.57-1.88-3.17-2.75-4.79-.79-1.47-1.6-2.94-2.47-4.36-1.8-2.97-4.42-4.72-7.89-5.2-2.11-.29-4.09.24-6.08.79-2.7.76-5.41,1.52-8.11,2.27-.19.05-.49.22-.5-.23Zm53.56-27.97c.08-13.76-11.63-25.93-26.84-25.27-12.93.56-24.32,11.23-24.33,25.4-.01,14.25,11.66,25.73,25.94,25.51,14.05-.21,25.34-11.49,25.22-25.64Z"/>
      <path class="cls-1" d="m50.44,53.88c-.09-1.85-.06-4.03.03-6.22.06-1.31.51-2.36,1.55-3.21,1.92-1.57,4.15-2.25,6.57-2.37,2.4-.12,4.7.26,6.82,1.47.27.15.53.33.78.52.75.58.84,1.52.19,2.21-.25.27-.54.52-.84.74-.66.5-1.37.44-2.03.05-1.51-.9-3.15-1.05-4.84-.96-.92.05-1.84.19-2.7.53-1.18.47-1.46.89-1.46,2.15,0,3.75,0,7.5.09,11.25.03,1.19-.3,1.51-1.48,1.52-.66,0-1.31-.03-1.97,0-.43.02-.56-.12-.57-.55-.04-2.27-.1-4.53-.17-7.13Z"/>
      <path class="cls-1" d="m42.87,46.92c-.72-.07-1.54-.27-2.39-.29-1.46-.04-2.84.19-4.19.8-1.14.52-2.38.03-2.97-1.09-.42-.79-.28-1.43.44-1.96,1.17-.85,2.52-1.27,3.91-1.59,2.19-.51,4.34-.25,6.47.36.82.24,1.3,1.11,1.11,1.95-.27,1.17-1.1,1.84-2.39,1.82Z"/>
    </g>
  </g>
</svg>