<?xml version="1.0" encoding="UTF-8"?>
<svg id="Layer_1" data-name="Layer 1" xmlns="http://www.w3.org/2000/svg" viewBox="0 0 100 100">
  <defs>
    <style>
      .cls-1 {
        fill: #6834c1;
      }

      .cls-2 {
        fill: #fcfcff;
      }

      .cls-3 {
        fill: #7c42c7;
      }
    </style>
  </defs>
  <path class="cls-1" d="m.29,52.78c0-.1,0-.2,0-.3.01,0,.03-.02.03-.03,0-.02-.02-.05-.03-.07,0-.1,0-.2,0-.3.01,0,.03-.02.03-.03,0-.02-.02-.05-.03-.07,0-1.46,0-2.92,0-4.38,0,0,.03-.02.03-.03,0-.02-.02-.05-.03-.07,0-.07,0-.13,0-.2.47-.24.37-.69.38-1.09.04-1.24.08-2.48.12-3.72,0-.26-.05-.56.05-.78.3-.67.37-1.39.5-2.09.31-1.59.77-3.13,1.24-4.67.28-.92.62-1.82.96-2.72.33-.9.62-1.81,1.15-2.63.4-.08.66-.35.91-.65,1.15-1.36,1.93-2.96,2.97-4.4.79-1.1,1.49-2.31,2.57-3.13,1.2-.91,2.12-2.03,3.01-3.2.4-.53.89-.93,1.51-1.17.17-.07.38-.12.44-.3.21-.56.62-.98,1.02-1.39.47-.49.8-1.1,1.45-1.45.76-.41,1.52-.62,2.37-.54.79.08,1.51-.1,2.15-.58.05-.04.11-.07.17-.1.09-.04.2-.12.27-.03.11.13-.04.2-.1.29-.26.38-.68.43-1.08.54-.22.06-.56.08-.52.42.04.28.27.47.58.44.22-.02.29.03.28.27-.02.36.17.57.54.55.5-.02.74.17.73.69,0,.41.17.55.61.39.46-.17.95.14,1.44-.01-.07.12-.17.16-.23.23-.35.41-.26.84.22,1.02.2.07.28.2.34.39.2.62.38.72,1.01.62.08-.01.17,0,.25.01.59.1.41.59.45.95.02.16-.08.35.07.47.18.13.23-.11.35-.18.22-.12.47-.17.64.02.15.16.27.46.18.63-.14.24-.33-.08-.51-.09-.02,0-.03,0-.05-.01-.18-.03-.35,0-.37.21-.02.21.15.25.3.22.3-.07.42.08.51.33.12.33.44.49.7.68.09.06.2.09.27,0,.28-.4.44-.24.64.08.12.19.32.33.48.5.24.25.46.52.88.28.19-.1.33.01.23.25-.29.66-.11,1.17.47,1.58.21.15.31.36.12.6-.2.25-.14.52.06.66.25.17.23-.19.34-.29.2-.18.42-.19.65-.11.14.05.36.2.29.28-.24.26-.09.6-.22.83-.27.48.08.48.34.51.47.06.95.1,1.43.12.52.02.8.39,1.04.76.21.32-.11.54-.29.76-.09.11-.22.24-.13.4.1.17.28.17.44.13.28-.08.47.02.64.25.13.17.3.3.46.45.07.07.19.11.14.23-.04.12-.16.08-.26.08-1.09,0-2.18.02-3.27.02-.24,0-.43.11-.63.23-.51.3-.86.82-1.42,1.06.02-.06.02-.14.06-.18.87-.88,1.77-1.74,2.77-2.48.26-.19.49-.4.7-.68-.42-.09-.78-.04-1.14,0-2.53.34-5.04.73-7.51,1.4-1.37.37-2.78.66-4.07,1.29-1.01.5-2.01,1.01-2.74,1.91-.42.52-.43,1.27,0,1.67.43.4.9.79,1.4,1.09,1.62.96,3.46,1.36,5.24,1.89,2.35.7,4.8.99,7.22,1.36,1.35.21,2.68.57,4.04.7,1.1.1,2.2.16,3.29.28,1.15.13,2.3.3,3.46.39.11.82.26,1.63.31,2.45.02.39.08.63.47.75.19.06.36.18.54.24.69.25,1.47.31,2.08.03.52-.24.99-.27,1.5-.29.41-.01.83,0,1.24,0,.61,0,1.2.02,1.8.22.64.22,1.26-.07,1.85-.36.12-.06.18-.18.23-.31.34-.88.41-1.79.41-2.72l.04-.02h.04c.35.25.43.6.38,1-.02.2-.1.41-.06.59.27,1.16-.23,1.82-1.31,2.15-.26.08-.24.17-.02.36.54.47,1.29.79,1.28,1.69,0,.11.09.22.23.22.13,0,.26-.06.27-.17.06-.52.32-.35.61-.22.16.08.35.1.53.15.21.05.37.16.39.39.02.21-.14.26-.29.34-.35.19-.35.41-.02.62.14.09.29.16.34.34.03.11.07.24.23.21.14-.03.15-.16.17-.27.03-.18.05-.44.3-.34.3.12.8.12.81.53.02.48-.46.35-.76.38-.1.01-.2,0-.29.03-.1.02-.18.09-.18.21.01.81.14,1.57.49,2.34.31.66.6,1.19,1.33,1.37-1.32-.05-2.62.23-3.94.22-1.07,0-2.13.07-3.2.04-1.47-.04-2.94.06-4.42.02-2.63-.07-5.26-.04-7.88-.26-1-.08-2.01.04-3.02-.09-1.45-.19-2.91-.3-4.36-.4-1.76-.12-3.5-.38-5.25-.65-1.37-.21-2.75-.43-4.11-.69-2.06-.39-4.12-.84-6.07-1.65-.1-.04-.25-.05-.24-.2,0-.14.14-.17.25-.2,1.34-.32,2.68-.64,4.01-1.06.85-.27,1.74-.38,2.62-.52.52-.08.67-.38.72-.84.05-.46.05-.95.23-1.36.32-.74.44-1.52.68-2.27.11-.35,0-.42-.33-.42-.63,0-1.23.21-1.85.31-3.1.51-6.15,1.27-9.08,2.39-1.58.61-3.16,1.29-4.31,2.63-.71.83-.78,2.08-.02,2.86,1.61,1.66,3.75,2.39,5.8,3.26.91.39,1.94.45,2.89.77,1.37.45,2.8.6,4.21.83.66.1,1.21.49,1.9.55,1.69.15,3.36.38,5.05.58,1.47.17,2.93.42,4.41.52,1.73.11,3.45.22,5.18.31,1.77.09,3.54.19,5.31.23,4.83.1,9.67.11,14.49-.25.63-.05,1.26-.03,1.89-.08,1.81-.14,3.62-.3,5.43-.45-.08.24-.24.39-.49.45-.54.14-.99.82-.83,1.36.09.3.1.54-.07.79-.11.16-.09.38.11.39.65.05,1.34.22,1.95-.1.48-.26.95-.24,1.44-.23.25,0,.36.15.31.4-.1.43.11.66.5.77.3.08.33.22.24.52-.13.47-.13.97-.44,1.4-.1.13-.05.39-.03.58.01.17.11.3.3.16.29-.21.41-.07.48.21.07.29.32.37.57.41.21.03.43.02.64.03-.56,1.08-1.13,2.16-1.99,3.04-.15.15-.32.22-.52.23-1.39.07-2.73.43-4.1.65-1.88.3-3.78.38-5.67.61-1.53.19-3.09.18-4.64.22-1.33.03-2.67.11-4,.09-1.81-.02-3.62-.02-5.44-.15-1.54-.11-3.09,0-4.64-.21-1.15-.15-2.32-.23-3.49-.3-2.12-.12-4.19-.57-6.27-.92-.31-.05-.65-.12-.89-.45-.77-1.09-1.58-2.17-2.1-3.4-.24-.57-.58-.56-1.06-.45-1.57.38-3.06.95-4.52,1.64-.61.29-1.22.64-1.64,1.17-.85,1.07-.94,1.58,0,2.45.98.91,2.1,1.53,3.34,2,2.1.8,4.29,1.23,6.47,1.73,1.55.35,3.14.51,4.72.69,1.75.19,3.49.46,5.25.51,2.43.07,4.86.18,7.29.25,3.49.1,6.98-.05,10.47-.24,1-.06,2.01.04,3.01-.11,1.21-.18,2.43-.25,3.65-.39.98-.11,1.94-.29,2.91-.49.73-.16,1.47-.17,2.21-.39,1.34-.4,2.73-.61,4.1-.9-.06.1-.11.21-.19.29-.71.73-.71.75-.25,1.67.11.22.19.41-.02.63-.17.18-.06.3.14.35.06.02.13.01.2.02,1.05.23,1.95-.56,2.99-.44.19.02.25-.23.17-.39-.33-.63-.12-1.28-.08-1.92.03-.53-.15-.79-.66-.83-.12,0-.23-.02-.35-.03.91-.42,1.82-.83,2.64-1.42.36-.26.66-.56.91-.94.28-.42.18-.89.32-1.31.31.34.35.78.41,1.2.08.57.49.86,1.03.69.38-.12.66-.37.96-.6.11-.09.25-.23.38-.04.09.14.03.29-.1.4-.31.25-.58.54-1.04.46-.32-.05-.47.1-.5.44-.06.61-.36,1.23.11,1.81.07.08-.03.18-.09.26-.08.11-.28.26-.1.37.21.13.25-.13.32-.26.22-.39.33-.4.58-.05.09.13.18.27.33.29.71.08.84.76,1.09,1.2.23.4.38.63.85.62.34,0,.59.27.87.43.21.12.04.37.04.56,0,.14.02.28.17.33.16.06.29-.02.38-.16.18-.27.24-.28.47.03.31.42.61.94,1.12,1.14.39.15.5.39.41.72-.14.52.06.62.51.53.15-.03.3-.02.42-.12.24-.19.38-.17.31.17-.06.31.03.49.32.64.23.12.5.32.46.59-.1.62.23.35.47.26.31-.12.52-.37.62-.68.14-.43.41-.75.72-1.05.58-.56,1.15-1.11,1.41-1.93.14-.43.38-.89.9-1.05.04.15-.04.26-.11.37-.52.86-.92,1.79-1.5,2.63-.8,1.16-1.52,2.37-2.35,3.51-1.27,1.75-2.66,3.4-4.16,4.96-2.9,3.01-6.14,5.6-9.68,7.82-3.33,2.09-6.88,3.71-10.6,4.96-1.89.63-3.82,1.12-5.78,1.52-2.24.45-4.48.81-6.77.93-2.1.11-4.2,0-6.3,0-.7,0-1.44-.08-2.15-.14-.92-.08-1.8-.38-2.72-.44-.63-.04-1.25-.33-1.88-.36-.74-.03-1.42-.31-2.1-.48-1.19-.29-2.38-.63-3.56-.96-.87-.24-1.65-.7-2.5-1.01-1.59-.58-3.12-1.3-4.63-2.07-1.33-.67-2.58-1.46-3.83-2.24-2.38-1.48-4.56-3.21-6.68-5.04-1.58-1.37-2.98-2.9-4.36-4.47-1.92-2.2-3.61-4.56-5.12-7.04-.73-1.21-1.39-2.47-2.03-3.72-.56-1.08-1.05-2.2-1.35-3.38-.11-.43-.57-.66-.6-1.03-.05-.6-.34-1.09-.5-1.63-.55-1.87-.86-3.81-1.45-5.67-.38-1.22-.39-2.49-.53-3.75-.09-.88-.06-1.75-.11-2.62-.01-.17.03-.39-.24-.41-.04,0-.08,0-.12-.01,0-.1,0-.2,0-.3.01,0,.03-.02.03-.03,0-.02-.02-.05-.03-.07Zm48.49-4.77c-.72.05-1.45-.02-2.18,0-.27,0-.66-.05-.66.33,0,.31.34.41.63.45.08.01.17,0,.25.01.84.16,1.68-.06,2.52,0,.34.02.64.07.92.3.56.47,1.22.78,1.94.95.36.08.77.02,1.04-.21.54-.44,1.1-.83,1.71-1.13.16-.08.24-.22.2-.41-.04-.16-.15-.26-.31-.28-.13-.01-.26-.02-.4-.02-1.88,0-3.77,0-5.65,0Zm31.76,23.62c.11-.23.1-.37.04-.51-.07-.17-.21-.3-.37-.19-.17.11.05.21.1.31.05.11.13.22.23.39ZM30.84,25.33c.11.17.26.2.42.13.07-.03.09-.12.03-.16-.14-.09-.3-.11-.45.03Z"/>
  <path class="cls-1" d="m60.26,51.97c-.73-.18-1.03-.71-1.33-1.37-.35-.77-.48-1.53-.49-2.34,0-.12.07-.19.18-.21.1-.02.2-.02.29-.03.31-.03.78.1.76-.38-.01-.41-.51-.41-.81-.53-.25-.09-.27.17-.3.34-.02.11-.03.25-.17.27-.15.03-.19-.1-.23-.21-.05-.18-.19-.25-.34-.34-.33-.21-.33-.43.02-.62.15-.08.31-.13.29-.34-.02-.23-.18-.34-.39-.39-.18-.05-.36-.07-.53-.15-.29-.13-.55-.3-.61.22-.01.12-.14.18-.27.17-.14,0-.23-.11-.23-.22.02-.9-.74-1.22-1.28-1.69-.21-.19-.23-.28.02-.36,1.09-.33,1.58-1,1.31-2.15-.04-.18.04-.39.06-.59.05-.4-.03-.75-.38-1,.88-.27,1.81-.13,2.7-.3.22.22.49.42.77.24.35-.22.74-.29,1.12-.43.05,0,.1-.01.16-.02l.13-.02c.54-.12,1.09-.12,1.64-.09.49.03,1,.12,1.36-.35.36-.06.73-.05,1.09-.03.25.16.51.1.77.06.6-.08,1.2-.2,1.81-.24.5-.04.94-.13,1.3-.5,1.05-.31,2.13-.5,3.21-.64.11.02.2-.01.28-.08.05-.06.12-.08.2-.05.25.06.47,0,.69-.12.11-.01.22-.03.32-.04.8-.09,1.56-.33,2.34-.52.33-.08.57-.23.71-.54.68-.3,1.36-.6,2.03-.91.05-.03.11-.05.16-.08h0c.06-.04.12-.09.18-.13h0c.94-.12,1.55-.72,1.47-1.45-.1-.1-.1-.2-.03-.32.13-.39.05-.75-.17-1.08-.7-1.05-1.7-1.6-2.95-1.7-1.1-.44-2.24-.74-3.36-1.11-.06-.22-.24-.3-.41-.39-.75-.41-1.58-.3-2.38-.39-.81.03-1.6-.13-2.38-.26-.96-.16-1.91-.37-2.88-.47-.32-.26-.72-.29-1.09-.35-.25-.04-.65-.19-.75.09-.08.22.33.34.54.48.11,0,.16.09.21.17.01.51.43.71.77.95.41.29.73.77,1.33.75h0c-.03.24.12.4.27.55.47.46.93.93,1.4,1.4.45.45.9.91.42,1.61-.02.04-.01.1-.02.15-.35.1-.7.15-1.06.19-.91.12-1.82.25-2.73.39-.92.14-1.85.23-2.78.27-.03,0-.06,0-.09,0l-.4.02c-.42-.14-.85-.19-1.29-.2-.35,0-.6.13-.7.48-1.13-.02-2.26.17-3.39.11-.03,0-.06,0-.08,0-1.03.11-2.06.12-3.09.09-.62-.08-1.22-.27-1.85-.29-1.01-.03-2.02,0-3.02.12-.69.09-1.39-.02-2.07.15-1.67.11-3.32-.11-4.98-.19-.06-.22-.23-.34-.43-.35-.82-.03-1.64-.12-2.45.05l-.32-.05s-.08,0-.12-.01c-1.12-.07-2.23-.14-3.33-.33.23-.11.51-.24.41-.53-.12-.37-.04-.86-.55-1.03-.33-.11-.74-.15-.91-.46-.32-.59-.73-.82-1.36-.55,0-.27.23-.29.39-.39.56-.23.9-.76,1.42-1.06.21-.12.39-.23.63-.23,1.09,0,2.18-.01,3.27-.02.1,0,.21.03.26-.08.05-.12-.08-.16-.14-.23-.16-.15-.33-.28-.46-.45-.17-.23-.35-.33-.64-.25-.16.05-.35.04-.44-.13-.09-.16.03-.28.13-.4.19-.22.51-.44.29-.76-.24-.37-.52-.74-1.04-.76-.48-.02-.96-.05-1.43-.12-.26-.04-.61-.03-.34-.51.13-.23-.02-.57.22-.83.07-.07-.15-.23-.29-.28-.23-.08-.45-.07-.65.11-.11.1-.09.46-.34.29-.2-.14-.26-.41-.06-.66.19-.24.09-.45-.12-.6-.58-.41-.76-.92-.47-1.58.1-.24-.04-.36-.23-.25-.42.23-.64-.03-.88-.28-.16-.16-.36-.31-.48-.5-.2-.32-.37-.48-.64-.08-.06.1-.18.07-.27,0-.26-.2-.58-.35-.7-.68-.09-.25-.21-.4-.51-.33-.16.03-.32-.01-.3-.22.02-.21.19-.24.37-.21.02,0,.03.01.05.01.18.01.37.34.51.09.1-.17-.03-.47-.18-.63-.17-.19-.42-.14-.64-.02-.12.06-.17.31-.35.18-.15-.11-.05-.31-.07-.47-.04-.36.14-.85-.45-.95-.08-.01-.17-.02-.25-.01-.63.1-.81,0-1.01-.62-.06-.19-.14-.32-.34-.39-.48-.17-.57-.61-.22-1.02.06-.07.15-.12.23-.23-.49.15-.98-.15-1.44.01-.44.16-.61.02-.61-.39,0-.52-.24-.72-.73-.69-.37.02-.56-.19-.54-.55.01-.23-.06-.28-.28-.27-.31.02-.54-.17-.58-.44-.05-.34.29-.36.52-.42.4-.11.82-.15,1.08-.54.06-.09.21-.16.1-.29-.08-.09-.19-.02-.27.03-.06.03-.12.06-.17.1-.64.49-1.36.67-2.15.58-.85-.09-1.62.13-2.37.54-.64.35-.98.96-1.45,1.45-.39.41-.81.83-1.02,1.39-.06.18-.27.23-.44.3-.62.24-1.11.64-1.51,1.17-.89,1.17-1.82,2.29-3.01,3.2-1.08.82-1.78,2.03-2.57,3.13-1.04,1.43-1.82,3.04-2.97,4.4-.25.3-.51.56-.91.65,0-.06,0-.13.03-.18.45-1.03.97-2.03,1.54-3.01.44-.12.44-.47.44-.82h0c.08-.03.12-.09.14-.17.08-.21.14-.44.26-.62,1.29-2.04,2.66-4.02,4.17-5.91,1.23-1.54,2.51-3.05,3.94-4.4,2.22-2.11,4.59-4.04,7.13-5.76.86-.58,1.79-1.06,2.65-1.63.93-.62,1.92-1.12,2.94-1.57.54-.08,1.01-.29,1.39-.7.97-.5,1.99-.88,3.04-1.2.22-.03.42-.11.56-.3.27,0,.5-.2.77-.16.38.05.73,0,.91-.4,1.44-.54,2.92-.91,4.44-1.13.97-.11,1.91-.38,2.9-.38.44,0,.82-.11,1.1-.46.65-.03,1.29-.05,1.94-.08.13.04.25.03.36-.03.1,0,.2,0,.3,0,.03,0,.07,0,.1,0,.2-.05.4-.06.6-.02.03,0,.07,0,.1,0h.03c.5,0,.99.01,1.49.02.27,0,.45-.1.47-.39h3.28c.03.15.05.33.22.34.69.08,1.38.29,2.07.04.06,0,.13,0,.19,0,.06.06.12.07.2.02.07,0,.14,0,.21,0,.07.02.14.04.22.06.79,0,1.58-.03,2.36.06.08.23.27.31.5.34.57.08,1.14.18,1.71.27.19.03.39.07.57-.07.56.13,1.11.27,1.67.39,1.4.28,2.76.66,4.11,1.12.43.56,1.13.46,1.7.67,2.51.81,4.88,1.95,7.15,3.29.08.03.16.05.23.08.03,0,.05,0,.07.03.04.03.07.06.11.09.03.02.07.05.1.07.06.29.25.39.53.37h0c.05.08.13.12.22.12.31.08.56.27.81.44,1.03.69,2.07,1.36,3.06,2.1.88.65,1.7,1.38,2.54,2.08.03.03.06.05.1.08h.01c.18.62.71,1.07,1.29,1.09.13.14.24.31.4.42.93.64,1.61,1.53,2.38,2.33l.02.03s.06.06.09.09h.01s.06.06.08.08c.05.36.25.61.6.73.43.38.72.87,1.09,1.3.15.53.48.97.8,1.4.35.47.63,1.01,1.19,1.28.89.92,1.53,2.02,2.1,3.16.1.28.14.6.3.82.27.37.37.89.86,1.09.24.55.66,1.01.71,1.64.04.05.08.1.12.14h0c.25.76.53,1.52,1.14,2.09.03,0,.04.02.03.05l.02.04c.02.08.03.16.05.23-.02.03-.02.06.01.08.13.21.22.42.22.67.48,1.34.93,2.68,1.21,4.07.07.35.23.66.58.82h0c.02.07.05.14.07.2.01.07.02.14.03.21-.07.53.12.98.41,1.4.01.07.03.14.04.21-.05.14-.03.27.06.38l.02.13c.01.99.27,1.94.36,2.93.09.96.38,1.91.31,2.9-.02.22-.03.55.23.59.25.03.1-.33.24-.47.24,2.58.39,5.16.21,7.75,0,.03,0,.06,0,.09,0,.07,0,.14,0,.21-.1.19-.11.39-.01.59,0,.1,0,.21,0,.31-.03.03-.03.06,0,.09,0,.07,0,.14,0,.21-.29.05-.43.27-.44.53,0,.69-.15,1.37-.19,2.05-.06.82-.15,1.63-.34,2.44-.06.27-.06.52.11.75,0,.07,0,.13-.01.2-.26.37-.36.76-.19,1.19-.04.19-.14.35-.19.54-.27.98-.43,1.99-.81,2.94-.33.11-.45.39-.49.69-.07.53-.3,1.01-.39,1.53-.07.41-.27.78-.27,1.2-.1.45-.29.85-.51,1.25,0,0-.02.02-.02.03,0,.02,0,.05.01.07.02.09,0,.16-.07.21-.14,0-.26.06-.33.18-.44.73-.74,1.51-.86,2.35-.19.39-.38.77-.57,1.16-.52.16-.77.62-.9,1.05-.26.82-.83,1.37-1.41,1.93-.31.3-.58.63-.72,1.05-.1.31-.31.55-.62.68-.24.09-.57.36-.47-.26.04-.27-.23-.48-.46-.59-.29-.15-.38-.33-.32-.64.07-.34-.07-.36-.31-.17-.12.1-.28.09-.42.12-.45.09-.65-.01-.51-.53.09-.33-.02-.56-.41-.72-.52-.2-.81-.72-1.12-1.14-.23-.31-.29-.29-.47-.03-.09.13-.22.22-.38.16-.15-.05-.17-.19-.17-.33,0-.19.16-.44-.04-.56-.28-.16-.53-.43-.87-.43-.47,0-.63-.22-.85-.62-.25-.44-.38-1.12-1.09-1.2-.15-.02-.24-.16-.33-.29-.25-.36-.35-.34-.58.05-.08.13-.11.39-.32.26-.18-.11.02-.25.1-.37.06-.08.16-.18.09-.26-.48-.58-.17-1.2-.11-1.81.03-.35.19-.49.5-.44.46.07.74-.22,1.04-.46.13-.11.19-.26.1-.4-.13-.19-.26-.05-.38.04-.3.23-.59.48-.96.6-.54.17-.96-.12-1.03-.69-.06-.42-.1-.86-.41-1.2-.47-.76-1.07-1.37-1.88-1.76-.51-.25-1.03-.49-1.54-.74-.45-.7-1.16-.72-1.88-.72-.49.05-.9-.19-1.33-.36-.36-.14-1.11-.13-1.14.09-.06.38-.33.63-.51.93-.22,0-.43,0-.64-.03-.25-.04-.49-.12-.57-.41-.07-.28-.19-.43-.48-.21-.19.14-.28.01-.3-.16-.02-.2-.07-.45.03-.58.3-.43.3-.93.44-1.4.08-.29.05-.44-.24-.52-.39-.1-.6-.33-.5-.77.06-.25-.06-.39-.31-.4-.49-.02-.97-.03-1.44.23-.61.33-1.29.16-1.95.1-.21-.02-.22-.23-.11-.39.17-.26.15-.5.07-.79-.16-.54.29-1.22.83-1.36.25-.06.4-.21.49-.45.13,0,.26-.01.39-.02.03,0,.07,0,.1,0,.07,0,.13,0,.2-.01.19.1.34.02.5-.08,1.07-.02,2.11-.32,3.18-.32.27-.02.57.11.81-.13.13-.07.26-.08.4-.03.11.09.21.08.29-.04.26-.11.52-.11.79-.08.25.15.51.1.77.06,1.21-.22,2.42-.46,3.64-.64.49-.08.92-.22,1.26-.59.93-.27,1.84-.63,2.82-.71h.02c.09-.02.17-.04.26-.06.7,0,1.36-.23,2.01-.45.18-.06.35-.2.37-.43.83-.49,1.75-.78,2.62-1.18l.16-.08.02-.02h.03c.5-.06.84-.31,1.04-.77.32-.25.54-.59.8-.9.7-.36.76-1.68.11-2.19-.09-.15-.16-.33-.28-.46-.9-.9-1.97-1.55-3.1-2.11-1.11-.55-2.31-.86-3.49-1.22-.22-.37-.54-.69-.94-.74-.76-.08-1.51-.29-2.29-.23-1.87-.34-3.71-.82-5.61-1.04-.04.34.23.5.21.76,0,.08-.04.17-.03.24.24,1.26.49,2.52.75,3.78.04.22.21.4.43.44.79.15,1.55.46,2.38.33.87.09,1.71.28,2.55.51.67.19,1.34.39,2.08.6-.16.11-.25.18-.34.23-.98.48-2.03.74-3.08.98-1.52.34-3.03.7-4.57.94-.76.12-1.53.22-2.29.34-.42-.12-.85-.23-1.19.18-.52.15-1.06.22-1.6.2-.42-.08-.83-.18-1.26-.16-.31.01-.59.09-.62.48-1.05.02-2.11.08-3.15.23-1.23.19-2.47.22-3.71.26-.03,0-.06,0-.1,0-.1,0-.2,0-.3.01Z"/>
  <path class="cls-3" d="m53.89.28c.39.03-.06.29.11.39-.69.25-1.38.04-2.07-.04-.17-.02-.19-.2-.22-.34h1.09c.1.12.2.12.3,0h.8Z"/>
  <path class="cls-3" d="m46.46.65c-.12-.19-.35-.1-.51-.19-.08-.05-.19-.1-.02-.17h2.49c-.03.29-.2.39-.47.39-.5,0-.99-.01-1.49-.02Z"/>
  <path class="cls-1" d="m.29,53.98c.2.17.19.33,0,.5v-.5Z"/>
  <path class="cls-1" d="m53.1.28c-.1.12-.2.12-.3,0h.3Z"/>
  <path class="cls-1" d="m54.79.28c.08.13-.02.13-.1.13-.08,0-.18,0-.1-.13h.2Z"/>
  <path class="cls-1" d="m.29,45.23c.15-.06.11.06.11.12,0,.07-.03.12-.11.07v-.2Z"/>
  <path class="cls-1" d="m45.54.28c.05.07.03.12-.05.12s-.1-.05-.05-.12h.1Z"/>
  <path class="cls-1" d="m.29,51.99s.02.05.03.07c0,0-.02.02-.03.03,0-.03,0-.07,0-.1Z"/>
  <path class="cls-1" d="m.29,46.42c.07-.04.12-.03.12.05s-.05.09-.12.05v-.1Z"/>
  <path class="cls-1" d="m.29,46.82c.07-.05.12-.03.12.05s-.05.1-.12.05v-.1Z"/>
  <path class="cls-1" d="m.29,47.51s.02.05.03.07c0,0-.02.02-.03.03,0-.03,0-.07,0-.1Z"/>
  <path class="cls-1" d="m.29,45.62c.08-.04.11-.01.1.07-.01.08-.06.04-.1.03v-.1Z"/>
  <path class="cls-1" d="m.29,52.39s.02.05.03.07c0,0-.02.02-.03.03,0-.03,0-.07,0-.1Z"/>
  <path class="cls-1" d="m.29,52.78s.02.05.03.07c0,0-.02.02-.03.03,0-.03,0-.07,0-.1Z"/>
  <path class="cls-1" d="m.42,53.19c-.02.06.02.21-.12.09,0-.03,0-.07,0-.1.04,0,.08,0,.12.01Z"/>
  <path class="cls-1" d="m.29,53.58c.06-.04.11-.03.11.05s-.05.09-.11.05v-.1Z"/>
  <path class="cls-1" d="m.29,54.77c.08-.04.11,0,.1.07-.01.08-.06.04-.1.03v-.1Z"/>
  <path class="cls-1" d="m.29,55.17c.08-.04.1,0,.09.07,0,.07-.06.04-.09.03v-.1Z"/>
  <path class="cls-1" d="m55.09.28c0,.06-.02.12-.1.1-.07-.02-.02-.06,0-.1h.1Z"/>
  <path class="cls-1" d="m.29,46.02c.06-.04.11-.03.11.05s-.05.09-.11.05v-.1Z"/>
  <path class="cls-2" d="m87.86,51.27h-.03s-.02.02-.02.02c-.05.03-.11.05-.16.08-.87.39-1.79.69-2.62,1.18-.8.28-1.67.34-2.37.88-.09.02-.17.04-.26.05,0,0-.01-.02-.01-.02v.02c-.99.08-1.9.44-2.83.71-.7.12-1.41.22-2.11.38-1.19.27-2.44.22-3.56.8-.27-.03-.54-.03-.79.08-.11-.06-.21-.05-.29.04-.14-.05-.27-.04-.4.03-.29-.05-.56-.04-.81.13-1.07,0-2.11.3-3.18.32-.17-.01-.35-.05-.5.08-.07,0-.13,0-.2.01-.03,0-.07,0-.1,0-.13,0-.26.01-.39.02-1.81.15-3.62.32-5.43.45-.63.05-1.26.03-1.89.08-4.83.36-9.66.35-14.49.25-1.77-.04-3.54-.14-5.31-.23-1.73-.09-3.45-.2-5.18-.31-1.47-.1-2.94-.34-4.41-.52-1.68-.2-3.36-.42-5.05-.58-.68-.06-1.24-.45-1.9-.55-1.41-.23-2.84-.38-4.21-.83-.95-.31-1.98-.38-2.89-.77-2.05-.87-4.19-1.6-5.8-3.26-.76-.78-.69-2.03.02-2.86,1.15-1.34,2.73-2.02,4.31-2.63,2.94-1.13,5.98-1.88,9.08-2.39.62-.1,1.21-.31,1.85-.31.33,0,.45.07.33.42-.24.75-.35,1.54-.68,2.27-.18.41-.18.9-.23,1.36-.05.46-.2.76-.72.84-.88.13-1.78.25-2.62.52-1.32.42-2.66.73-4.01,1.06-.12.03-.24.07-.25.2,0,.15.14.15.24.2,1.95.81,4.01,1.26,6.07,1.65,1.36.26,2.74.48,4.11.69,1.74.27,3.48.53,5.25.65,1.46.1,2.92.21,4.36.4,1.01.13,2.02.01,3.02.09,2.62.21,5.25.18,7.88.26,1.47.04,2.95-.06,4.42-.02,1.07.03,2.13-.05,3.2-.04,1.32,0,2.62-.28,3.94-.22.1,0,.2,0,.3-.01.03,0,.06,0,.1,0,1.24-.04,2.48-.07,3.71-.26,1.04-.16,2.09-.22,3.15-.23.65.03,1.25-.22,1.88-.32.55.02,1.08-.05,1.6-.2.41.06.81-.03,1.19-.18.76-.11,1.53-.22,2.29-.34,1.54-.24,3.05-.61,4.57-.94,1.05-.23,2.1-.5,3.08-.98.1-.05.18-.12.34-.23-.74-.22-1.41-.42-2.08-.6-.84-.23-1.68-.43-2.55-.51-.03-.18-.17-.22-.32-.26-.5-.11-1-.23-1.5-.33-.82-.15-.77-.16-.9-1-.16-1.09-.19-2.23-.81-3.21.02-.26-.25-.42-.21-.76,1.9.22,3.74.7,5.61,1.04,1.05.41,2.13.7,3.23.97,1.18.36,2.38.67,3.49,1.22,1.13.56,2.2,1.21,3.1,2.11.12.12.19.3.28.46.08.48.26.95.12,1.45-.07.25-.29.45-.23.74-.26.31-.47.65-.8.9-.44.14-.76.43-1.04.78Z"/>
  <path class="cls-2" d="m60.61,39.54c-.05,0-.1.01-.16.02-.64-.02-1.28-.06-1.89.19-.89.16-1.82.02-2.7.3,0,0-.04,0-.04,0,0,0-.04.02-.04.02-1.13,0-2.25,0-3.38.01-.03-.02-.06-.02-.09,0-.1,0-.2,0-.3,0-.56,0-1.13,0-1.69,0-.07,0-.14,0-.2,0-.03-.02-.06-.02-.09,0-.1,0-.21,0-.31,0-.03-.02-.06-.02-.09,0-.1,0-.21,0-.31,0-.03-.02-.06-.02-.09,0-.1,0-.21,0-.31,0-.03-.02-.06-.02-.09,0-.1,0-.2,0-.31,0-.03-.02-.06-.02-.09,0-1.03,0-2.06,0-3.08-.01-1.16-.09-2.31-.26-3.46-.39-1.09-.13-2.2-.18-3.29-.28-1.37-.13-2.69-.49-4.04-.7-2.43-.37-4.87-.66-7.22-1.36-1.77-.53-3.62-.93-5.24-1.89-.51-.3-.97-.69-1.4-1.09-.44-.41-.43-1.16,0-1.67.73-.9,1.73-1.41,2.74-1.91,1.29-.64,2.7-.92,4.07-1.29,2.46-.67,4.98-1.07,7.51-1.4.36-.05.72-.09,1.14,0-.21.28-.44.49-.7.68-1,.74-1.9,1.59-2.77,2.48-.04.04-.04.12-.06.18-.16.1-.4.13-.39.39-.64.38-.99,1.04-1.52,1.53-.21.19-.02.38.22.45,1.01.31,2.08.3,3.11.51.06,0,.12,0,.18,0,.13.1.26.16.42.09,1.1.19,2.22.27,3.33.33.04.04.07.05.12.01.11.02.21.03.32.05.94.31,1.91.33,2.88.3,1.66.08,3.31.29,4.98.19.65.04,1.31.12,1.96.11,1.66,0,3.33.15,4.99-.09,1.03.04,2.07.02,3.09-.09.03,0,.05,0,.08,0,1.13.06,2.26-.13,3.39-.11.68.01,1.37.1,1.99-.28.13,0,.27-.01.4-.02,0,0,.05.01.05.01l.05-.02c.93-.04,1.86-.13,2.78-.27.91-.14,1.82-.27,2.73-.39.36-.05.71-.09,1.06-.19.25.04.48-.09.73-.11.39-.03.36-.24.21-.5-.21-.38-.51-.69-.82-.99-.73-.71-1.3-1.58-2.2-2.11,0,0,0,0,0,0-.63-.65-1.27-1.28-2.09-1.7-.05-.08-.1-.16-.21-.17-.08-.37.18-.3.39-.29.3.01.6.18.91.07.97.1,1.92.3,2.88.47.79.13,1.58.29,2.38.26,0,.13.05.24.18.26.87.16,1.72.47,2.61.52,1.12.37,2.26.67,3.36,1.11.31.32.76.42,1.11.69.52.4,1.16.63,1.55,1.2.19.28.15.68.47.89-.07.11-.07.22.03.32-.06.03-.15.04-.17.09-.25.63-.76,1.01-1.3,1.37,0,0,0,0,0,0-.06.04-.12.08-.18.13,0,0,0,0,0,0-.05.03-.11.05-.16.08-.68.3-1.36.6-2.03.91-.99.18-1.91.66-2.93.74-.2.02-.09.21-.13.32-.11.01-.22.03-.32.04-.24-.03-.48-.03-.69.12-.08-.03-.14,0-.2.05-.12-.08-.21-.02-.28.08-1.08.14-2.16.34-3.21.64-.18,0-.36-.03-.54-.01-1.13.13-2.27.28-3.34.69-.36-.03-.73-.04-1.09.03-.48,0-1.01-.19-1.36.35-.55-.03-1.1-.03-1.64.09-.04,0-.08.01-.13.02Z"/>
  <path class="cls-2" d="m71.92,63.24c.18-.31.45-.55.51-.93.03-.22.78-.23,1.14-.09.43.17.84.41,1.33.36.56.41,1.23.53,1.88.72.51.25,1.03.49,1.54.74.81.39,1.41,1,1.88,1.76-.14.42-.04.89-.32,1.31-.25.38-.55.68-.91.94-.82.59-1.73,1-2.64,1.42-.52.18-1.03.36-1.55.54-.12-.02-.23,0-.32.08-.03-.01-.06,0-.08.02-1.37.29-2.76.5-4.1.9-.74.22-1.49.24-2.21.39-.96.21-1.93.38-2.91.49-1.21.14-2.44.21-3.65.39-1.01.15-2.01.06-3.01.11-3.49.19-6.98.35-10.47.24-2.43-.07-4.86-.18-7.29-.25-1.76-.05-3.5-.32-5.25-.51-1.58-.18-3.17-.34-4.72-.69-2.17-.5-4.37-.93-6.47-1.73-1.23-.47-2.36-1.09-3.34-2-.94-.88-.85-1.38,0-2.45.42-.53,1.03-.88,1.64-1.17,1.45-.69,2.95-1.26,4.52-1.64.47-.11.81-.12,1.06.45.52,1.23,1.33,2.31,2.1,3.4.23.33.57.4.89.45,2.08.35,4.15.8,6.27.92,1.16.07,2.33.15,3.49.3,1.54.21,3.1.11,4.64.21,1.81.13,3.62.13,5.44.15,1.34.01,2.67-.07,4-.09,1.55-.03,3.11-.03,4.64-.22,1.89-.23,3.79-.31,5.67-.61,1.36-.22,2.71-.57,4.1-.65.2-.01.37-.08.52-.23.86-.88,1.44-1.96,1.99-3.04Z"/>
  <path class="cls-1" d="m48.92,40.07c.1,0,.21,0,.31,0,.03,0,.06,0,.09,0,.1,0,.21,0,.31,0,.03,0,.06,0,.09,0,.1,0,.21,0,.31,0,.03,0,.06,0,.09,0,.07,0,.14,0,.2,0,.38.26,1.31.26,1.69,0,.1,0,.2,0,.3,0,.03,0,.06,0,.09,0,1.13,0,2.25,0,3.38-.01,0,.93-.07,1.84-.41,2.72-.05.13-.11.25-.23.31-.58.29-1.21.58-1.85.36-.6-.2-1.19-.22-1.8-.22-.41,0-.83,0-1.24,0-.51.01-.99.05-1.5.29-.61.28-1.39.21-2.08-.03-.19-.07-.35-.18-.54-.24-.38-.12-.45-.36-.47-.75-.05-.82-.2-1.63-.31-2.45,1.03,0,2.06,0,3.08.01.03,0,.06,0,.09,0,.1,0,.2,0,.31,0,.03,0,.06,0,.09,0Z"/>
  <path class="cls-1" d="m48.79,48.01c1.88,0,3.77,0,5.65,0,.13,0,.27,0,.4.02.16.02.27.12.31.28.05.19-.03.33-.2.41-.62.31-1.18.69-1.71,1.13-.28.23-.69.29-1.04.21-.71-.16-1.37-.48-1.94-.95-.28-.23-.58-.28-.92-.3-.84-.05-1.68.16-2.52,0-.08-.02-.17,0-.25-.01-.29-.04-.63-.15-.63-.45,0-.38.39-.32.66-.33.73-.02,1.46.05,2.18,0Z"/>
  <path class="cls-1" d="m74.38,70.09s.05-.03.08-.02c.12.02.22,0,.32-.08.52-.18,1.03-.36,1.55-.54.12,0,.23.02.35.03.52.04.69.31.66.83-.04.64-.25,1.29.08,1.92.08.16.03.41-.17.39-1.04-.12-1.94.66-2.99.44-.06-.01-.13,0-.2-.02-.19-.06-.31-.17-.14-.35.2-.22.13-.41.02-.63-.46-.92-.45-.94.25-1.67.08-.08.13-.19.19-.29Z"/>
  <path class="cls-1" d="m80.55,71.63c-.11-.17-.18-.28-.23-.39-.05-.1-.27-.19-.1-.31.16-.11.3.02.37.19.06.14.07.28-.04.51Z"/>
  <path class="cls-1" d="m30.84,25.33c.15-.14.3-.12.45-.03.06.04.04.13-.03.16-.16.07-.31.04-.42-.13Z"/>
  <path class="cls-1" d="m34.61,34.37c-.16.07-.3,0-.42-.09-.06,0-.12,0-.18,0-1.03-.21-2.1-.2-3.11-.51-.24-.07-.43-.26-.22-.45.53-.49.88-1.15,1.52-1.53.64-.26,1.04-.03,1.36.55.17.31.58.35.91.46.51.17.43.67.55,1.03.1.29-.18.42-.41.53Z"/>
  <path class="cls-3" d="m98.28,38.49c.33.24.35.61.41.96.16.95.33,1.9.49,2.84.13.71.2,1.42.23,2.14-.14.14.02.5-.24.47-.26-.03-.25-.36-.23-.59.07-.99-.22-1.93-.31-2.9-.09-.98-.35-1.94-.36-2.93Z"/>
  <path class="cls-3" d="m74.31,42.38c.62.98.65,2.12.81,3.21.13.84.07.85.9,1,.5.09,1,.22,1.5.33.15.03.29.07.32.26-.83.13-1.59-.18-2.38-.33-.22-.04-.38-.23-.43-.44-.26-1.26-.5-2.52-.75-3.78-.01-.08.02-.16.03-.24Z"/>
  <path class="cls-3" d="m99.6,53.68c-.12.63-.04,1.27-.14,1.9-.18,1.13-.23,2.28-.46,3.4-.04.18-.12.34-.26.46-.17-.23-.17-.48-.11-.75.19-.8.28-1.61.34-2.44.05-.68.19-1.36.19-2.05,0-.25.14-.47.44-.53Z"/>
  <path class="cls-3" d="m73.88,55.37c1.11-.58,2.37-.53,3.56-.8.69-.16,1.4-.25,2.11-.38-.34.37-.77.51-1.26.59-1.22.19-2.43.43-3.64.64-.26.05-.52.09-.77-.06Z"/>
  <path class="cls-3" d="m53.19,35.27c-1.66.24-3.32.09-4.99.09-.65,0-1.31-.07-1.96-.11.68-.16,1.38-.06,2.07-.15,1-.13,2.01-.16,3.02-.12.63.02,1.23.21,1.85.29Z"/>
  <path class="cls-3" d="m95.87,31.08c.44.41.59,1,.81,1.51.37.86.6,1.79.89,2.69.07.22.09.45.09.68-.35-.16-.5-.47-.58-.82-.28-1.39-.73-2.74-1.21-4.07Z"/>
  <path class="cls-3" d="m66.74,30.19c.9.53,1.47,1.4,2.2,2.11.31.3.6.61.82.99.15.26.18.47-.21.5-.25.02-.47.15-.73.11,0-.05,0-.11.02-.15.47-.7.03-1.15-.42-1.61-.47-.47-.93-.93-1.4-1.4-.16-.15-.3-.31-.27-.55Z"/>
  <path class="cls-3" d="m39.04,1.65c.03-.29-.21-.17-.4-.25,1.5-.21,2.93-.54,4.39-.59-.28.35-.66.46-1.1.46-.98,0-1.93.27-2.9.38Z"/>
  <path class="cls-3" d="m80.27,33.49c-.32-.21-.28-.61-.47-.89-.39-.57-1.03-.81-1.55-1.2-.35-.27-.8-.36-1.11-.69,1.25.1,2.25.65,2.95,1.7.22.32.3.69.17,1.08Z"/>
  <path class="cls-3" d="m64.83,39.06c1.08-.41,2.21-.56,3.34-.69.18-.02.36,0,.54.01-.36.36-.81.46-1.3.5-.61.05-1.21.16-1.81.24-.26.04-.52.09-.77-.06Z"/>
  <path class="cls-3" d="m97.53,64.32c0,.77-.39,1.43-.55,2.16-.06.28-.21.54-.27.84-.04.2-.1.39-.34.43,0-.42.2-.8.27-1.2.09-.52.32-1,.39-1.53.04-.3.17-.58.49-.69Z"/>
  <path class="cls-3" d="m82.94,43.62c-1.09-.27-2.18-.56-3.23-.97.78-.06,1.53.15,2.29.23.4.04.72.37.94.74Z"/>
  <path class="cls-3" d="m73.79,29.6c-.89-.05-1.74-.36-2.61-.52-.13-.02-.18-.13-.18-.26.8.09,1.63-.02,2.38.39.17.1.36.18.41.39Z"/>
  <path class="cls-3" d="m73.41,37.43c.04-.11-.07-.31.13-.32,1.02-.08,1.93-.57,2.93-.74-.14.31-.38.46-.71.54-.78.19-1.54.43-2.34.52Z"/>
  <path class="cls-3" d="m41.27,35.06c-.97.04-1.94.01-2.88-.3.81-.17,1.63-.07,2.45-.05.2,0,.37.12.43.35Z"/>
  <path class="cls-3" d="m88.31,18.38c.83.76,1.53,1.63,1.99,2.67-.57-.27-.85-.81-1.19-1.28-.32-.43-.64-.87-.8-1.4Z"/>
  <path class="cls-3" d="m95.78,69.3c-.34.78-.47,1.65-.96,2.38-.06.09-.12.16-.23.15.12-.84.42-1.62.86-2.35.07-.12.19-.17.33-.18Z"/>
  <path class="cls-3" d="m82.65,53.43c.7-.54,1.58-.6,2.37-.88-.02.23-.18.36-.37.43-.65.23-1.3.45-2.01.45Z"/>
  <path class="cls-3" d="m57.18.82c.97-.07,1.86.29,2.78.54-.17.14-.37.1-.57.07-.57-.09-1.14-.19-1.71-.27-.23-.03-.41-.11-.5-.34Z"/>
  <path class="cls-3" d="m64.65,28.49c.82.42,1.46,1.05,2.09,1.7-.59.02-.91-.46-1.33-.75-.34-.24-.75-.44-.77-.95Z"/>
  <path class="cls-3" d="m61.75,34.78c-.62.39-1.31.3-1.99.28.1-.35.35-.49.7-.48.44,0,.87.06,1.29.2Z"/>
  <path class="cls-3" d="m92.4,24.21c.45.27.74.67.85,1.16.06.28.35.45.31.75-.49-.2-.59-.72-.86-1.09-.17-.23-.21-.55-.3-.82Z"/>
  <path class="cls-3" d="m65.73,28.1c-.31.11-.61-.06-.91-.07-.2,0-.47-.08-.39.29-.21-.14-.62-.27-.54-.48.1-.27.5-.13.75-.09.37.06.77.09,1.09.35Z"/>
  <path class="cls-3" d="m94.39,27.9c.42.1.47.52.63.82.22.4.35.85.52,1.28-.62-.57-.89-1.33-1.14-2.1Z"/>
  <path class="cls-3" d="m76.77,63.3c-.64-.19-1.32-.3-1.88-.72.72,0,1.43.01,1.88.72Z"/>
  <path class="cls-3" d="m58.57,39.75c.61-.25,1.25-.21,1.89-.19-.37.14-.76.21-1.12.43-.29.18-.56-.02-.77-.24Z"/>
  <path class="cls-3" d="m69.39,51.15c-.63.1-1.23.35-1.88.32.03-.39.31-.46.62-.48.43-.02.84.08,1.26.16Z"/>
  <path class="cls-3" d="m89.7,49.6c-.06-.29.16-.49.23-.74.14-.5-.04-.97-.12-1.45.65.51.59,1.83-.11,2.19Z"/>
  <path class="cls-3" d="m78.83,35.26c.54-.35,1.05-.74,1.3-1.37.02-.04.11-.06.17-.09.08.73-.53,1.33-1.47,1.46Z"/>
  <path class="cls-3" d="m65.73,2.87c.63.05,1.25.16,1.7.67-.57-.22-1.27-.11-1.7-.67Z"/>
  <path class="cls-3" d="m82.35,12.31c.55.22.89.69,1.29,1.08-.58-.03-1.11-.47-1.29-1.08Z"/>
  <path class="cls-3" d="m62.38,39.43c.35-.54.88-.34,1.36-.35-.36.46-.87.38-1.36.35Z"/>
  <path class="cls-3" d="m97.76,36.37c.22.44.43.89.41,1.4-.29-.42-.48-.87-.41-1.4Z"/>
  <path class="cls-3" d="m27.93,5.54c.39-.39.9-.51,1.39-.7-.37.41-.84.62-1.39.7Z"/>
  <path class="cls-3" d="m98.73,59.65c-.03.4.11.83-.19,1.19-.17-.43-.08-.82.19-1.19Z"/>
  <path class="cls-3" d="m87.86,51.27c.28-.35.6-.64,1.04-.78-.2.46-.54.72-1.04.78Z"/>
  <path class="cls-3" d="m33.69,3.18c.17-.44.59-.3.91-.4-.19.4-.53.45-.91.4Z"/>
  <path class="cls-3" d="m72.19,50.78c-.38.15-.78.24-1.19.18.35-.41.77-.3,1.19-.18Z"/>
  <path class="cls-3" d="m86.62,16.35c.29.17.5.4.6.73-.35-.12-.55-.37-.6-.73Z"/>
  <path class="cls-3" d="m6.26,26.42c.04-.33.26-.56.44-.82,0,.36,0,.7-.44.82Z"/>
  <path class="cls-3" d="m71.59,55.66c.25-.17.52-.19.81-.13-.24.25-.53.12-.81.13Z"/>
  <path class="cls-3" d="m75.09,7.11c.21.07.42.15.53.37-.27.01-.47-.08-.53-.37Z"/>
  <path class="cls-3" d="m32.35,3.64c.13-.21.26-.41.56-.3-.14.18-.34.26-.56.3Z"/>
  <path class="cls-3" d="m72.4,37.6c.21-.15.45-.15.69-.12-.21.13-.44.18-.69.12Z"/>
  <path class="cls-3" d="m67.92,56.07c.15-.13.33-.09.5-.08-.16.1-.31.18-.5.08Z"/>
  <path class="cls-3" d="m98.21,37.99c.09.12.11.24.06.38-.09-.12-.1-.25-.06-.38Z"/>
  <path class="cls-3" d="m72.8,55.5c.09-.09.19-.1.29-.04-.08.12-.18.13-.29.04Z"/>
  <path class="cls-3" d="m99.62,52.49c0,.2,0,.39-.01.59-.1-.2-.09-.39.01-.59Z"/>
  <path class="cls-3" d="m71.92,37.74c.07-.11.15-.16.28-.08-.08.07-.17.1-.28.08Z"/>
  <path class="cls-3" d="m44.97.73c.11-.09.24-.08.36-.03-.12.07-.24.07-.36.03Z"/>
  <path class="cls-3" d="m6.7,25.59c.05-.06.09-.11.14-.17-.02.08-.06.14-.14.17Z"/>
  <path class="cls-3" d="m97.66,35.98c.09.04.09.11.07.19-.02-.06-.05-.13-.07-.19Z"/>
  <path class="cls-3" d="m54.19.67c.07,0,.13.01.2.02-.07.06-.14.05-.2-.02Z"/>
  <path class="cls-3" d="m54.6.7c.09-.05.16-.01.22.06-.07-.02-.14-.04-.22-.06Z"/>
  <path class="cls-3" d="m74.58,6.84c.1-.03.17,0,.23.08-.08-.03-.16-.05-.23-.08Z"/>
  <path class="cls-3" d="m78.66,35.38c.06-.04.12-.08.18-.13-.06.04-.12.08-.18.13Z"/>
  <path class="cls-3" d="m75.61,7.48c.1,0,.17.03.22.12-.09,0-.17-.04-.22-.12Z"/>
  <polygon class="cls-3" points="95.57 30.05 95.61 30.06 95.59 30.09 95.57 30.05"/>
  <path class="cls-3" d="m94.28,27.77s.08.1.12.14c-.04-.05-.08-.1-.12-.14Z"/>
  <polygon class="cls-3" points="86.53 16.27 86.54 16.26 86.54 16.28 86.53 16.27"/>
  <polygon class="cls-3" points="86.41 16.15 86.44 16.15 86.43 16.18 86.41 16.15"/>
  <path class="cls-3" d="m87.64,51.38c.05-.03.11-.05.16-.08-.05.03-.11.05-.16.08Z"/>
  <path class="cls-3" d="m60.66,51.97s-.06,0-.1,0c.03,0,.06,0,.1,0Z"/>
  <path class="cls-3" d="m95.64,30.32s.03.05.01.08c-.03-.02-.04-.05-.01-.08Z"/>
  <path class="cls-3" d="m99.63,52.19s.02.06,0,.09c0-.03,0-.06,0-.09Z"/>
  <path class="cls-3" d="m82.24,12.22c.06,0,.09.02.1.08-.03-.03-.06-.05-.1-.08Z"/>
  <path class="cls-3" d="m38.07,34.71s-.08.03-.12-.01c.04,0,.08,0,.12.01Z"/>
  <polygon class="cls-3" points="82.37 53.49 82.38 53.47 82.39 53.49 82.37 53.49"/>
  <path class="cls-3" d="m99.61,53.39s.02.06,0,.09c-.03-.03-.02-.06,0-.09Z"/>
  <path class="cls-3" d="m62.24,34.75l-.05.02s-.05-.01-.05-.01c.03,0,.06,0,.09,0Z"/>
  <path class="cls-3" d="m56.37,35.18s-.05,0-.08,0c.03,0,.05,0,.08,0Z"/>
  <path class="cls-3" d="m74.88,6.95c.06,0,.1.02.11.09-.04-.03-.07-.06-.11-.09Z"/>
  <path class="cls-3" d="m67.62,56.08s.07,0,.1,0c-.03,0-.07,0-.1,0Z"/>
  <path class="cls-3" d="m46.33.66s.07,0,.1,0c-.03,0-.07,0-.1,0Z"/>
  <path class="cls-3" d="m45.64.68s.07,0,.1,0c-.03,0-.07,0-.1,0Z"/>
  <path class="cls-3" d="m95.86,68.99s0,.06,0,.1c0-.02-.01-.05-.01-.07,0,0,.01-.02.02-.03Z"/>
  <path class="cls-3" d="m60.61,39.54s.08-.01.13-.02c-.04,0-.08.01-.13.02Z"/>
  <path class="cls-3" d="m78.5,35.47c.05-.03.11-.05.16-.08-.05.03-.11.05-.16.08Z"/>
  <path class="cls-3" d="m52.01,40.08c-.39.26-1.32.25-1.69,0,.56,0,1.13,0,1.69,0Z"/>
  <path class="cls-1" d="m34.02,34.27c.06,0,.12,0,.18,0-.06,0-.12,0-.18,0Z"/>
  <path class="cls-3" d="m52.4,40.08s-.06,0-.09,0c.03-.02.06-.02.09,0Z"/>
  <path class="cls-3" d="m50.11,40.08s-.06,0-.09,0c.03-.02.06-.02.09,0Z"/>
  <path class="cls-3" d="m49.71,40.08s-.06,0-.09,0c.03-.02.06-.02.09,0Z"/>
  <path class="cls-3" d="m49.31,40.07s-.06,0-.09,0c.03-.02.06-.02.09,0Z"/>
  <path class="cls-3" d="m48.92,40.07s-.06,0-.09,0c.03-.02.06-.02.09,0Z"/>
  <path class="cls-3" d="m48.52,40.07s-.06,0-.09,0c.03-.02.06-.02.09,0Z"/>
  <path class="cls-3" d="m74.78,70c-.09.07-.2.1-.32.08.09-.09.2-.1.32-.08Z"/>
</svg>