<?xml version="1.0" encoding="UTF-8"?>
<svg id="Layer_1" data-name="Layer 1" xmlns="http://www.w3.org/2000/svg" xmlns:xlink="http://www.w3.org/1999/xlink" viewBox="0 0 100 100">
  <defs>
    <style>
      .cls-1 {
        fill: url(#linear-gradient);
      }

      .cls-1, .cls-2 {
        fill-rule: evenodd;
      }

      .cls-2 {
        fill: #fff;
      }
    </style>
    <linearGradient id="linear-gradient" x1="-564" y1="746.11" x2="-464" y2="846.11" gradientTransform="translate(564 -746.11)" gradientUnits="userSpaceOnUse">
      <stop offset="0" stop-color="#0077fc"/>
      <stop offset="1" stop-color="#095eb5"/>
    </linearGradient>
  </defs>
  <path class="cls-1" d="m100,50c0-6.5-1.3-13.1-3.8-19.1s-6.2-11.6-10.8-16.3c-4.7-4.6-10.2-8.3-16.3-10.8S56.5,0,50,0s-13.1,1.3-19.1,3.8c-6,2.5-11.6,6.2-16.3,10.8-4.6,4.7-8.3,10.2-10.8,16.3S0,43.5,0,50s1.3,13.1,3.8,19.1c2.5,6,6.2,11.6,10.8,16.3,4.6,4.6,10.2,8.3,16.2,10.8s12.7,3.8,19.2,3.8,13.1-1.3,19.1-3.8,11.6-6.2,16.3-10.8c4.6-4.6,8.3-10.2,10.8-16.2s3.8-12.7,3.8-19.2Z"/>
  <path class="cls-2" d="m47.4,27.4h5.2v45.2h-5.2V27.4Z"/>
  <path class="cls-2" d="m44.5,48.7v-5.4c-4.1-2-7-6.3-7-11.2,0-6.9,5.6-12.5,12.5-12.5,7.8,0,13.4,5.6,13.4,12.5,0,1.7-.4,3.4-1.2,5.4l-2.2-7.2-4.4,1.4,3.9,14.9,15.2-5.6-1.9-4.4-5.7,1.9c1-2.2,1.2-3.9,1.2-6.5,0-9.7-7.8-17.5-18.4-17.5-9.7,0-17.5,7.8-17.5,17.5.1,7.8,5.1,14.4,12.1,16.7Z"/>
  <path class="cls-2" d="m55.5,51.3v5.4c4.1,2,7,6.3,7,11.2,0,6.9-5.6,12.5-12.5,12.5-7.8,0-13.4-5.6-13.4-12.5,0-1.7.4-3.4,1.2-5.4l2.2,7.2,4.4-1.4-3.9-14.9-15.2,5.6,1.9,4.4,5.7-1.9c-1,2.2-1.2,3.9-1.2,6.5,0,9.7,7.8,17.5,18.4,17.5,9.7,0,17.5-7.8,17.5-17.5-.1-7.8-5.1-14.4-12.1-16.7Z"/>
</svg>