<?xml version="1.0" encoding="UTF-8"?>
<svg id="Layer_1" data-name="Layer 1" xmlns="http://www.w3.org/2000/svg" xmlns:xlink="http://www.w3.org/1999/xlink" viewBox="0 0 100 100">
  <defs>
    <style>
      .cls-1, .cls-2 {
        fill: none;
      }

      .cls-3 {
        fill: #fff;
      }

      .cls-2 {
        clip-path: url(#clippath);
      }
    </style>
    <clipPath id="clippath">
      <rect class="cls-1" x="13.4" y="22.14" width="73.21" height="55.72"/>
    </clipPath>
  </defs>
  <circle class="cls-3" cx="50" cy="50" r="50"/>
  <g class="cls-2">
    <g>
      <path class="cls-3" d="m17.28,32.18h12.31v.78c0,1.1-.06,2.2,0,3.3.19,2.01.71,3.95,1.55,5.83.78,1.68,1.75,3.17,3.04,4.47,1.55,1.62,3.43,2.85,5.64,3.5.19.06.26.13.26.32-.06,1.04.13,2.01-.13,3.04-.39,1.68-1.36,2.85-2.85,3.5-.71.32-1.43.45-2.2.45h-7.45c-1.17,0-2.27-.19-3.24-.91-1.43-1.04-2.07-2.53-2.07-4.34v-15.03c0-.71-.45-1.1-1.1-1.3-1.68-.52-2.92-1.68-3.69-3.24,0-.06-.06-.19-.06-.26v-.13Zm7.19,10.95c0,.91.65,1.62,1.55,1.62.84,0,1.62-.71,1.62-1.62s-.71-1.62-1.62-1.68c-.78.06-1.62.71-1.55,1.68Z"/>
      <path class="cls-3" d="m38.08,43.13c0,.78-.71,1.49-1.49,1.49s-1.49-.71-1.49-1.55c0-.78.71-1.49,1.49-1.49.84.06,1.62.84,1.49,1.55Z"/>
      <path d="m24.47,43.13c-.06-.97.78-1.62,1.55-1.62.91,0,1.62.78,1.62,1.68s-.78,1.62-1.62,1.62c-.91-.06-1.55-.78-1.55-1.68Z"/>
      <path d="m84.53,59.91h0q.06,0,0,0h.19c.06,0,.19-.06.26-.06q.06-.06.13-.13h0c.71-.45.65-1.17.65-1.88v-9.78c0-1.04-.13-2.07-.45-3.11-1.17-3.56-4.47-6.15-8.36-6.15-4.15-.06-8.29-.06-12.44-.06-7.13,0-14.25,0-21.31-.06h-.26c-.13,0-.19-.06-.32-.06-.13-.32,0-.52.32-.65.13-.06.19-.06.32-.13,1.94-.97,3.3-2.59,4.15-4.6.32-.71.58-1.49.65-2.27,0-.91-.45-1.43-1.36-1.43-1.75,0-3.5,0-5.25-.06h-.52v-2.98c0-.39-.06-.78-.13-1.1-.45-1.62-2.07-2.72-3.95-2.33-1.3.26-2.46,1.49-2.53,2.79-.06,1.04-.06,2.07-.06,3.11v.52h-6.15v-3.3c-.06-2.2-2.2-3.82-4.47-3.04-1.36.45-2.27,1.81-2.27,3.3v3.04h-.58c-1.75,0-3.5,0-5.25.06-.84,0-1.36.52-1.3,1.36.06.52.19,1.04.32,1.49.78,2.4,2.27,4.28,4.54,5.44.45.26.58.45.58.97v13.73c0,.65.06,1.3.26,1.88.91,2.98,2.85,4.86,5.83,5.44.06,0,.13.06.19.06h.19c.06,0,.13,0,.13.06h7.52c.65,0,1.04.32,1.36.84.13.32.32.71.32,1.1v1.1c.06,1.04.06,2.14.13,3.17.06,1.62.13,3.24.19,4.86.06,1.23.06,2.46.06,3.69.06,1.23.91,2.14,2.01,2.2h7.71c.91,0,1.68-.65,1.88-1.55.26-1.1.52-2.27.71-3.37.26-1.17.52-2.27.78-3.43.13,0,.13-.06.19-.06h15.87c.32,0,.39.13.45.39.13.71.32,1.43.45,2.2.32,1.36.58,2.79.91,4.15.19.91,1.04,1.68,1.94,1.75h7.71c1.04,0,1.94-.91,2.01-2.01.06-1.3.13-2.59.19-3.95.06-1.62.19-3.24.26-4.92.06-.97.06-1.88.13-2.85.06-1.68.19-3.3.26-4.99.13-1.81.19-3.69.26-5.51.06-1.55.19-3.11.19-4.66,0-2.27-.78-4.28-2.14-5.96-.06-.06-.13-.19-.19-.32h.26c2.79.39,4.99,2.98,4.99,5.83v10.24c0,.65.06,1.3.58,1.75h0c.52.19.84.26,1.23.26h0ZM36.78,26.35c0-.39.39-.78.78-.78.32,0,.78.26.78.65v3.24h-1.55v-3.11Zm-.13,15.29c.78,0,1.55.78,1.49,1.55,0,.78-.71,1.49-1.49,1.49s-1.49-.71-1.49-1.55c0-.78.71-1.49,1.49-1.49Zm-12.76-15.1c0-.19,0-.39.13-.52.13-.32.52-.52.78-.45.39.06.65.39.65.78v2.92q0,.06-.06.19h-1.43c0-.13-.06-.19-.06-.32v-2.59Zm13.22,30.45c-.71.32-1.43.45-2.2.45h-7.45c-1.17,0-2.27-.19-3.24-.91-1.43-1.04-2.07-2.53-2.07-4.34v-15.03c0-.71-.45-1.1-1.1-1.3-1.68-.52-2.92-1.68-3.69-3.24,0-.13-.06-.26-.06-.32v-.13h12.31v.78c0,1.1-.06,2.2,0,3.3.19,2.01.71,3.95,1.55,5.83.78,1.68,1.75,3.17,3.04,4.47,1.55,1.62,3.43,2.85,5.64,3.5.19.06.26.13.26.32-.06,1.04.13,2.01-.13,3.04-.32,1.68-1.3,2.85-2.85,3.56Zm39.91-8.03c-.13,1.62-.19,3.24-.26,4.86-.13,2.07-.19,4.15-.32,6.22-.13,2.33-.26,4.73-.39,7.06-.06,1.43-.19,2.85-.26,4.28-.06.91-.13,1.75-.19,2.72h-5.96c-.71-2.79-1.23-5.57-1.94-8.42-.19,0-.32-.06-.45-.06h-20.15c-.52,0-.52.06-.65.52-.26,1.23-.58,2.53-.84,3.76-.26,1.17-.52,2.4-.78,3.56q-.13.58-.65.58h-4.92q-.52,0-.52-.58c0-3.24-.06-6.48-.06-9.65,0-1.43,0-2.85-.06-4.28,0-.32.06-.52.39-.65,1.62-.97,2.79-2.4,3.37-4.28.19-.58.26-1.17.26-1.75v-10.88c0-.26.13-.32.32-.32h26.95v.06h3.04c.32,0,.58.13.78.39.45.52.84.97,1.3,1.43,1.43,1.49,2.2,3.3,2.01,5.44Z"/>
      <path d="m84.6,60.75h-.06c-.39,0-.91-.06-1.43-.32l-.32-.13-.06-.19c-.58-.65-.65-1.49-.65-2.2v-10.24c0-1.81-1.04-3.5-2.59-4.41.84,1.55,1.3,3.17,1.23,4.92,0,1.1-.06,2.2-.13,3.24,0,.52-.06.97-.06,1.49l-.06,1.94c-.06,1.23-.13,2.4-.19,3.63-.06.97-.13,1.88-.19,2.85-.06.71-.06,1.43-.13,2.14,0,.52-.06,1.04-.06,1.55,0,.45-.06.84-.06,1.3-.06.97-.13,1.88-.13,2.85l-.19,2.98c-.06.97-.13,2.01-.13,2.98-.06,1.49-1.36,2.72-2.79,2.72h-7.71c-1.3,0-2.46-1.04-2.72-2.33-.19-.91-.39-1.88-.58-2.79l-.39-1.75c-.13-.52-.19-.97-.32-1.49h-15.16l-.13.45c-.19.78-.39,1.55-.52,2.4-.06.45-.19.84-.26,1.3-.13.71-.32,1.36-.45,2.07-.32,1.3-1.43,2.2-2.66,2.2h-7.71c-1.55,0-2.79-1.3-2.79-2.98,0-.58,0-1.23-.06-1.81,0-.65,0-1.23-.06-1.88,0-1.1-.06-2.2-.13-3.3l-.19-4.86v-1.04c0-.13-.06-.32-.26-.78-.13-.26-.32-.39-.65-.39h-7.32l-.52-.06-.32-.13c-3.24-.65-5.44-2.66-6.41-5.96-.19-.58-.26-1.3-.26-2.14v-13.93s-.06,0-.13-.06c-2.4-1.23-4.02-3.17-4.92-5.9-.19-.52-.32-1.1-.39-1.68-.06-.58.13-1.17.52-1.55.39-.39.97-.65,1.55-.65h5.05v-2.33c0-1.88,1.1-3.5,2.79-4.08,1.3-.45,2.66-.26,3.76.52,1.04.78,1.68,1.94,1.75,3.24v2.53h4.6v-.78c0-.71,0-1.43.06-2.14.06-1.68,1.43-3.17,3.11-3.56,2.14-.45,4.28.84,4.86,2.92.13.39.13.78.19,1.3v2.2h4.99c.65,0,1.23.19,1.62.58.39.39.58.97.52,1.62,0,.97-.39,1.81-.71,2.59-.78,1.81-1.94,3.24-3.43,4.28h19.82c4.6,0,8.49,0,12.44.06,4.15.06,7.77,2.72,9.07,6.74.32.97.45,2.07.52,3.37v9.78c0,.52,0,1.17-.32,1.75l-1.68,1.36Zm-48.33,2.4l.19,4.66c.06,1.1.06,2.2.13,3.3,0,.65,0,1.23.06,1.88,0,.58,0,1.23.06,1.81,0,.78.58,1.36,1.23,1.43h7.71c.52,0,1.04-.39,1.17-.97.13-.71.32-1.36.45-2.07.06-.45.19-.91.26-1.3.19-.78.39-1.55.52-2.4l.32-1.49.52-.13c.06,0,.19-.06.32-.06h15.87c.65,0,1.1.39,1.23,1.04.13.58.26,1.17.39,1.68l.39,1.75c.19.97.39,1.88.58,2.85.13.58.65,1.1,1.23,1.1h7.71c.58,0,1.17-.58,1.23-1.23.06-.97.13-2.01.13-2.98l.19-2.98c.06-.97.13-1.88.13-2.85,0-.45.06-.84.06-1.3,0-.52.06-1.04.06-1.55.06-.71.06-1.43.13-2.14.06-.97.13-1.88.19-2.85.06-1.23.13-2.4.19-3.63l.06-1.94c0-.52.06-.97.06-1.49.06-1.04.13-2.14.13-3.17,0-1.94-.65-3.82-1.94-5.44-.06-.06-.13-.19-.19-.26l-.84-1.23,1.43-.13h.32c3.11.45,5.7,3.37,5.7,6.61v10.24c0,.52.06.84.26,1.1.13.06.26.06.39.06h.45c.32-.19.32-.45.32-1.17v-9.85c0-1.1-.13-2.01-.39-2.85-1.1-3.3-4.15-5.57-7.58-5.64-3.95-.06-7.84-.06-12.44-.06h-21.83c-.13,0-.19-.06-.32-.06l-.52-.13-.13-.45c-.26-.71.06-1.36.78-1.62.06-.06.19-.06.26-.13,1.68-.91,2.98-2.27,3.82-4.21.26-.65.52-1.3.58-1.94,0-.26,0-.39-.13-.45-.06-.06-.26-.13-.45-.13h-5.64l-.91-.06-.06-.91v-2.85c0-.26,0-.65-.13-.91-.32-1.1-1.49-2.07-3.04-1.81-.97.19-1.88,1.17-1.94,2.07-.06.65-.06,1.36-.06,2.07v.97c0,.13,0,.26-.06.39l-.06.91h-7.58v-4.02c0-.84-.39-1.55-1.1-2.01-.65-.45-1.55-.58-2.33-.32-1.04.32-1.68,1.36-1.68,2.53v2.98l-.06.91h-6.54c-.19,0-.32.06-.45.13-.06.06-.06.26-.06.39,0,.45.19.91.32,1.3.71,2.27,2.14,3.95,4.08,4.92.71.39,1.04.91,1.04,1.68v13.73c0,.65.06,1.23.19,1.68.84,2.72,2.53,4.34,5.25,4.86.13,0,.26.06.32.13h8.1v.06c.65.13,1.17.58,1.49,1.23.13.32.39.84.39,1.36v1.04c.06.19.06.26.06.32Zm-10.37-2.4s.06,0,0,0h0Zm13.35,14.19c-.97,0-1.3-.39-1.3-1.36l-.06-10.24c0-1.23,0-2.53-.06-3.76,0-.58.26-1.04.78-1.36,1.49-.91,2.53-2.2,3.04-3.82.13-.45.19-.97.19-1.55v-10.88c0-.45.13-.71.32-.84.13-.13.39-.32.84-.32h27.66v.13h2.2c.58,0,1.04.19,1.36.65.39.45.84.91,1.3,1.43,1.68,1.68,2.46,3.76,2.27,6.09-.06,1.1-.13,2.27-.19,3.37l-.39,7.64c-.13,2.33-.26,4.73-.39,7.06-.06,1.17-.13,2.33-.19,3.56l-.26,4.21h-7.26l-.13-.58c-.39-1.49-.71-3.04-1.04-4.54-.26-1.1-.52-2.2-.78-3.3h-19.89c-.19.78-.32,1.55-.52,2.33l-.39,1.62c-.26,1.1-.52,2.2-.78,3.37-.19.91-.52,1.17-1.43,1.17l-4.92-.06Zm.19-15.35c0,1.3,0,2.53.06,3.76v9.98h4.6c.26-1.1.52-2.2.71-3.3l.39-1.62c.19-.78.39-1.55.52-2.4.19-.78.45-1.17,1.36-1.17h20.54l.71.06.13.58c.32,1.3.58,2.59.91,3.89.26,1.3.58,2.59.91,3.89h4.66l.19-2.72c.06-1.17.13-2.33.19-3.5.13-2.33.26-4.73.39-7.06l.39-7.64c.06-1.17.13-2.27.19-3.43.13-1.88-.45-3.43-1.81-4.86-.45-.52-.97-.97-1.36-1.49q-.06-.06-.19-.06h-3.82v-.06h-25.59v10.5c0,.71-.13,1.43-.32,2.01-.71,2.01-1.94,3.56-3.76,4.66Zm3.5-17.17h0Zm-15.48,15.81c-1.49,0-2.66-.32-3.69-1.1-1.62-1.17-2.4-2.85-2.46-4.99v-15.03c0-.19-.06-.39-.52-.52-1.81-.58-3.17-1.81-4.15-3.63-.06-.13-.13-.26-.13-.39-.06-.19-.06-.39,0-.45l.13-.65.65-.06h13.09v2.59c0,.78,0,1.49.06,2.2.13,1.81.65,3.69,1.49,5.51.71,1.62,1.68,3.11,2.85,4.28,1.62,1.68,3.3,2.72,5.25,3.3.84.26.84.91.84,1.1v.97c0,.71.06,1.43-.13,2.2-.39,1.88-1.55,3.24-3.3,4.08-.71.32-1.49.52-2.53.52h-2.72c-1.55,0-3.11,0-4.73.06h0Zm-8.94-25.27c.71,1.04,1.62,1.75,2.79,2.07,1.36.45,1.62,1.43,1.62,2.01v15.03c0,1.55.58,2.79,1.75,3.69.71.52,1.62.78,2.79.78h7.45c.78,0,1.36-.13,1.88-.32,1.3-.58,2.14-1.55,2.4-2.98.13-.58.13-1.17.06-1.81v-.65c-2.07-.65-3.95-1.88-5.64-3.63-1.3-1.3-2.33-2.92-3.17-4.73-.91-2.01-1.43-4.02-1.62-6.09-.06-.78-.06-1.62-.06-2.33v-.97h-10.24v-.06Zm18.14,12.5h0c-.58,0-1.17-.26-1.62-.71-.45-.45-.65-1.04-.65-1.62,0-1.23,1.04-2.27,2.27-2.27h0c.65,0,1.3.32,1.68.84.39.45.58,1.04.52,1.55,0,1.17-1.04,2.2-2.2,2.2Zm-.06-3.04c-.32,0-.65.32-.65.71,0,.13.06.32.19.45s.32.26.52.26c.32,0,.65-.32.65-.71v-.06c0-.13-.06-.26-.13-.39-.13-.13-.39-.26-.58-.26h0Zm-10.56-12.12h-2.72l-.13-.71c0-.06-.06-.19-.06-.39v-2.66c0-.32.06-.65.19-.84.26-.65,1.04-1.04,1.68-.91.78.13,1.3.78,1.3,1.55v2.92c0,.19-.06.32-.06.39l-.19.65Zm-1.3-3.95h0Zm14.38,3.89h-3.11v-3.89c0-.84.65-1.49,1.49-1.55.39,0,.84.13,1.17.39s.45.65.52,1.04v2.33l-.06,1.68Z"/>
      <path class="cls-3" d="m75.01,43.52c-.45-.45-.91-.97-1.3-1.43-.19-.26-.45-.39-.78-.39h-2.07v-.06h-27.99c-.26,0-.32.13-.32.32v10.88c0,.58-.06,1.23-.26,1.75-.58,1.81-1.68,3.24-3.37,4.28-.26.19-.39.32-.39.65,0,1.43,0,2.85.06,4.28,0,3.24.06,6.48.06,9.65,0,.52,0,.58.52.58h4.92q.52,0,.65-.58c.26-1.17.52-2.4.78-3.56.26-1.23.58-2.53.84-3.76q.13-.52.65-.52h20.15c.13,0,.32,0,.45.06.65,2.85,1.23,5.64,1.94,8.42h5.96c.06-.97.13-1.81.19-2.72.06-1.43.19-2.85.26-4.28.13-2.33.26-4.73.39-7.06.13-2.07.19-4.15.32-6.22.06-1.62.13-3.24.26-4.86.26-2.14-.52-3.95-1.94-5.44Z"/>
      <path d="m53.17,50.45c2.92,0,5.31-2.4,5.31-5.38s-2.33-5.44-5.31-5.44-5.31,2.4-5.31,5.38,2.4,5.44,5.31,5.44Z"/>
      <path d="m68.4,61.14c2.46,0,4.47-2.01,4.47-4.54s-2.01-4.54-4.47-4.54-4.47,2.01-4.47,4.54,2.01,4.54,4.47,4.54Z"/>
      <path d="m53.3,67.36c2.46-.06,4.92.26,7.32.58h.19c.06-.39.06-.71.06-1.1,0-4.02-3.17-7.26-7.13-7.26s-7.13,3.24-7.13,7.26c0,.71.13,1.36.26,2.01,1.68-1.62,4.28-1.43,6.41-1.49Z"/>
      <path d="m56.67,39.31c-.19,0-.32,0-.45-.06-.65.71-.97,1.49-.97,2.4,0,2.4,2.66,4.34,5.96,4.34s5.96-1.94,5.96-4.34c0-.84-.32-1.68-.91-2.33,0,0-9.59,0-9.59,0Z"/>
      <path class="cls-3" d="m35.16,43.13c-.06-.97.78-1.62,1.55-1.62.91,0,1.62.78,1.62,1.68s-.78,1.62-1.62,1.62c-.91-.06-1.55-.78-1.55-1.68Z"/>
      <path class="cls-3" d="m25.58,28.75h-2.14c0-.13-.06-.26-.06-.39v-1.94c0-.26.06-.52.13-.71.19-.39.78-.65,1.17-.58.58.13,1.04.52,1.04,1.1v2.33s-.06.06-.13.19Z"/>
      <path class="cls-3" d="m38.66,28.75h-2.14c0-.13-.06-.26-.06-.39v-1.94c0-.26.06-.52.13-.71.19-.39.78-.65,1.17-.58.58.06.97.52.97,1.04v2.33c0,.06-.06.13-.06.26Z"/>
    </g>
  </g>
</svg>