<?xml version="1.0" encoding="UTF-8"?>
<svg id="Layer_1" data-name="Layer 1" xmlns="http://www.w3.org/2000/svg" viewBox="0 0 100 100">
  <defs>
    <style>
      .cls-1 {
        fill: #1e1e1e;
      }

      .cls-2 {
        fill: #fff;
        fill-rule: evenodd;
      }
    </style>
  </defs>
  <g id="Layer_2" data-name="Layer 2">
    <g id="Layer_1-2" data-name="Layer 1-2">
      <path id="SVGID" class="cls-2" d="m50,0c27.61,0,50,22.39,50,50s-22.39,50-50,50S0,77.61,0,50,22.39,0,50,0Z"/>
      <path id="SVGID-2" class="cls-1" d="m50.75,70.9c-15.99,0-28.95-4.62-28.95-10.81,0-3.23,3.53-6.14,9.18-8.19,4.41,2.83,11.81,4.28,20.2,4.28s15.43-1.77,19.88-4.48c5.33,2.03,8.64,4.86,8.64,7.98,0,6.2-12.96,11.22-28.95,11.22Z"/>
      <path id="SVGID-3" class="cls-1" d="m50.92,54.79c-12.12,0-21.95-3.8-21.95-8.49,0-2.6,3.03-4.93,7.78-6.48,3.39,1.77,8.47,2.9,14.17,2.9s10.78-1.13,14.17-2.9c4.76,1.56,7.78,3.88,7.78,6.48,0,4.69-9.82,8.49-21.95,8.49Z"/>
      <path id="SVGID-4" class="cls-1" d="m50.84,41.31c-9.37,0-16.97-3.14-16.97-7s7.6-7,16.97-7,16.97,3.14,16.97,7-7.6,7-16.97,7h0Z"/>
    </g>
  </g>
</svg>